<?xml version="1.0" encoding="UTF-8" standalone="no"?>
<svg
   width="35.189499"
   height="48.001801"
   viewBox="0 0 35.189499 48.001801"
   fill="none"
   version="1.1"
   id="svg3"
   sodipodi:docname="satisfaction.svg"
   xmlns:inkscape="http://www.inkscape.org/namespaces/inkscape"
   xmlns:sodipodi="http://sodipodi.sourceforge.net/DTD/sodipodi-0.dtd"
   xmlns="http://www.w3.org/2000/svg"
   xmlns:svg="http://www.w3.org/2000/svg">
  <sodipodi:namedview
     id="namedview3"
     pagecolor="#505050"
     bordercolor="#eeeeee"
     borderopacity="1"
     inkscape:showpageshadow="0"
     inkscape:pageopacity="0"
     inkscape:pagecheckerboard="0"
     inkscape:deskcolor="#505050">
    <inkscape:page
       x="0"
       y="0"
       width="35.189499"
       height="48.001801"
       id="page2"
       margin="0"
       bleed="0" />
  </sodipodi:namedview>
  <g
     clip-path="url(#clip0_489_598)"
     id="g3"
     style="fill:#f2f2f2;fill-opacity:1"
     transform="translate(-6)">
    <path
       d="m 19.1536,36.4993 c -0.6077,-0.6376 -1.3132,-1.1744 -2.0899,-1.5899 -0.8808,-0.2804 -1.8007,-0.4188 -2.725,-0.41 -1.22,-0.055 -2.5549,-0.12 -3.6699,-0.65 L 7.34383,44.1842 c -0.03264,0.1047 -0.03622,0.2163 -0.01033,0.3229 0.02588,0.1066 0.08025,0.2041 0.15728,0.2821 0.07703,0.0781 0.17384,0.1338 0.28006,0.1611 0.10622,0.0272 0.21786,0.0251 0.32298,-0.0061 l 4.81488,-1.41 c 0.1152,-0.0335 0.2378,-0.0309 0.3514,0.0075 0.1136,0.0385 0.2126,0.1109 0.2836,0.2075 l 3.095,3.965 c 0.066,0.0878 0.1551,0.1556 0.2574,0.1959 0.1022,0.0403 0.2136,0.0515 0.3219,0.0324 0.1082,-0.0192 0.209,-0.068 0.2912,-0.1409 0.0822,-0.073 0.1426,-0.1673 0.1745,-0.2724 l 3.1049,-9.6649 c -0.5711,-0.4228 -1.117,-0.8785 -1.635,-1.365 z"
       fill="#64D71E"
       id="path1"
       style="fill:#f2f2f2;fill-opacity:1" />
    <path
       d="m 36.3453,33.9294 c -1.1242,0.3944 -2.3087,0.589 -3.4999,0.575 -0.9233,-0.0152 -1.8431,0.1164 -2.725,0.39 -0.776,0.4206 -1.4798,0.9624 -2.085,1.605 -0.564,0.5436 -1.1673,1.045 -1.8049,1.5 l 2.9399,9.5948 c 0.0328,0.1051 0.0939,0.1992 0.1765,0.2719 0.0827,0.0727 0.1838,0.1212 0.2922,0.1403 0.1084,0.0191 0.22,0.0081 0.3225,-0.032 0.1025,-0.0401 0.1921,-0.1076 0.2588,-0.1952 l 3.09,-3.9649 c 0.0719,-0.0955 0.171,-0.1671 0.2843,-0.2055 0.1133,-0.0383 0.2355,-0.0416 0.3506,-0.0095 l 4.815,1.4 c 0.1048,0.0301 0.2158,0.0313 0.3212,0.0034 0.1054,-0.0278 0.2014,-0.0836 0.2777,-0.1614 0.0764,-0.0779 0.1302,-0.1749 0.1559,-0.2809 0.0257,-0.106 0.0223,-0.2169 -0.0098,-0.3211 z"
       fill="#64D71E"
       id="path2"
       style="fill:#f2f2f2;fill-opacity:1" />
    <path
       d="m 39.3495,14.6348 c -0.8202,-0.7869 -1.4969,-1.7107 -2,-2.73 C 36.9704,10.7913 36.7844,9.62109 36.7995,8.44487 36.7345,7.07989 36.6745,5.78491 36.0445,5.15492 35.4145,4.52493 34.0946,4.46493 32.7496,4.39993 31.5734,4.41504 30.4032,4.22903 29.2896,3.84994 28.2704,3.3469 27.3466,2.67012 26.5597,1.84997 25.5297,0.894986 24.5597,0 23.5947,0 c -0.965,0 -1.9349,0.894986 -2.9649,1.84497 -0.7869,0.82015 -1.7107,1.49693 -2.73,1.99997 -1.1135,0.37909 -2.2837,0.5651 -3.4599,0.54999 -1.365,0.065 -2.66,0.125 -3.29,0.75499 -0.63,0.62999 -0.69,1.92497 -0.755,3.28995 C 10.41,9.61609 10.224,10.7863 9.84494,11.8998 9.3419,12.9191 8.66512,13.8429 7.84497,14.6298 6.89499,15.6598 6,16.6297 6,17.5947 c 0,0.965 0.89499,1.935 1.84497,2.965 0.82015,0.7869 1.49693,1.7107 1.99997,2.7299 0.37906,1.1136 0.56506,2.2838 0.54996,3.46 0.065,1.365 0.125,2.6599 0.755,3.2899 0.63,0.63 1.945,0.695 3.29,0.76 1.1762,-0.0151 2.3464,0.1709 3.4599,0.55 1.0193,0.503 1.9431,1.1798 2.73,2 1.03,0.95 1.9999,1.845 2.9649,1.845 0.965,0 1.935,-0.895 2.965,-1.845 0.7869,-0.8202 1.7107,-1.497 2.7299,-2 1.1136,-0.3791 2.2838,-0.5651 3.46,-0.55 1.365,-0.065 2.6599,-0.125 3.2899,-0.755 0.63,-0.63 0.69,-1.9249 0.755,-3.2899 -0.0151,-1.1762 0.1709,-2.3464 0.55,-3.46 0.503,-1.0192 1.1798,-1.943 2,-2.7299 0.95,-1.03 1.845,-2 1.845,-2.965 0,-0.965 -0.89,-1.9349 -1.84,-2.9649 z m -7.4399,1.7949 -3.28,3.195 c -0.0913,0.0909 -0.1598,0.2023 -0.1998,0.3248 -0.04,0.1226 -0.0503,0.2529 -0.0301,0.3802 l 0.7749,4.4999 c 0.0244,0.1468 0.0074,0.2974 -0.0491,0.4351 -0.0565,0.1376 -0.1503,0.2567 -0.2708,0.344 -0.1205,0.0872 -0.263,0.1392 -0.4114,0.1499 -0.1484,0.0108 -0.2968,-0.02 -0.4286,-0.089 l -4.05,-2.125 c -0.1135,-0.0617 -0.2407,-0.094 -0.37,-0.094 -0.1292,0 -0.2564,0.0323 -0.37,0.094 l -4.0499,2.125 c -0.1318,0.069 -0.2803,0.0998 -0.4287,0.089 -0.1484,-0.0107 -0.2908,-0.0627 -0.4113,-0.1499 -0.1205,-0.0873 -0.2143,-0.2064 -0.2708,-0.344 -0.0566,-0.1377 -0.0736,-0.2883 -0.0492,-0.4351 l 0.775,-4.4999 c 0.0202,-0.1273 0.0098,-0.2576 -0.0302,-0.3802 -0.04,-0.1225 -0.1084,-0.2339 -0.1998,-0.3248 l -3.2749,-3.195 c -0.107,-0.1039 -0.1828,-0.2357 -0.2188,-0.3804 -0.036,-0.1448 -0.0309,-0.2967 0.0149,-0.4387 0.0458,-0.1419 0.1303,-0.2683 0.2441,-0.3647 0.1137,-0.0965 0.2522,-0.1592 0.3997,-0.1811 l 4.525,-0.655 c 0.129,-0.0185 0.2516,-0.0683 0.3571,-0.145 0.1054,-0.0766 0.1905,-0.1779 0.2479,-0.295 l 1.9999,-4.09995 c 0.0652,-0.13414 0.1669,-0.24724 0.2933,-0.32636 0.1264,-0.07912 0.2726,-0.12107 0.4217,-0.12107 0.1492,0 0.2953,0.04195 0.4217,0.12107 0.1265,0.07912 0.2281,0.19222 0.2933,0.32636 l 2,4.09995 c 0.058,0.1166 0.1433,0.2174 0.2486,0.294 0.1054,0.0766 0.2276,0.1267 0.3564,0.146 l 4.4999,0.655 c 0.1532,0.0107 0.3001,0.0651 0.4234,0.1566 0.1233,0.0915 0.2178,0.2163 0.2725,0.3598 0.0546,0.1435 0.0671,0.2996 0.036,0.45 -0.0312,0.1503 -0.1047,0.2886 -0.2119,0.3985 z"
       fill="#64D71E"
       id="path3"
       style="fill:#f2f2f2;fill-opacity:1" />
  </g>
  <defs
     id="defs3">
    <clipPath
       id="clip0_489_598">
      <rect
         width="48"
         height="48.001801"
         fill="#ffffff"
         id="rect3"
         x="0"
         y="0" />
    </clipPath>
  </defs>
</svg>
