<?xml version="1.0" encoding="UTF-8" standalone="no"?>
<svg
   width="39.998745"
   height="40.000999"
   viewBox="0 0 39.998745 40.000999"
   fill="none"
   version="1.1"
   id="svg2"
   sodipodi:docname="Cir_blade.svg"
   inkscape:version="1.4.3 (0d15f75042, 2025-12-25)"
   xmlns:inkscape="http://www.inkscape.org/namespaces/inkscape"
   xmlns:sodipodi="http://sodipodi.sourceforge.net/DTD/sodipodi-0.dtd"
   xmlns="http://www.w3.org/2000/svg"
   xmlns:svg="http://www.w3.org/2000/svg">
  <defs
     id="defs2">
    <linearGradient
       id="swatch65"
       inkscape:swatch="solid">
      <stop
         style="stop-color:#33433a;stop-opacity:1;"
         offset="0"
         id="stop65" />
    </linearGradient>
  </defs>
  <sodipodi:namedview
     id="namedview2"
     pagecolor="#505050"
     bordercolor="#eeeeee"
     borderopacity="1"
     inkscape:showpageshadow="0"
     inkscape:pageopacity="0"
     inkscape:pagecheckerboard="0"
     inkscape:deskcolor="#505050"
     showguides="true"
     inkscape:zoom="9.3019939"
     inkscape:cx="-6.9877492"
     inkscape:cy="24.134611"
     inkscape:window-width="1920"
     inkscape:window-height="1011"
     inkscape:window-x="0"
     inkscape:window-y="0"
     inkscape:window-maximized="1"
     inkscape:current-layer="svg2">
    <inkscape:page
       x="0"
       y="0"
       width="39.998745"
       height="40.000999"
       id="page2"
       margin="0"
       bleed="0" />
    <sodipodi:guide
       position="19.999372,20.000499"
       orientation="1,0"
       id="guide1"
       inkscape:locked="false" />
    <sodipodi:guide
       position="19.999372,20.0005"
       orientation="0,-1"
       id="guide2"
       inkscape:locked="false" />
  </sodipodi:namedview>
  <path
     d="m 22.014326,-0.49948992 -2.014956,0.24207151 -2.607455,2.37921691 -0.07378,0.4610886 a 17.623454,17.623454 0 0 0 -0.77232,0.1383266 L 16.1585,2.1379366 16.640337,-0.32427633 14.75679,0.43421437 12.852495,3.4059301 12.900905,3.8693243 A 17.623454,17.623454 0 0 0 12.190825,4.201308 L 11.665194,3.7402195 11.49459,1.238814 9.8692544,2.4583932 8.8018338,5.8197289 8.9678256,6.257763 A 17.623454,17.623454 0 0 0 8.3661048,6.7603494 L 7.7413306,6.4514202 6.9275091,4.0791195 5.673348,5.6744859 5.5119671,9.2041194 5.7863149,9.5799062 A 17.623454,17.623454 0 0 0 5.3367535,10.223125 L 4.6520371,10.087104 3.2526331,8.0052885 2.4549499,9.8726977 3.2111352,13.319335 3.5753951,13.614432 a 17.623454,17.623454 0 0 0 -0.2697368,0.737741 l -0.6985491,0.04151 -1.88815785,-1.646085 -0.28818031,2.008039 1.62303176,3.135404 0.426507,0.191351 a 17.623454,17.623454 0 0 0 -0.069164,0.781545 l -0.6616621,0.221323 -2.25011234,-1.099696 0.24207183,2.014957 2.37921701,2.607455 0.4587832,0.07378 A 17.623454,17.623454 0 0 0 2.71777,23.45408 l -0.5832767,0.387307 -2.45990761,-0.481836 0.75618526,1.883544 2.97402125,1.904298 0.4633942,-0.04843 a 17.623454,17.623454 0 0 0 0.3319837,0.710075 l -0.4633941,0.525641 -2.5014056,0.170603 1.2195794,1.625337 3.3636411,1.06742 0.4357288,-0.165991 a 17.623454,17.623454 0 0 0 0.5048919,0.601721 l -0.3089293,0.62708 -2.3723007,0.811517 1.5953663,1.254161 3.5273276,0.159074 0.3780923,-0.272042 a 17.623454,17.623454 0 0 0 0.6409142,0.449563 l -0.136022,0.684715 -2.0818146,1.399404 1.8674092,0.797682 3.4489424,-0.756184 0.292792,-0.361953 a 17.623454,17.623454 0 0 0 0.73774,0.267429 l 0.04151,0.69855 -1.643781,1.888159 2.008039,0.288178 3.135404,-1.62303 0.19135,-0.426506 a 17.623454,17.623454 0 0 0 0.781546,0.06915 l 0.221322,0.661662 -1.102001,2.250112 2.014957,-0.242072 2.609761,-2.379216 0.07378,-0.458784 a 17.623454,17.623454 0 0 0 0.772324,-0.138325 l 0.38501,0.583276 -0.479534,2.459908 1.883547,-0.756186 1.904296,-2.974021 -0.04843,-0.463393 A 17.623454,17.623454 0 0 0 27.8056,35.799693 l 0.527948,0.463394 0.168297,2.501405 1.625336,-1.21958 1.069725,-3.36364 -0.165991,-0.435729 a 17.623454,17.623454 0 0 0 0.599415,-0.502587 l 0.627081,0.308931 0.81382,2.369994 1.251856,-1.595366 0.16138,-3.527328 -0.27204,-0.378093 a 17.623454,17.623454 0 0 0 0.449559,-0.640914 l 0.684718,0.136023 1.399404,2.081814 0.797683,-1.867409 -0.758491,-3.448942 -0.361956,-0.292792 a 17.623454,17.623454 0 0 0 0.267432,-0.737741 l 0.698552,-0.0438 1.890461,1.646086 0.285875,-2.00804 -1.623032,-3.135403 -0.424198,-0.191339 a 17.623454,17.623454 0 0 0 0.06686,-0.781545 l 0.661663,-0.221322 2.252417,1.102 -0.24207,-2.014957 -2.379218,-2.607455 -0.461088,-0.07378 a 17.623454,17.623454 0 0 0 -0.136023,-0.774629 l 0.580972,-0.385009 2.462214,0.479532 -0.75849,-1.881241 -2.971716,-1.9066 -0.463394,0.04841 A 17.623454,17.623454 0 0 0 35.798577,12.19428 l 0.463392,-0.525642 2.4991,-0.170604 L 37.541487,9.8726948 34.180152,8.802969 33.744424,8.9689608 A 17.623454,17.623454 0 0 0 33.239529,8.3695481 L 33.548458,7.7424683 35.920757,6.928647 34.325392,5.6767915 30.795759,5.513105 30.419972,5.7874526 A 17.623454,17.623454 0 0 0 29.779058,5.3378913 L 29.91508,4.6554802 31.994589,3.2537709 30.12718,2.4560876 26.680544,3.2145785 26.387752,3.5765331 A 17.623454,17.623454 0 0 0 25.647705,3.3091016 L 25.603905,2.6105525 27.252296,0.72008927 25.244256,0.43421437 22.10885,2.0572461 21.917498,2.4814477 A 17.623454,17.623454 0 0 0 21.135954,2.4145891 L 20.91463,1.7529271 Z M 19.99937,16.383268 a 3.6178161,3.6178161 0 0 1 3.61724,3.617239 3.6178161,3.6178161 0 0 1 -3.61724,3.619546 3.6178161,3.6178161 0 0 1 -3.619544,-3.619546 3.6178161,3.6178161 0 0 1 3.619544,-3.617239 z"
     style="vector-effect:non-scaling-stroke;fill:#f2f2f2;stroke-width:1.18038;stroke-linecap:round;-inkscape-stroke:hairline"
     id="path66" />
</svg>
