<?xml version="1.0" encoding="UTF-8" standalone="no"?>
<svg
   width="39.559101"
   height="42.608398"
   viewBox="0 0 39.559101 42.608398"
   fill="none"
   version="1.1"
   id="svg1"
   sodipodi:docname="compprice.svg"
   xmlns:inkscape="http://www.inkscape.org/namespaces/inkscape"
   xmlns:sodipodi="http://sodipodi.sourceforge.net/DTD/sodipodi-0.dtd"
   xmlns="http://www.w3.org/2000/svg"
   xmlns:svg="http://www.w3.org/2000/svg">
  <defs
     id="defs1" />
  <sodipodi:namedview
     id="namedview1"
     pagecolor="#505050"
     bordercolor="#eeeeee"
     borderopacity="1"
     inkscape:showpageshadow="0"
     inkscape:pageopacity="0"
     inkscape:pagecheckerboard="0"
     inkscape:deskcolor="#505050">
    <inkscape:page
       x="0"
       y="0"
       width="39.559101"
       height="42.608398"
       id="page2"
       margin="0"
       bleed="0" />
  </sodipodi:namedview>
  <path
     d="m 28.5282,8.2072 -3.2712,3.1799 0.7759,4.5645 c 0.0544,0.2853 0.0259,0.5801 -0.0819,0.8497 -0.1079,0.2696 -0.2906,0.5027 -0.5267,0.6718 -0.261,0.189 -0.5754,0.2903 -0.8977,0.2891 -0.2451,8e-4 -0.4863,-0.0621 -0.6998,-0.1826 l -4.0472,-2.2062 -4.0472,2.1149 c -0.2499,0.1325 -0.5318,0.1927 -0.814,0.1739 C 14.6362,17.6434 14.3649,17.5463 14.1348,17.3818 13.8987,17.2127 13.716,16.9796 13.6081,16.71 13.5003,16.4404 13.4719,16.1456 13.5262,15.8603 l 0.7759,-4.5645 -3.2712,-3.0886 c -0.1956,-0.1952 -0.3343,-0.44 -0.4013,-0.708 -0.067,-0.2681 -0.0598,-0.5493 0.0209,-0.81354 0.0871,-0.26835 0.247,-0.50721 0.4619,-0.68991 0.215,-0.18271 0.4765,-0.30206 0.7553,-0.34472 l 4.5645,-0.65424 1.978,-4.13849003 c 0.1246,-0.25725 0.3191,-0.47419 0.5613,-0.62599 0.2422,-0.1518 0.5222,-0.232310000803785 0.8081,-0.232310000803785 0.2858,0 0.5658,0.08051000080378 0.808,0.232310000803785 0.2422,0.1518 0.4367,0.36874 0.5613,0.62599 L 23.1573,4.95114 27.7218,5.60539 c 0.2789,0.04266 0.5404,0.16201 0.7553,0.34471 0.215,0.1827 0.3749,0.42157 0.4619,0.68991 0.0861,0.27339 0.0932,0.56559 0.0205,0.84279 -0.0726,0.2773 -0.2222,0.5284 -0.4313,0.7244 z M 24.3441,21.3073 H 15.215 c -0.4035,0 -0.7905,0.1603 -1.0758,0.4456 -0.2854,0.2854 -0.4457,0.6724 -0.4457,1.0759 V 42.6084 H 25.8656 V 22.8288 c 0,-0.4035 -0.1603,-0.7905 -0.4457,-1.0759 -0.2853,-0.2853 -0.6723,-0.4456 -1.0758,-0.4456 z M 2.0168542e-7,28.9148 v 12.1721 c 0,0.4035 0.16029999831458,0.7905 0.44563999831458,1.0758 0.28534,0.2854 0.67234,0.4457 1.07587,0.4457 H 10.6505 V 27.3933 H 1.5215102 c -0.40353,0 -0.79053,0.1603 -1.07587,0.4457 C 0.1603002,28.1243 2.0168542e-7,28.5113 2.0168542e-7,28.9148 Z M 38.0376,30.4363 h -9.129 v 12.1721 h 9.129 c 0.4035,0 0.7905,-0.1603 1.0759,-0.4457 0.2853,-0.2853 0.4456,-0.6723 0.4456,-1.0758 v -9.1291 c 0,-0.4035 -0.1603,-0.7905 -0.4456,-1.0758 -0.2854,-0.2854 -0.6724,-0.4457 -1.0759,-0.4457 z"
     fill="#64D71E"
     id="path1"
     style="fill:#f2f2f2;fill-opacity:1" />
</svg>
