<?xml version="1.0" encoding="UTF-8" standalone="no"?>
<svg
   width="48"
   height="47"
   viewBox="0 0 48 47"
   fill="none"
   version="1.1"
   id="svg2"
   sodipodi:docname="manufacturing.svg"
   xmlns:inkscape="http://www.inkscape.org/namespaces/inkscape"
   xmlns:sodipodi="http://sodipodi.sourceforge.net/DTD/sodipodi-0.dtd"
   xmlns="http://www.w3.org/2000/svg"
   xmlns:svg="http://www.w3.org/2000/svg">
  <sodipodi:namedview
     id="namedview2"
     pagecolor="#505050"
     bordercolor="#eeeeee"
     borderopacity="1"
     inkscape:showpageshadow="0"
     inkscape:pageopacity="0"
     inkscape:pagecheckerboard="0"
     inkscape:deskcolor="#505050">
    <inkscape:page
       x="0"
       y="0"
       width="48"
       height="47"
       id="page2"
       margin="0"
       bleed="0" />
  </sodipodi:namedview>
  <g
     clip-path="url(#clip0_489_602)"
     id="g2"
     style="fill:#f2f2f2;fill-opacity:1">
    <path
       d="m 18.1836,29.2958 -2.4364,8.8544 V 38.1456 L 13.3123,47 6.65376,40.5199 0,34.0399 9.0918,31.6678 Z"
       fill="#64D71E"
       id="path1"
       style="fill:#f2f2f2;fill-opacity:1" />
    <path
       d="m 27.2538,34.6196 c -2.7581,0.5237 -5.6177,0.0696 -8.0621,-1.2803 l -1.4659,5.3259 -0.264,0.9592 c 0.4376,0.1916 0.8925,0.3697 1.3646,0.5344 0.6785,0.2376 1.3709,0.4357 2.0736,0.5934 0.2094,0.0403 0.4007,0.1434 0.5472,0.2947 0.1464,0.1514 0.2406,0.3435 0.2694,0.5496 l 0.7266,5.1386 h 5.1105 l 0.7258,-5.134 c 0.0268,-0.2025 0.117,-0.3921 0.2582,-0.543 0.1413,-0.1509 0.3268,-0.2558 0.5313,-0.3005 1.9932,-0.4434 3.8961,-1.2087 5.6298,-2.2641 0.1775,-0.122 0.3902,-0.1861 0.6075,-0.1828 0.2172,0.0032 0.4279,0.0735 0.6015,0.2007 l 4.2508,3.1379 1.8104,-1.7585 1.8008,-1.7592 -3.222,-4.1406 c -0.1249,-0.1614 -0.1964,-0.3559 -0.2051,-0.5577 -0.0087,-0.2019 0.0459,-0.4015 0.1565,-0.5724 0.5492,-0.8502 1.0238,-1.744 1.4188,-2.6719 0.3907,-0.9163 0.7013,-1.8631 0.9283,-2.8303 0.0406,-0.2059 0.1469,-0.394 0.3037,-0.5376 0.1568,-0.1437 0.3561,-0.2355 0.5696,-0.2624 L 49,25.8503 v -2.4854 h -0.004 v -2.4855 l -5.2708,-0.7068 c -0.208,-0.0262 -0.4027,-0.114 -0.5578,-0.2515 -0.1551,-0.1376 -0.263,-0.3182 -0.3091,-0.5174 -0.2276,-0.9767 -0.5403,-1.9327 -0.9348,-2.8575 -0.3875,-0.9114 -0.8522,-1.7898 -1.3892,-2.6261 -0.1255,-0.1727 -0.1914,-0.3797 -0.1881,-0.5913 0.0033,-0.2115 0.0756,-0.4165 0.2064,-0.5854 L 43.7746,8.60357 41.969,6.84433 40.1578,5.08509 35.907,8.22298 C 35.7412,8.34455 35.5414,8.41418 35.334,8.42265 35.1266,8.43111 34.9215,8.378 34.7458,8.27036 33.0074,7.20481 31.0972,6.4318 29.0953,5.98374 28.886,5.94307 28.695,5.83978 28.5489,5.68829 28.4028,5.5368 28.3089,5.34466 28.2803,5.13868 L 27.5529,0 H 22.4432 L 21.7166,5.13402 C 21.6897,5.33659 21.5996,5.52622 21.4584,5.67723 21.3171,5.82824 21.1317,5.93334 20.9271,5.9783 19.9245,6.1999 18.9432,6.50444 17.9938,6.8886 17.058,7.26601 16.1561,7.71858 15.2973,8.24162 15.12,8.36383 14.9074,8.42797 14.6902,8.42476 14.473,8.42155 14.2625,8.35115 14.0891,8.22376 L 9.83748,5.08587 8.03109,6.84433 6.22868,8.60512 l 3.222,4.14058 c 0.12517,0.1614 0.19694,0.356 0.20577,0.558 0.00883,0.202 -0.04569,0.4018 -0.15632,0.5729 -1.09467,1.6922 -1.88844,3.5521 -2.34792,5.5014 -0.04123,0.2042 -0.14709,0.3908 -0.30271,0.5334 -0.15562,0.1426 -0.35319,0.2342 -0.565,0.262 l -5.28041,0.7083 v 2.4855 2.4854 l 5.27084,0.7068 c 0.20807,0.0264 0.4028,0.1144 0.55785,0.252 0.15505,0.1377 0.26294,0.3184 0.30907,0.5178 0.126,0.5413 0.28471,1.0912 0.47293,1.645 0.1058,0.3123 0.22012,0.6198 0.34294,0.9227 l 0.60612,-0.1553 5.77566,-1.5068 c -1.1937,-2.4775 -1.4384,-5.2891 -0.6899,-7.927 0.7485,-2.6378 2.4409,-4.9281 4.7715,-6.457 2.3306,-1.529 5.1459,-2.196 7.9372,-1.8804 2.7914,0.3156 5.3748,1.5929 7.2838,3.6011 1.909,2.0083 3.0177,4.6152 3.1258,7.3499 0.1082,2.7348 -0.7914,5.417 -2.5362,7.5623 -1.7447,2.1453 -4.2197,3.6123 -6.9779,4.1359 z"
       fill="#64D71E"
       id="path2"
       style="fill:#f2f2f2;fill-opacity:1" />
  </g>
  <defs
     id="defs2">
    <clipPath
       id="clip0_489_602">
      <rect
         width="48"
         height="48.001801"
         fill="#ffffff"
         id="rect2"
         x="0"
         y="0" />
    </clipPath>
  </defs>
</svg>
