<?xml version="1.0" encoding="UTF-8" standalone="no"?>
<svg
   width="39.998745"
   height="40.000999"
   viewBox="0 0 39.998745 40.000999"
   fill="none"
   version="1.1"
   id="svg2"
   sodipodi:docname="selection.svg"
   xmlns:inkscape="http://www.inkscape.org/namespaces/inkscape"
   xmlns:sodipodi="http://sodipodi.sourceforge.net/DTD/sodipodi-0.dtd"
   xmlns="http://www.w3.org/2000/svg"
   xmlns:svg="http://www.w3.org/2000/svg">
  <defs
     id="defs2" />
  <sodipodi:namedview
     id="namedview2"
     pagecolor="#505050"
     bordercolor="#eeeeee"
     borderopacity="1"
     inkscape:showpageshadow="0"
     inkscape:pageopacity="0"
     inkscape:pagecheckerboard="0"
     inkscape:deskcolor="#505050">
    <inkscape:page
       x="0"
       y="0"
       width="39.998745"
       height="40.000999"
       id="page2"
       margin="0"
       bleed="0" />
  </sodipodi:namedview>
  <g
     id="g2"
     style="fill:#f2f2f2;fill-opacity:1"
     transform="translate(-4,-3.9999993)">
    <path
       d="m 39.7022,25.6933 c 0.2442,0 0.4777,0.1 0.6463,0.2766 0.1686,0.1767 0.2575,0.4146 0.2461,0.6585 C 40.1067,36.3047 32.1062,44.001 22.3085,44.001 12.1971,44.001 4,35.8042 4,25.6933 4,15.8961 11.6965,7.89598 21.3735,7.40918 c 0.2436,-0.01139 0.4812,0.07744 0.6576,0.24579 0.1764,0.16837 0.2762,0.4016 0.2762,0.64546 0.0012,3.13167 0.0012,13.40057 0.0012,16.49957 0,0.4934 0.4,0.8933 0.8934,0.8934 z"
       fill="#64D71E"
       id="path1"
       style="fill:#f2f2f2;fill-opacity:1" />
    <path
       d="m 43.9978,21.6332 c 0.0112,0.2435 -0.0777,0.4809 -0.2461,0.6571 -0.1683,0.1763 -0.4015,0.276 -0.6452,0.276 -3.1673,0.0011 -13.6468,0.0011 -16.7815,0.0011 -0.4934,0 -0.8934,-0.3999 -0.8934,-0.8933 V 4.89335 c 0,-0.24403 0.0999,-0.47745 0.2763,-0.646 0.1765,-0.16856 0.4143,-0.2576 0.6581,-0.24641 9.5228,0.4725 17.1604,8.10986 17.6318,17.63226 z"
       fill="#64D71E"
       id="path2"
       style="fill:#f2f2f2;fill-opacity:1" />
  </g>
</svg>
