<?xml version="1.0" encoding="UTF-8" standalone="no"?>
<!-- Created with Inkscape (http://www.inkscape.org/) -->

<svg
   width="250.00002"
   height="121"
   viewBox="0 0 66.145835 32.014584"
   version="1.1"
   id="svg1"
   xml:space="preserve"
   inkscape:export-filename="mehru.svg"
   inkscape:export-xdpi="96"
   inkscape:export-ydpi="96"
   inkscape:version="1.4.3 (0d15f75042, 2025-12-25)"
   sodipodi:docname="Client_logo.svg"
   xmlns:inkscape="http://www.inkscape.org/namespaces/inkscape"
   xmlns:sodipodi="http://sodipodi.sourceforge.net/DTD/sodipodi-0.dtd"
   xmlns="http://www.w3.org/2000/svg"
   xmlns:svg="http://www.w3.org/2000/svg"><sodipodi:namedview
     id="namedview1"
     pagecolor="#505050"
     bordercolor="#eeeeee"
     borderopacity="1"
     inkscape:showpageshadow="0"
     inkscape:pageopacity="0"
     inkscape:pagecheckerboard="0"
     inkscape:deskcolor="#505050"
     inkscape:document-units="px"
     showguides="true"
     inkscape:zoom="2.4562253"
     inkscape:cx="101.98576"
     inkscape:cy="95.878826"
     inkscape:window-width="1920"
     inkscape:window-height="1011"
     inkscape:window-x="0"
     inkscape:window-y="0"
     inkscape:window-maximized="1"
     inkscape:current-layer="layer1"><sodipodi:guide
       position="0.59762014,11.133736"
       orientation="1,0"
       id="guide1"
       inkscape:locked="false" /><sodipodi:guide
       position="1.5356788,0.71124038"
       orientation="0,-1"
       id="guide2"
       inkscape:locked="false" /><sodipodi:guide
       position="65.678453,0.71124038"
       orientation="1,0"
       id="guide3"
       inkscape:locked="false" /><sodipodi:guide
       position="0.59762013,31.345249"
       orientation="0,-1"
       id="guide4"
       inkscape:locked="false" /><inkscape:page
       x="0"
       y="0"
       width="66.145836"
       height="32.014584"
       id="page2"
       margin="0"
       bleed="0" /></sodipodi:namedview><defs
     id="defs1" /><g
     inkscape:label="Layer 1"
     inkscape:groupmode="layer"
     id="layer1"><path
       d="M 25.699897,0.75439535 V 9.5193391 H 16.089693 V 31.260188 h 22.200231 v -8.305562 h 11.76622 V 0.75439535 Z m 0.98078,0.98076515 h 11.359659 v 0.5527944 h 9.75796 L 38.289924,12.810786 V 9.5193391 H 26.680677 Z M 49.075364,2.5406097 V 13.192072 h -9.598705 z m -17.41656,6.9810259 c 0.775817,0 1.447687,0.1460843 2.015904,0.4379419 0.02919,0.014816 0.05867,0.029335 0.08727,0.044448 0.258716,0.136602 0.488925,0.301606 0.690598,0.496124 0.208459,0.201067 0.386131,0.432978 0.533638,0.695959 0.316896,0.545492 0.47547,1.186722 0.47547,1.922507 0,0.431305 -0.05452,0.856134 -0.163849,1.27477 -0.09838,0.418621 -0.284212,0.862815 -0.557387,1.332196 -0.262241,0.456684 -0.650179,0.97681 -1.163757,1.560347 L 29.66815,21.73808 h 6.317986 v 0.238876 0.497665 0.480048 h 1.326063 v 7.324012 h -9.707423 c 0.199095,-0.175909 0.410651,-0.387464 0.634711,-0.634697 V 28.91586 c -0.451913,0.351491 -0.869913,0.527519 -1.254874,0.527519 -0.334749,0 -0.56118,-0.117046 -0.678344,-0.351418 -0.117193,-0.251054 -0.175331,-0.694641 -0.175331,-1.330671 v -4.80662 h 1.807654 v -0.480048 -0.48925 l 0.0074,-0.0089 4.761444,-5.414546 c 0.437083,-0.494746 0.765299,-0.92602 0.983847,-1.293913 0.218536,-0.380575 0.366042,-0.735933 0.442537,-1.065762 0.07645,-0.329831 0.114823,-0.640756 0.114823,-0.932525 0,-0.773847 -0.230135,-1.382038 -0.689073,-1.82604 -0.448002,-0.444001 -1.113974,-0.666091 -1.999059,-0.666091 -0.677468,0 -1.278562,0.120305 -1.803059,0.361373 -0.513577,0.241025 -0.956082,0.614977 -1.327604,1.12242 l -0.836055,-0.836833 c 0.261752,-0.355773 0.566588,-0.664373 0.914153,-0.92488 0.247292,-0.185347 0.516259,-0.345995 0.806976,-0.483116 0.0089,-0.0044 0.01837,-0.0089 0.02756,-0.01333 0.692271,-0.3212075 1.464162,-0.4823447 2.316043,-0.4823447 z M 17.070473,10.500104 h 8.629424 v 8.898168 C 25.662267,19.321232 25.621967,19.24638 25.578999,19.1747 25.260992,18.655834 24.80035,18.25413 24.197804,17.969592 23.612,17.668326 22.883801,17.517871 22.013458,17.517871 c -0.753179,0 -1.455791,0.0923 -2.108548,0.276405 -0.636015,0.184102 -1.147074,0.443127 -1.532019,0.777878 -0.368234,0.301266 -0.660595,0.644816 -0.878181,1.029776 -0.200858,0.384961 -0.301665,0.761076 -0.301665,1.129295 0,0.334749 0.117045,0.627881 0.351432,0.878951 0.251055,0.234327 0.544186,0.351417 0.878936,0.351417 0.334749,0 0.627881,-0.117045 0.878951,-0.351417 0.267796,-0.234328 0.401183,-0.518926 0.401183,-0.853675 0,-0.150648 -0.02489,-0.342973 -0.07497,-0.577285 -0.03348,-0.234328 -0.05052,-0.426653 -0.05052,-0.577286 0,-0.38496 0.193095,-0.711442 0.578056,-0.979254 0.401702,-0.284525 0.894922,-0.427216 1.480726,-0.427216 0.702968,0 1.238843,0.200858 1.607061,0.602547 0.384961,0.401703 0.577285,0.9965 0.577285,1.783163 v 1.832144 c -1.10467,0.451913 -1.991829,0.811746 -2.661328,1.079542 -0.669499,0.267812 -1.213122,0.51054 -1.631566,0.728125 -0.41843,0.200844 -0.761965,0.401703 -1.029777,0.602547 -0.251054,0.184101 -0.527133,0.410547 -0.828399,0.678344 -0.237957,0.202266 -0.43766,0.451202 -0.599494,0.746497 z m 21.219451,3.654361 h 10.78544 v 7.822447 h -10.78544 z m -14.468887,8.962468 v 4.14207 c 0,0.435171 -0.05037,0.753119 -0.150825,0.953963 -0.08371,0.200859 -0.292302,0.393183 -0.627052,0.577285 -0.334749,0.184117 -0.694582,0.343091 -1.079542,0.476997 -0.368219,0.117193 -0.703235,0.176086 -1.004501,0.176086 -0.251069,0 -0.493798,-0.05897 -0.728125,-0.176086 -0.234313,-0.117194 -0.443705,-0.276138 -0.627807,-0.476997 -0.167375,-0.200844 -0.300777,-0.435038 -0.401199,-0.702834 -0.100451,-0.284539 -0.150825,-0.576915 -0.150825,-0.878181 v -0.125638 c 0,-0.418444 0.08371,-0.803849 0.251128,-1.155341 0.167375,-0.351491 0.43492,-0.677973 0.803138,-0.979239 0.384961,-0.318008 0.878951,-0.618918 1.481497,-0.903441 0.619288,-0.301281 1.36377,-0.61071 2.234113,-0.928718 z m 0.05052,5.798883 c 0.05008,0.576099 0.155952,1.030383 0.318497,1.362821 h -2.127689 c 0.539134,-0.33143 1.142332,-0.785729 1.809194,-1.362821 z m -6.801101,0.763342 c 0.111267,0.185465 0.244314,0.358307 0.398888,0.517563 0.02815,0.02815 0.05674,0.05512 0.08578,0.08193 h -0.484641 z"
       style="font-weight:300;font-size:53.3333px;line-height:1;font-family:Raleway;-inkscape-font-specification:'Raleway Light';white-space:pre;fill:#0000ce;fill-opacity:1;stroke-width:3.70396"
       id="path21" /></g></svg>
