<?xml version="1.0" encoding="UTF-8" standalone="no"?>
<!-- Created with Inkscape (http://www.inkscape.org/) -->

<svg
   width="250.00002"
   height="121"
   viewBox="0 0 66.145835 32.014584"
   version="1.1"
   id="svg1"
   xml:space="preserve"
   inkscape:export-filename="capstone.svg"
   inkscape:export-xdpi="96"
   inkscape:export-ydpi="96"
   xmlns:inkscape="http://www.inkscape.org/namespaces/inkscape"
   xmlns:sodipodi="http://sodipodi.sourceforge.net/DTD/sodipodi-0.dtd"
   xmlns="http://www.w3.org/2000/svg"
   xmlns:svg="http://www.w3.org/2000/svg"><sodipodi:namedview
     id="namedview1"
     pagecolor="#505050"
     bordercolor="#eeeeee"
     borderopacity="1"
     inkscape:showpageshadow="0"
     inkscape:pageopacity="0"
     inkscape:pagecheckerboard="0"
     inkscape:deskcolor="#505050"
     inkscape:document-units="px"
     showguides="true"><sodipodi:guide
       position="0.59762014,11.133736"
       orientation="1,0"
       id="guide1"
       inkscape:locked="false" /><sodipodi:guide
       position="1.5356788,0.71124038"
       orientation="0,-1"
       id="guide2"
       inkscape:locked="false" /><sodipodi:guide
       position="65.678453,0.71124038"
       orientation="1,0"
       id="guide3"
       inkscape:locked="false" /><sodipodi:guide
       position="1.5356788,31.345249"
       orientation="0,-1"
       id="guide4"
       inkscape:locked="false" /><inkscape:page
       x="0"
       y="0"
       width="66.145836"
       height="32.014584"
       id="page2"
       margin="0"
       bleed="0" /></sodipodi:namedview><defs
     id="defs1" /><g
     inkscape:label="Layer 1"
     inkscape:groupmode="layer"
     id="layer1"><g
       id="g1"
       transform="matrix(0.31897806,0,0,0.31897806,-17.812234,-11.798793)"><path
         d="m 147.56461,46.489147 5.62808,9.87278 -3.00396,1.71256 -5.55263,-9.73997 a 25.625475,25.625473 0 0 0 -5.43946,5.37693 l 10.87841,19.08204 -3.00395,1.71255 -9.96994,-17.48885 a 25.625475,25.625473 0 0 0 -2.99723,12.02614 25.625475,25.625473 0 0 0 0.004,0.42995 l 5.5485,-3.03496 1.65933,3.03392 -6.86728,3.75636 a 25.625475,25.625473 0 0 0 3.38842,9.13278 l 17.65784,-10.07432 1.71359,3.00343 -17.36897,9.90948 a 25.625475,25.625473 0 0 0 18.942,9.45162 l -7.36699,-12.92273 3.00395,-1.71256 8.25634,14.48284 a 25.625475,25.625473 0 0 0 7.51324,-2.06189 l -15.94165,-27.55387 2.80086,-1.58492 15.99334,27.64224 a 25.625475,25.625473 0 0 0 12.31502,-21.89737 25.625475,25.625473 0 0 0 -1.59164,-8.89042 l -19.68924,11.23394 -1.71359,-3.00343 19.97915,-11.3993 a 25.625475,25.625473 0 0 0 -6.3004,-7.70547 l -27.46395,15.7148 -1.572,-2.8081 26.15603,-14.96653 a 25.625475,25.625473 0 0 0 -13.43019,-3.8008 25.625475,25.625473 0 0 0 -12.16463,3.07113 z"
         style="opacity:1;fill:#4d677c;fill-opacity:1;stroke:none;stroke-width:0.871969"
         id="path23" /><path
         style="fill:#000000"
         d="m 88.87106,120.7039 4.59655,-10.39376 1.24895,-2.83712 1.24894,-2.83713 0.18208,0.19129 0.18208,0.19129 1.57599,3.57188 1.576,3.57187 2.97924,6.61459 2.97923,6.61458 1.15242,2.61034 1.15242,2.61034 -0.14457,0.23393 -0.14458,0.23393 h -2.31061 -2.31061 l -0.89138,-2.38693 -0.89139,-2.38693 -4.91003,0.0718 -4.91002,0.0718 -0.82508,2.24896 -0.82507,2.24895 -2.65355,0.075 -2.65356,0.075 z m 10.1503,1.41564 9.8e-4,-0.16773 -1.35257,-3.37344 -1.35257,-3.37344 h -0.20896 -0.20896 l -1.44252,3.37344 -1.44251,3.37344 0.11579,0.21061 0.11578,0.21062 2.88728,-0.0429 2.88727,-0.0429 z m 15.08026,-4.42343 v -13.38385 l 5.75469,0.10047 5.75469,0.10047 1.56894,0.62017 1.56894,0.62017 1.507,1.48454 1.50699,1.48454 0.61175,1.5875 0.61174,1.5875 v 2.51354 2.51354 l -0.61952,1.5793 -0.61951,1.5793 -1.41026,1.41025 -1.41025,1.41026 -1.26104,0.58194 -1.26103,0.58194 -3.96875,0.13267 -3.96875,0.13267 v 3.37371 3.37371 l -2.18281,-2.7e-4 -2.18282,-2.7e-4 z m 12.35653,1.69377 1.07218,-0.70983 0.69398,-1.39264 0.69398,-1.39263 v -1.23148 -1.23149 l -0.30112,-0.89938 -0.30113,-0.89937 -0.65556,-0.88243 -0.65557,-0.88242 -0.82925,-0.50565 -0.82924,-0.50565 -3.50573,-9.9e-4 -3.50573,-9.9e-4 v 5.51215 5.51216 l 0.19843,0.20031 0.19844,0.20032 3.32707,-0.0901 3.32707,-0.0901 z m 17.36258,11.30918 -1.10486,-0.34546 -0.87952,-0.54682 -0.87952,-0.54682 -1.08376,-1.14054 -1.08376,-1.14053 -0.60007,-1.00611 -0.60006,-1.0061 0.0963,-0.0808 0.0963,-0.0808 2.1059,-0.69943 2.10591,-0.69943 0.21453,0.38335 0.21454,0.38336 0.6894,0.81931 0.68941,0.81931 1.07594,0.54891 1.07595,0.5489 1.24982,0.0189 1.24982,0.0189 1.01439,-0.46377 1.01439,-0.46377 0.50573,-0.685 0.50572,-0.68499 0.11317,-1.21653 0.11316,-1.21653 -0.62671,-0.92202 -0.62672,-0.92201 -1.03611,-0.58119 -1.03612,-0.5812 -1.73418,-0.28927 -1.73419,-0.28928 -1.50371,-0.54828 -1.5037,-0.54828 -1.11192,-0.95176 -1.11192,-0.95177 -0.48742,-1.07309 -0.48742,-1.0731 -0.003,-1.85209 -0.003,-1.85208 0.62073,-1.333 0.62073,-1.333 1.26741,-1.11562 1.26742,-1.11562 1.33229,-0.39565 1.3323,-0.39565 2.0025,0.003 2.00249,0.003 1.34022,0.62407 1.34022,0.62407 0.99041,0.8696 0.99041,0.86959 0.80095,1.16413 0.80095,1.16414 -0.12274,0.31985 -0.12274,0.31985 -1.90526,0.61363 -1.90526,0.61363 -0.36756,-0.48501 -0.36756,-0.48501 -0.008,-0.20427 -0.008,-0.20426 -1.24242,-0.78792 -1.24243,-0.78793 h -1.15196 -1.15197 l -0.75725,0.39159 -0.75724,0.39159 -0.55253,0.70243 -0.55253,0.70242 v 0.96378 0.96378 l 0.41294,0.58955 0.41293,0.58955 0.79445,0.41083 0.79445,0.41082 2.2651,0.36667 2.26509,0.36668 1.32743,0.47733 1.32743,0.47734 1.13319,0.99747 1.13318,0.99747 0.48305,1.25191 0.48305,1.25192 -0.002,1.98437 -0.002,1.98438 -0.70764,1.5135 -0.70764,1.51351 -1.21653,1.18233 -1.21654,1.18234 -1.45745,0.5453 -1.45745,0.54531 -2.17289,-0.0177 -2.17289,-0.0177 z m 25.04964,-10.72476 v -11.10561 l -4.03489,-0.073 -4.0349,-0.073 v -2.11666 -2.11667 l 10.2526,-0.0692 10.25261,-0.0692 v 2.25207 2.25206 h -4.10104 -4.10105 v 11.1125 11.1125 h -2.11666 -2.11667 z m 27.64896,10.93468 -0.79375,-0.11891 -1.45521,-0.40772 -1.45521,-0.40772 -1.53955,-0.81684 -1.53956,-0.81685 -1.37086,-1.35386 -1.37086,-1.35386 -0.75855,-1.4042 -0.75854,-1.40421 -0.3628,-1.36256 -0.36279,-1.36255 -0.003,-2.39181 -0.003,-2.39181 0.39975,-1.53472 0.39974,-1.53473 0.71472,-1.23284 0.71472,-1.23284 1.34346,-1.32292 1.34347,-1.32291 1.57696,-0.83762 1.57697,-0.83762 1.71979,-0.44897 1.71979,-0.44897 2.38125,0.13955 2.38125,0.13954 1.76708,0.64434 1.76708,0.64433 1.34841,0.86528 1.34842,0.86528 0.92681,1.08277 0.92682,1.08278 0.62373,1.33278 0.62373,1.33278 0.2949,1.40208 0.2949,1.40209 v 2.18034 2.18035 l -0.40935,1.57694 -0.40934,1.57695 -0.61602,1.32291 -0.61602,1.32292 -0.95576,1.09659 -0.95576,1.09659 -1.40659,0.93365 -1.40659,0.93364 -1.57322,0.52837 -1.57323,0.52837 -1.85208,0.12737 -1.85208,0.12737 z m 4.68168,-4.73219 1.24209,-0.42829 1.20948,-1.06463 1.20949,-1.06463 0.66548,-1.13557 0.66549,-1.13557 0.40503,-1.94252 0.40502,-1.94252 -0.18067,-1.32751 -0.18067,-1.32752 -0.54431,-1.16282 -0.54431,-1.16282 -0.92158,-0.92158 -0.92159,-0.92159 -1.74323,-0.82312 -1.74324,-0.82312 -2.24895,0.009 -2.24896,0.009 -1.39183,0.61691 -1.39183,0.61691 -1.42122,1.53508 -1.42121,1.53509 -0.4281,1.2564 -0.4281,1.2564 v 2.0224 2.0224 l 0.42122,1.23623 0.42122,1.23622 1.1778,1.30999 1.17779,1.30999 0.96759,0.598 0.96759,0.59801 1.20371,0.34103 1.2037,0.34104 1.5875,-0.11928 1.5875,-0.11928 z m 17.67957,-8.38107 0.004,-13.30644 7.39101,7.54063 7.391,7.54062 0.0134,-7.6179 0.0134,-7.6179 2.05053,0.0773 2.05052,0.0773 0.0686,13.03073 0.0686,13.03073 h -0.28482 -0.28483 l -7.05985,-7.03371 -7.05986,-7.03371 -0.13229,7.23215 -0.13229,7.23214 -2.05052,0.0773 -2.05052,0.0773 z m 28.21826,13.1078 -0.17639,-0.17639 v -13.18507 -13.18507 h 7.40833 7.40834 v 0.1568 0.1568 l -0.69577,1.95987 -0.69577,1.95986 h -4.46361 -4.4636 v 3.57188 3.57187 h 3.70416 3.70417 v 2.24896 2.24896 h -3.70417 -3.70416 v 3.30729 3.30729 l 4.82864,0.004 4.82865,0.004 0.33331,0.2116 0.33332,0.2116 -0.50459,1.438 -0.50458,1.43799 -0.18777,0.46302 -0.18777,0.46302 h -6.54217 -6.54218 z m -180.75796,-0.56412 -1.32637,-0.45865 -1.19088,-0.6979 -1.19088,-0.6979 -1.35846,-1.43637 -1.35846,-1.43638 -0.65885,-1.30104 -0.65884,-1.30104 -0.43351,-1.45521 -0.43352,-1.45521 -0.008,-2.41025 -0.008,-2.41025 0.567,-1.69079 0.567,-1.69079 0.55918,-0.92605 0.55918,-0.92604 0.80737,-1.02718 0.80738,-1.02719 1.83994,-1.29671 1.83995,-1.2967 1.82536,-0.55444 1.82537,-0.55444 2.55239,0.13129 2.5524,0.13128 1.71979,0.70462 1.71979,0.70463 1.25678,0.92051 1.25677,0.92052 v 0.33719 0.3372 l -1.43221,1.41442 -1.43221,1.41442 -0.80346,-0.57212 -0.80346,-0.57211 -1.50378,-0.68845 -1.50377,-0.68846 -1.75066,-0.0264 -1.75066,-0.0264 -1.48696,0.69303 -1.48696,0.69303 -1.04297,0.94226 -1.04296,0.94225 -0.68453,1.27094 -0.68453,1.27094 -0.30272,1.48614 -0.30273,1.48615 0.26577,1.65026 0.26577,1.65026 0.58518,1.20883 0.58518,1.20882 1.0016,1.0016 1.00161,1.00161 1.08741,0.55475 1.0874,0.55476 1.24932,0.14796 1.24932,0.14796 1.57686,-0.31857 1.57685,-0.31858 1.95424,-0.92959 1.95424,-0.92959 1.48534,1.49756 1.48535,1.49756 -0.79375,0.6552 -0.79375,0.65519 -1.60681,0.77609 -1.60681,0.77608 -1.55763,0.40571 -1.55763,0.40572 -2.39181,-0.009 -2.39181,-0.009 z"
         id="path24" /></g></g></svg>
