<?xml version="1.0" encoding="UTF-8" standalone="no"?>
<!-- Created with Inkscape (http://www.inkscape.org/) -->

<svg
   width="250.00002"
   height="121"
   viewBox="0 0 66.145835 32.014584"
   version="1.1"
   id="svg1"
   xml:space="preserve"
   inkscape:export-filename="uni.svg"
   inkscape:export-xdpi="96"
   inkscape:export-ydpi="96"
   inkscape:version="1.4.3 (0d15f75042, 2025-12-25)"
   sodipodi:docname="Client_logo.svg"
   xmlns:inkscape="http://www.inkscape.org/namespaces/inkscape"
   xmlns:sodipodi="http://sodipodi.sourceforge.net/DTD/sodipodi-0.dtd"
   xmlns="http://www.w3.org/2000/svg"
   xmlns:svg="http://www.w3.org/2000/svg"><sodipodi:namedview
     id="namedview1"
     pagecolor="#505050"
     bordercolor="#eeeeee"
     borderopacity="1"
     inkscape:showpageshadow="0"
     inkscape:pageopacity="0"
     inkscape:pagecheckerboard="0"
     inkscape:deskcolor="#505050"
     inkscape:document-units="px"
     showguides="true"
     inkscape:zoom="0.91346716"
     inkscape:cx="38.862919"
     inkscape:cy="-49.81022"
     inkscape:window-width="1920"
     inkscape:window-height="1011"
     inkscape:window-x="0"
     inkscape:window-y="0"
     inkscape:window-maximized="1"
     inkscape:current-layer="layer1"><sodipodi:guide
       position="0.59762014,11.133736"
       orientation="1,0"
       id="guide1"
       inkscape:locked="false" /><sodipodi:guide
       position="1.5356788,0.71124038"
       orientation="0,-1"
       id="guide2"
       inkscape:locked="false" /><sodipodi:guide
       position="65.678453,0.71124038"
       orientation="1,0"
       id="guide3"
       inkscape:locked="false" /><sodipodi:guide
       position="0.59762013,31.345249"
       orientation="0,-1"
       id="guide4"
       inkscape:locked="false" /><inkscape:page
       x="0"
       y="0"
       width="66.145836"
       height="32.014584"
       id="page2"
       margin="0"
       bleed="0" /></sodipodi:namedview><defs
     id="defs1" /><g
     inkscape:label="Layer 1"
     inkscape:groupmode="layer"
     id="layer1"><path
       style="font-weight:900;font-size:37.3333px;line-height:1;font-family:Montserrat;-inkscape-font-specification:'Montserrat Heavy';white-space:pre;fill:#231f20;fill-opacity:1;stroke-width:3.17125"
       d="m 6.8251039,24.484255 c 4.4515901,0 6.8431341,-2.225795 6.8431341,-6.772098 V 7.530328 H 2.5155869 v 4.214805 h 5.63552 v 6.298528 c 0,1.349679 -0.639318,2.06004 -1.799579,2.06004 -0.923469,0 -1.752219,-0.544606 -2.628328,-1.633824 l -3.00719201,3.551798 c 1.37336201,1.610153 3.52812101,2.46258 6.10909601,2.46258 z m 9.4004201,-0.378857 h 5.090915 v -7.293033 l 3.599156,5.801275 h 2.46258 l 3.599157,-6.061737 0.04738,7.553495 h 5.090914 L 36.068246,7.530328 H 31.474584 L 26.21792,16.362472 20.819185,7.530328 h -4.593662 z m 26.425427,0 h 5.9907 l 2.81776,-8.855821 2.675695,8.855821 h 5.9907 L 65.429829,7.530328 H 60.125806 L 57.071261,17.072832 54.182459,7.530328 H 49.044191 L 45.98964,16.954437 43.100844,7.530328 h -5.753916 z"
       id="text30263"
       aria-label="JMW "
       inkscape:export-filename="jmw.svg"
       inkscape:export-xdpi="96"
       inkscape:export-ydpi="96" /></g></svg>
