<?xml version="1.0" encoding="UTF-8" standalone="no"?>
<!-- Created with Inkscape (http://www.inkscape.org/) -->

<svg
   width="197.61838"
   height="115.78207"
   viewBox="0 0 52.286527 30.634008"
   version="1.1"
   id="svg1"
   xml:space="preserve"
   inkscape:export-filename="a2z.svg"
   inkscape:export-xdpi="96"
   inkscape:export-ydpi="96"
   inkscape:version="1.4.3 (0d15f75042, 2025-12-25)"
   sodipodi:docname="Client_logo.svg"
   xmlns:inkscape="http://www.inkscape.org/namespaces/inkscape"
   xmlns:sodipodi="http://sodipodi.sourceforge.net/DTD/sodipodi-0.dtd"
   xmlns="http://www.w3.org/2000/svg"
   xmlns:svg="http://www.w3.org/2000/svg"><sodipodi:namedview
     id="namedview1"
     pagecolor="#505050"
     bordercolor="#eeeeee"
     borderopacity="1"
     inkscape:showpageshadow="0"
     inkscape:pageopacity="0"
     inkscape:pagecheckerboard="0"
     inkscape:deskcolor="#505050"
     inkscape:document-units="px"
     showguides="true"
     inkscape:zoom="2.2539136"
     inkscape:cx="76.311709"
     inkscape:cy="64.110709"
     inkscape:window-width="1920"
     inkscape:window-height="1011"
     inkscape:window-x="0"
     inkscape:window-y="0"
     inkscape:window-maximized="1"
     inkscape:current-layer="layer1"><sodipodi:guide
       position="-6.3320359,10.443446"
       orientation="1,0"
       id="guide1"
       inkscape:locked="false" /><sodipodi:guide
       position="-5.3939771,0.02094978"
       orientation="0,-1"
       id="guide2"
       inkscape:locked="false" /><sodipodi:guide
       position="58.748799,0.02094978"
       orientation="1,0"
       id="guide3"
       inkscape:locked="false" /><sodipodi:guide
       position="-6.3320359,30.65496"
       orientation="0,-1"
       id="guide4"
       inkscape:locked="false" /><inkscape:page
       x="0"
       y="0"
       width="52.286526"
       height="30.634008"
       id="page2"
       margin="0"
       bleed="0" /></sodipodi:namedview><defs
     id="defs1"><rect
       x="73.577705"
       y="15.250079"
       width="110.05212"
       height="54.868843"
       id="rect7-1-4" /></defs><g
     inkscape:label="Layer 1"
     inkscape:groupmode="layer"
     id="layer1"
     transform="translate(-6.9296557,-0.6902877)"><g
       id="g9"
       transform="matrix(1.4197437,0,0,1.4197437,-8.3834006,-5.6264308)"
       inkscape:export-filename="ufi.svg"
       inkscape:export-xdpi="96"
       inkscape:export-ydpi="96"><path
         style="fill:#094fa3;fill-opacity:1"
         d="M 44.536902,25.93111 C 43.902878,25.805201 43.41161,25.553881 43.065471,25.178364 42.756235,24.842883 42.347223,24.042779 42.274095,23.630288 l -0.04541,-0.256131 h 0.891517 0.891516 l 0.221772,0.416087 c 0.260892,0.489484 0.589586,0.745039 0.958263,0.745039 0.283475,0 0.535515,-0.241095 0.535515,-0.512261 0,-0.359056 -0.593615,-0.813046 -1.614331,-1.234624 -1.556895,-0.643031 -1.913236,-0.976263 -2.067361,-1.933287 -0.181223,-1.125292 0.441286,-1.905083 1.700472,-2.130112 0.883035,-0.157807 1.955248,0.16751 2.483701,0.753573 0.238271,0.264247 0.647416,1.028343 0.760172,1.419653 l 0.04428,0.153678 h -0.909667 -0.909673 l -0.139586,-0.289621 c -0.07677,-0.159292 -0.242648,-0.359074 -0.36861,-0.44396 -0.249758,-0.168312 -0.675861,-0.206392 -0.809876,-0.07238 -0.128498,0.128498 -0.09845,0.496655 0.05161,0.632464 0.07347,0.06649 0.540018,0.242573 1.036782,0.391306 0.496764,0.148732 1.055451,0.347569 1.241526,0.441861 0.479707,0.243086 0.970157,0.727801 1.189879,1.175964 0.251631,0.51325 0.264109,1.297939 0.02892,1.818497 -0.277177,0.613484 -0.809766,1.052199 -1.49356,1.230304 -0.466195,0.121429 -0.783139,0.120257 -1.415044,-0.0052 z m -4.469669,-0.388905 c -0.558147,-0.999782 -1.263831,-2.169805 -1.36209,-2.258341 -0.06346,-0.05718 -0.199909,-0.125064 -0.303215,-0.150846 -0.232883,-0.05812 -0.23155,-0.09461 -0.05123,1.402265 0.07467,0.619837 0.135952,1.13466 0.136183,1.144052 2.31e-4,0.0094 -0.428487,0.01708 -0.952706,0.01708 h -0.953124 l -0.03648,-0.22198 c -0.102087,-0.62115 -0.731263,-6.689007 -0.697123,-6.723147 0.02186,-0.02186 0.893708,-0.0087 1.937441,0.02928 1.470148,0.05347 1.968996,0.09482 2.214165,0.183517 0.751341,0.27183 1.218019,0.992558 1.275233,1.969445 0.04178,0.713394 -0.08242,1.029488 -0.584995,1.488813 -0.353227,0.322829 -0.373476,0.356891 -0.251473,0.423006 0.305411,0.165508 0.646518,0.645163 1.242587,1.747289 0.347484,0.642495 0.631789,1.18442 0.631789,1.204279 0,0.01986 -0.468719,0.03587 -1.041598,0.03558 l -1.041599,-5.26e-4 z m -0.788261,-4.18282 c 0.154849,-0.236329 0.07846,-0.75226 -0.130106,-0.878682 -0.196978,-0.1194 -1.301588,-0.07139 -1.25329,0.05447 0.01754,0.04571 0.05386,0.288254 0.08071,0.538979 l 0.04882,0.455862 h 0.571032 c 0.53362,0 0.578357,-0.01118 0.682834,-0.170629 z m -8.919327,1.963545 c 1.25e-4,-1.342979 0.02031,-2.925868 0.04484,-3.51753 l 0.04462,-1.07575 h 2.457677 2.457677 l -0.04307,0.358583 c -0.02369,0.197221 -0.04334,0.581417 -0.04366,0.85377 l -5.93e-4,0.495186 h -1.424929 -1.424929 l -0.0447,0.380328 c -0.02459,0.20918 -0.027,0.408962 -0.0054,0.44396 0.02211,0.03578 0.620572,0.06363 1.367176,0.06363 h 1.32785 v 0.537874 c 0,0.295832 -0.01921,0.633924 -0.04269,0.751318 l -0.04269,0.213442 h -1.323343 -1.323343 l -7.51e-4,0.358583 c -4.14e-4,0.197221 -0.0198,0.473842 -0.04309,0.614714 l -0.04234,0.256131 h 1.511572 1.511571 v 0.85377 0.85377 h -2.458857 -2.458856 z m -4.31947,-0.170753 -0.01791,-2.544234 -0.836694,-0.01918 -0.836694,-0.01918 V 19.649619 18.72965 h 2.732062 2.732063 v 0.920144 0.920143 l -0.939146,0.019 -0.939147,0.019 -0.01791,2.544234 -0.01791,2.544233 H 26.97848 26.058072 Z m -9.750881,2.373192 c 0,-0.05651 0.199783,-1.606191 0.443961,-3.443743 0.244178,-1.837552 0.44396,-3.358841 0.44396,-3.380641 0,-0.0218 0.4303,-0.03964 0.956222,-0.03964 0.725868,0 0.956222,0.02083 0.956222,0.08647 0,0.09899 -0.795071,6.23521 -0.858294,6.624163 l -0.04163,0.25613 h -0.950218 c -0.800284,0 -0.950219,-0.01621 -0.950219,-0.102739 z m 3.113843,-0.255844 c 0.02281,-0.197221 0.185005,-1.757058 0.360442,-3.466304 l 0.318977,-3.107722 1.004842,-0.01889 1.004842,-0.01889 -0.03359,0.189647 c -0.03437,0.194037 -0.578438,4.849606 -0.578438,4.949635 0,0.0304 0.614714,0.05527 1.366031,0.05527 h 1.366032 v 0.202456 c 0,0.111351 -0.03508,0.510916 -0.07795,0.887921 l -0.07794,0.685463 h -2.347357 -2.347357 z m -8.03417,-3.210174 0.583178,-3.432153 2.203684,-0.01802 2.203684,-0.01802 -0.03928,0.257078 c -0.0216,0.141393 -0.0759,0.502964 -0.120664,0.803491 l -0.08138,0.546413 -1.269937,0.01854 -1.269937,0.01854 -0.08471,0.391266 c -0.04659,0.215196 -0.10077,0.460421 -0.120397,0.544944 l -0.03569,0.153679 h 1.066079 c 1.233185,0 1.122803,-0.09734 0.987514,0.870845 l -0.07874,0.563488 h -1.077872 c -0.967483,0 -1.081509,0.01224 -1.113383,0.119527 -0.03692,0.124259 -0.451806,2.478815 -0.451806,2.56406 0,0.02666 -0.423792,0.04847 -0.94176,0.04847 h -0.941761 z"
         id="path8"
         sodipodi:nodetypes="csscccsssssssscccsssssssssccsssssscsscssssssscssssscsscccccsscccscscsscccsscccccccccccccccccccccccccsssssscssssscccssscsscccsccccsscccsscsscsssscc" /><g
         id="g8"
         style="fill:#094fa3;fill-opacity:1"
         transform="translate(-4.0740788,-0.8755567)"><path
           d="m 128.60351,52.653741 c 8.6,0 13.64,-4.84 13.64,-13.24 v -15.4 h -9.28 v 15.12 c 0,4.28 -1.64,5.88 -4.28,5.88 -2.64,0 -4.28,-1.6 -4.28,-5.88 v -15.12 h -9.44 v 15.4 c 0,8.4 5.04,13.24 13.64,13.24 z"
           id="text7"
           style="font-weight:900;font-size:40px;font-family:Montserrat;-inkscape-font-specification:'Montserrat Heavy';text-align:center;letter-spacing:-2.27543px;text-anchor:middle;white-space:pre;fill:#094fa3;fill-opacity:1;stroke-width:4;stroke-linecap:round"
           transform="matrix(0.41278866,0,0,0.41278866,-26.86873,-4.5878342)"
           aria-label="U" /><path
           d="m 118.00353,52.013741 h 9.86962 v -8.96 h 7.86112 v -7.377774 h -8.03297 v -4.542226 h 9.75542 v -7.12 h -19.45319 z"
           id="text7-3"
           style="font-weight:900;font-size:40px;font-family:Montserrat;-inkscape-font-specification:'Montserrat Heavy';text-align:center;letter-spacing:-2.27543px;white-space:pre;opacity:1;fill:#094fa3;fill-opacity:1;stroke-width:4;stroke-linecap:round"
           transform="matrix(0.41278866,0,0,0.41278866,-15.637589,-4.5878342)"
           aria-label="F"
           sodipodi:nodetypes="ccccccccccc" /><text
           xml:space="preserve"
           transform="matrix(0.41278866,0,0,0.41278866,-9.0734428,-4.5878342)"
           id="text7-3-4"
           style="font-style:normal;font-variant:normal;font-weight:900;font-stretch:normal;font-size:40px;font-family:Montserrat;-inkscape-font-specification:'Montserrat Heavy';text-align:center;letter-spacing:-2.27543px;writing-mode:lr-tb;direction:ltr;white-space:pre;shape-inside:url(#rect7-1-4);display:inline;fill:#094fa3;fill-opacity:1;stroke:none;stroke-width:4;stroke-linecap:round;stroke-dasharray:none;stroke-opacity:1"
           x="55.026058"
           y="0"><tspan
             x="121.60351"
             y="52.013741"
             id="tspan1">I</tspan></text></g></g></g></svg>
