<?xml version="1.0" encoding="UTF-8" standalone="no"?>
<!-- Created with Inkscape (http://www.inkscape.org/) -->

<svg
   width="250.00002"
   height="121"
   viewBox="0 0 66.145835 32.014584"
   version="1.1"
   id="svg1"
   xml:space="preserve"
   inkscape:export-filename="uni.svg"
   inkscape:export-xdpi="96"
   inkscape:export-ydpi="96"
   inkscape:version="1.4.3 (0d15f75042, 2025-12-25)"
   sodipodi:docname="Client_logo.svg"
   xmlns:inkscape="http://www.inkscape.org/namespaces/inkscape"
   xmlns:sodipodi="http://sodipodi.sourceforge.net/DTD/sodipodi-0.dtd"
   xmlns="http://www.w3.org/2000/svg"
   xmlns:svg="http://www.w3.org/2000/svg"><sodipodi:namedview
     id="namedview1"
     pagecolor="#505050"
     bordercolor="#eeeeee"
     borderopacity="1"
     inkscape:showpageshadow="0"
     inkscape:pageopacity="0"
     inkscape:pagecheckerboard="0"
     inkscape:deskcolor="#505050"
     inkscape:document-units="px"
     showguides="true"
     inkscape:zoom="2.2649597"
     inkscape:cx="8.38867"
     inkscape:cy="252.76387"
     inkscape:window-width="1920"
     inkscape:window-height="1011"
     inkscape:window-x="0"
     inkscape:window-y="0"
     inkscape:window-maximized="1"
     inkscape:current-layer="layer1"><sodipodi:guide
       position="0.59762014,11.133736"
       orientation="1,0"
       id="guide1"
       inkscape:locked="false" /><sodipodi:guide
       position="1.5356788,0.71124038"
       orientation="0,-1"
       id="guide2"
       inkscape:locked="false" /><sodipodi:guide
       position="65.678453,0.71124038"
       orientation="1,0"
       id="guide3"
       inkscape:locked="false" /><sodipodi:guide
       position="0.59762013,31.345249"
       orientation="0,-1"
       id="guide4"
       inkscape:locked="false" /><inkscape:page
       x="0"
       y="0"
       width="66.145836"
       height="32.014584"
       id="page2"
       margin="0"
       bleed="0" /></sodipodi:namedview><defs
     id="defs1"><inkscape:path-effect
       effect="fillet_chamfer"
       id="path-effect12"
       is_visible="true"
       lpeversion="1"
       nodesatellites_param="F,0,0,1,0,0,0,1 @ F,0,0,1,0,0,0,1 @ F,0,0,1,0,0,0,1 @ F,0,0,1,0,5.5541599,0,1"
       radius="0"
       unit="px"
       method="auto"
       mode="F"
       chamfer_steps="1"
       flexible="false"
       use_knot_distance="true"
       apply_no_radius="true"
       apply_with_radius="true"
       only_selected="false"
       hide_knots="false" /></defs><g
     inkscape:label="Layer 1"
     inkscape:groupmode="layer"
     id="layer1"><g
       id="g12"
       transform="matrix(1.2718901,0,0,1.2718901,127.21362,-78.047918)"
       style="fill:#01aef0;fill-opacity:1"><path
         style="opacity:1;fill:#01aef0;fill-opacity:1;stroke:none;stroke-width:1.07784;stroke-linecap:round;stroke-dasharray:none;stroke-opacity:1"
         id="rect9-8"
         width="5.9262853"
         height="17.969149"
         x="-84.675385"
         y="61.939888"
         inkscape:path-effect="#path-effect12"
         sodipodi:type="rect"
         d="m -84.675385,61.939888 h 5.926286 v 17.969149 h -0.372126 a 5.5541599,5.5541599 45 0 1 -5.55416,-5.55416 z" /><rect
         style="opacity:1;fill:#01aef0;fill-opacity:1;stroke:none;stroke-width:1.07784;stroke-linecap:round;stroke-dasharray:none;stroke-opacity:1"
         id="rect9"
         width="5.9262853"
         height="17.969149"
         x="-77.76783"
         y="61.939888" /><path
         d="m -70.860274,61.939888 v 11.196733 h 1.904794 c 3.101523,0 5.598107,-2.496584 5.598107,-5.598108 0,-3.101523 -2.496584,-5.598625 -5.598107,-5.598625 z"
         style="opacity:1;fill:#01aef0;fill-opacity:1;stroke-width:1.09585;stroke-linecap:round"
         id="path12" /></g><path
       style="font-weight:500;font-size:32px;font-family:'Playfair Display';-inkscape-font-specification:'Playfair Display Medium';letter-spacing:0.81px;white-space:pre;stroke-width:3.99999;stroke-linecap:round"
       d="m -196.54406,300.0392 v 0.64 q -1.056,0.064 -1.6,0.384 -0.544,0.32 -0.736,1.056 -0.192,0.704 -0.192,2.016 v 9.248 q 0,2.176 -0.288,3.872 -0.288,1.696 -1.024,2.912 -0.8,1.344 -2.368,2.176 -1.536,0.8 -3.68,0.8 -1.536,0 -2.976,-0.352 -1.44,-0.352 -2.528,-1.344 -0.96,-0.864 -1.504,-1.888 -0.544,-1.024 -0.736,-2.464 -0.192,-1.472 -0.192,-3.616 v -10.048 q 0,-1.184 -0.192,-1.728 -0.16,-0.576 -0.704,-0.768 -0.544,-0.224 -1.632,-0.256 v -0.64 q 0.736,0.032 1.888,0.064 1.184,0.032 2.528,0.032 1.216,0 2.4,-0.032 1.216,-0.032 1.984,-0.064 v 0.64 q -1.088,0.032 -1.664,0.256 -0.544,0.192 -0.736,0.768 -0.192,0.544 -0.192,1.728 v 11.072 q 0,1.632 0.16,3.008 0.192,1.376 0.672,2.4 0.512,0.992 1.472,1.568 0.992,0.544 2.56,0.544 2.368,0 3.648,-1.056 1.312,-1.088 1.824,-2.944 0.544,-1.888 0.544,-4.288 v -9.472 q 0,-1.376 -0.256,-2.112 -0.256,-0.736 -0.896,-1.056 -0.64,-0.352 -1.824,-0.416 v -0.64 q 0.608,0.032 1.568,0.064 0.96,0.032 1.76,0.032 0.832,0 1.6,-0.032 0.8,-0.032 1.312,-0.064 z m 23.274,0 v 0.64 q -1.088,0.064 -1.632,0.384 -0.544,0.32 -0.736,1.056 -0.16,0.704 -0.16,2.016 v 18.688 q -0.256,0 -0.512,0 -0.256,0 -0.544,0 l -13.568,-19.712 v 15.36 q 0,1.344 0.192,2.112 0.192,0.736 0.832,1.056 0.64,0.32 1.952,0.416 v 0.64 q -0.608,-0.064 -1.568,-0.064 -0.928,-0.032 -1.76,-0.032 -0.8,0 -1.6,0.032 -0.8,0 -1.312,0.064 v -0.64 q 1.056,-0.096 1.6,-0.384 0.544,-0.32 0.736,-1.056 0.192,-0.736 0.192,-2.016 v -15.168 q 0,-1.184 -0.192,-1.728 -0.192,-0.576 -0.736,-0.768 -0.544,-0.224 -1.6,-0.256 v -0.64 q 0.512,0.032 1.312,0.064 0.8,0.032 1.6,0.032 0.704,0 1.376,-0.032 0.672,-0.032 1.184,-0.064 l 11.68,16.704 v -12.48 q 0,-1.376 -0.224,-2.112 -0.192,-0.736 -0.832,-1.056 -0.64,-0.352 -1.92,-0.416 v -0.64 q 0.576,0.032 1.536,0.064 0.96,0.032 1.792,0.032 0.8,0 1.6,-0.032 0.8,-0.032 1.312,-0.064 z m 11.85001,0 v 0.64 q -1.056,0.032 -1.6,0.256 -0.544,0.192 -0.736,0.768 -0.192,0.544 -0.192,1.728 v 15.872 q 0,1.152 0.192,1.728 0.192,0.576 0.736,0.768 0.544,0.192 1.6,0.256 v 0.64 q -0.768,-0.064 -1.952,-0.064 -1.152,-0.032 -2.368,-0.032 -1.344,0 -2.528,0.032 -1.152,0 -1.888,0.064 v -0.64 q 1.088,-0.064 1.632,-0.256 0.544,-0.192 0.704,-0.768 0.192,-0.576 0.192,-1.728 v -15.872 q 0,-1.184 -0.192,-1.728 -0.16,-0.576 -0.736,-0.768 -0.544,-0.224 -1.6,-0.256 v -0.64 q 0.736,0.032 1.888,0.064 1.184,0.032 2.528,0.032 1.216,0 2.368,-0.032 1.184,-0.032 1.952,-0.064 z m 3.306,0 q 0.736,0.032 1.888,0.064 1.184,0.032 2.336,0.032 1.536,0 2.912,-0.032 1.408,-0.032 1.984,-0.032 4.064,0 6.08,1.76 2.016,1.76 2.016,4.544 0,1.152 -0.416,2.432 -0.384,1.248 -1.376,2.336 -0.992,1.056 -2.688,1.728 -1.696,0.672 -4.32,0.672 h -3.136 v -0.64 h 2.816 q 2.144,0 3.264,-0.864 1.152,-0.864 1.536,-2.272 0.416,-1.408 0.416,-3.04 0,-3.04 -1.088,-4.544 -1.088,-1.504 -3.776,-1.504 -1.376,0 -1.824,0.544 -0.416,0.544 -0.416,2.208 v 15.808 q 0,1.184 0.256,1.792 0.256,0.576 0.96,0.768 0.704,0.192 2.08,0.224 v 0.672 q -0.864,-0.064 -2.24,-0.064 -1.376,-0.032 -2.848,-0.032 -1.28,0 -2.464,0.032 -1.152,0 -1.952,0.064 v -0.64 q 1.088,-0.064 1.632,-0.256 0.544,-0.192 0.704,-0.768 0.192,-0.576 0.192,-1.728 v -15.872 q 0,-1.184 -0.192,-1.728 -0.16,-0.576 -0.736,-0.768 -0.544,-0.224 -1.6,-0.256 z m 20.08679,0 q 0.736,0.032 1.888,0.064 1.184,0.032 2.336,0.032 1.536,0 2.912,-0.032 1.408,-0.032 1.984,-0.032 2.72,0 4.512,0.704 1.824,0.704 2.688,1.984 0.896,1.248 0.896,2.88 0,0.992 -0.416,2.112 -0.384,1.088 -1.376,2.048 -0.992,0.928 -2.688,1.536 -1.696,0.608 -4.32,0.608 h -3.072 v -0.64 h 2.752 q 2.144,0 3.264,-0.704 1.152,-0.736 1.536,-1.92 0.416,-1.216 0.416,-2.688 0,-2.528 -1.088,-3.904 -1.088,-1.408 -3.776,-1.408 -1.376,0 -1.824,0.544 -0.416,0.544 -0.416,2.208 v 15.872 q 0,1.152 0.192,1.728 0.192,0.576 0.736,0.768 0.544,0.192 1.6,0.256 v 0.64 q -0.768,-0.064 -1.952,-0.064 -1.152,-0.032 -2.368,-0.032 -1.344,0 -2.528,0.032 -1.152,0 -1.888,0.064 v -0.64 q 1.088,-0.064 1.632,-0.256 0.544,-0.192 0.704,-0.768 0.192,-0.576 0.192,-1.728 v -15.872 q 0,-1.184 -0.192,-1.728 -0.16,-0.576 -0.736,-0.768 -0.544,-0.224 -1.6,-0.256 z m 5.408,11.36 q 1.632,0.064 2.624,0.16 0.992,0.064 1.664,0.128 0.672,0.064 1.248,0.16 2.4,0.32 3.488,1.28 1.12,0.96 1.536,2.944 l 0.8,3.264 q 0.288,1.376 0.608,1.952 0.352,0.576 1.024,0.576 0.512,-0.032 0.832,-0.288 0.352,-0.288 0.736,-0.768 l 0.448,0.352 q -0.736,0.992 -1.536,1.504 -0.8,0.48 -2.144,0.48 -1.376,0 -2.368,-0.704 -0.96,-0.736 -1.376,-2.752 l -0.64,-3.2 q -0.288,-1.376 -0.64,-2.368 -0.352,-1.024 -0.992,-1.6 -0.608,-0.576 -1.792,-0.576 h -3.456 z m 27.53001,-11.808 q 3.136,0 5.503998,1.376 2.4,1.376 3.712,3.968 1.312,2.56 1.312,6.24 0,3.584 -1.344,6.272 -1.344,2.688 -3.744,4.192 -2.399998,1.504 -5.471998,1.504 -3.168,0 -5.536,-1.376 -2.368,-1.376 -3.68,-3.968 -1.312,-2.592 -1.312,-6.24 0,-3.584 1.344,-6.272 1.376,-2.688 3.744,-4.192 2.368,-1.504 5.472,-1.504 z m -0.128,0.576 q -1.984,0 -3.456,1.44 -1.472,1.44 -2.272,3.968 -0.8,2.528 -0.8,5.856 0,3.392 0.896,5.92 0.896,2.496 2.432,3.872 1.536,1.344 3.424,1.344 1.984,0 3.424,-1.44 1.472,-1.44 2.271998,-3.968 0.832,-2.56 0.832,-5.856 0,-3.424 -0.928,-5.92 -0.895998,-2.496 -2.431998,-3.84 -1.504,-1.376 -3.392,-1.376 z m 23.145995,-0.128 q 5.92,0 8.8,2.88 2.88,2.848 2.88,8.192 0,3.488 -1.408,6.112 -1.408,2.592 -4.096,4.032 -2.656,1.44 -6.464,1.44 -0.48,0 -1.312,-0.032 -0.8,-0.032 -1.664,-0.032 -0.864,-0.032 -1.568,-0.032 -1.216,0 -2.4,0.032 -1.152,0 -1.888,0.064 v -0.64 q 1.088,-0.064 1.632,-0.256 0.544,-0.192 0.704,-0.768 0.192,-0.576 0.192,-1.728 v -15.872 q 0,-1.184 -0.192,-1.728 -0.16,-0.576 -0.736,-0.768 -0.544,-0.224 -1.6,-0.256 v -0.64 q 0.736,0.032 1.888,0.096 1.184,0.032 2.336,0 1.152,-0.032 2.56,-0.064 1.44,-0.032 2.336,-0.032 z m -0.544,0.576 q -1.472,0 -1.92,0.544 -0.448,0.544 -0.448,2.208 v 16 q 0,1.664 0.448,2.208 0.48,0.544 1.952,0.544 3.232,0 5.024,-1.248 1.792,-1.28 2.528,-3.712 0.736,-2.432 0.736,-5.92 0,-3.584 -0.8,-5.92 -0.8,-2.368 -2.624,-3.52 -1.792,-1.184 -4.896,-1.184 z m 35.600383,-0.576 v 0.64 q -1.056,0.064 -1.6,0.384 -0.544,0.32 -0.736,1.056 -0.192,0.704 -0.192,2.016 v 9.248 q 0,2.176 -0.288,3.872 -0.288,1.696 -1.024,2.912 -0.8,1.344 -2.368,2.176 -1.536,0.8 -3.68,0.8 -1.536,0 -2.976,-0.352 -1.44,-0.352 -2.528,-1.344 -0.96,-0.864 -1.504,-1.888 -0.544,-1.024 -0.736,-2.464 -0.192,-1.472 -0.192,-3.616 v -10.048 q 0,-1.184 -0.192,-1.728 -0.16,-0.576 -0.704,-0.768 -0.544,-0.224 -1.632,-0.256 v -0.64 q 0.736,0.032 1.888,0.064 1.184,0.032 2.528,0.032 1.216,0 2.4,-0.032 1.216,-0.032 1.984,-0.064 v 0.64 q -1.088,0.032 -1.664,0.256 -0.544,0.192 -0.736,0.768 -0.192,0.544 -0.192,1.728 v 11.072 q 0,1.632 0.16,3.008 0.192,1.376 0.672,2.4 0.512,0.992 1.472,1.568 0.992,0.544 2.56,0.544 2.368,0 3.648,-1.056 1.312,-1.088 1.824,-2.944 0.544,-1.888 0.544,-4.288 v -9.472 q 0,-1.376 -0.256,-2.112 -0.256,-0.736 -0.896,-1.056 -0.64,-0.352 -1.824,-0.416 v -0.64 q 0.608,0.032 1.568,0.064 0.96,0.032 1.76,0.032 0.832,0 1.6,-0.032 0.8,-0.032 1.312,-0.064 z m 13.545981,-0.448 q 2.112,0 3.456,0.64 1.376,0.608 2.432,1.44 0.64,0.48 0.96,0.128 0.352,-0.384 0.48,-1.76 h 0.736 q -0.064,1.216 -0.096,2.944 -0.032,1.696 -0.032,4.544 h -0.736 q -0.224,-1.408 -0.448,-2.304 -0.192,-0.896 -0.544,-1.536 -0.32,-0.64 -0.896,-1.248 -0.928,-1.152 -2.272,-1.664 -1.344,-0.512 -2.848,-0.512 -1.632,0 -2.88,0.832 -1.248,0.8 -2.112,2.304 -0.832,1.504 -1.28,3.552 -0.448,2.048 -0.448,4.48 0,2.496 0.48,4.544 0.48,2.016 1.376,3.488 0.928,1.44 2.208,2.24 1.312,0.768 2.912,0.768 1.312,0 2.72,-0.512 1.408,-0.544 2.24,-1.632 0.896,-0.96 1.216,-2.144 0.352,-1.216 0.576,-3.296 h 0.736 q 0,2.944 0.032,4.768 0.032,1.792 0.096,3.04 h -0.736 q -0.128,-1.376 -0.448,-1.728 -0.288,-0.352 -0.992,0.096 -1.184,0.832 -2.528,1.472 -1.312,0.608 -3.392,0.608 -3.168,0 -5.536,-1.376 -2.368,-1.376 -3.68,-3.968 -1.312,-2.592 -1.312,-6.24 0,-3.584 1.344,-6.272 1.376,-2.688 3.744,-4.192 2.368,-1.504 5.472,-1.504 z m 30.3460054,0.448 q -0.128,1.344 -0.192,2.624 -0.032,1.248 -0.032,1.92 0,0.736 0.032,1.408 0.032,0.672 0.064,1.152 h -0.736 q -0.32,-2.4 -0.864,-3.776 -0.512,-1.376 -1.504,-1.984 -0.992,-0.608 -2.848,-0.608 h -1.3760004 v 18.24 q 0,1.28 0.224,1.92 0.256,0.64 0.9600004,0.864 0.736,0.192 2.112,0.256 v 0.64 q -0.896,-0.064 -2.304,-0.064 -1.4080004,-0.032 -2.8800004,-0.032 -1.536,0 -2.912,0.032 -1.344,0 -2.176,0.064 v -0.64 q 1.376,-0.064 2.08,-0.256 0.704,-0.224 0.96,-0.864 0.256,-0.64 0.256,-1.92 v -18.24 h -1.408 q -1.792,0 -2.816,0.608 -1.024,0.608 -1.536,1.984 -0.512,1.376 -0.832,3.776 h -0.736 q 0.064,-0.48 0.064,-1.152 0.032,-0.672 0.032,-1.408 0,-0.672 -0.064,-1.92 -0.032,-1.28 -0.16,-2.624 1.376,0.032 3.008,0.064 1.632,0.032 3.296,0.032 1.664,0 3.008,0 1.344,0 2.9760004,0 1.632,0 3.296,-0.032 1.664,-0.032 3.008,-0.064 z m 10.185985,-0.384 q 1.696,0 2.592,0.384 0.8959996,0.384 1.5679996,0.832 0.384,0.224 0.608,0.352 0.256,0.096 0.48,0.096 0.32,0 0.448,-0.352 0.16,-0.352 0.256,-1.056 h 0.736 q -0.032,0.576 -0.096,1.376 -0.032,0.768 -0.064,2.048 0,1.28 0,3.36 h -0.736 q -0.096,-1.568 -0.704,-3.04 -0.576,-1.472 -1.728,-2.4 -1.1199996,-0.928 -2.8799996,-0.928 -1.632,0 -2.72,0.992 -1.056,0.96 -1.056,2.56 0,1.408 0.704,2.368 0.704,0.928 1.92,1.76 1.248,0.8 2.816,1.792 1.5999996,1.024 2.8799996,2.048 1.28,0.992 2.016,2.208 0.736,1.216 0.736,2.944 0,2.08 -0.992,3.456 -0.96,1.344 -2.592,2.016 -1.6319996,0.672 -3.5839996,0.672 -1.792,0 -2.848,-0.384 -1.056,-0.384 -1.792,-0.8 -0.704,-0.448 -1.088,-0.448 -0.32,0 -0.48,0.352 -0.128,0.352 -0.224,1.056 H 0.50309937 q 0.064,-0.704 0.064,-1.632 0.032,-0.96 0.032,-2.496 0.032,-1.536 0.032,-3.872 H 1.3670994 q 0.128,1.984 0.704,3.712 0.608,1.728 1.824,2.784 1.248,1.024 3.296,1.024 1.088,0 2.016,-0.416 0.9279996,-0.416 1.5039996,-1.312 0.576,-0.896 0.576,-2.304 0,-1.312 -0.64,-2.304 -0.608,-0.992 -1.7279996,-1.824 -1.088,-0.864 -2.56,-1.76 -1.504,-0.96 -2.816,-1.92 -1.312,-0.96 -2.112,-2.24 -0.76800003,-1.28 -0.76800003,-3.04 0,-1.952 0.89600003,-3.2 0.928,-1.248 2.368,-1.856 1.472,-0.608 3.136,-0.608 z m 27.3799886,-2.752 0.448,0.416 q -2.496,3.2 -3.52,6.912 -1.024,3.712 -1.024,8.48 0,4.736 1.024,8.448 1.024,3.712 3.52,6.944 l -0.448,0.416 q -3.424,-2.912 -5.408,-6.816 -1.952,-3.936 -1.952,-8.992 0,-5.056 1.952,-8.96 1.984,-3.936 5.408,-6.848 z m 12.630786,3.136 v 0.64 q -1.056,0.032 -1.6,0.256 -0.544,0.192 -0.736,0.768 -0.192,0.544 -0.192,1.728 v 15.872 q 0,1.152 0.192,1.728 0.192,0.576 0.736,0.768 0.544,0.192 1.6,0.256 v 0.64 q -0.768,-0.064 -1.952,-0.064 -1.152,-0.032 -2.368,-0.032 -1.344,0 -2.528,0.032 -1.152,0 -1.888,0.064 v -0.64 q 1.088,-0.064 1.632,-0.256 0.544,-0.192 0.704,-0.768 0.192,-0.576 0.192,-1.728 v -15.872 q 0,-1.184 -0.192,-1.728 -0.16,-0.576 -0.736,-0.768 -0.544,-0.224 -1.6,-0.256 v -0.64 q 0.736,0.032 1.888,0.064 1.184,0.032 2.528,0.032 1.216,0 2.368,-0.032 1.184,-0.032 1.952,-0.064 z m 23.753992,0 v 0.64 q -1.088,0.064 -1.632,0.384 -0.544,0.32 -0.736,1.056 -0.16,0.704 -0.16,2.016 v 18.688 q -0.256,0 -0.512,0 -0.256,0 -0.544,0 l -13.568,-19.712 v 15.36 q 0,1.344 0.192,2.112 0.192,0.736 0.832,1.056 0.64,0.32 1.952,0.416 v 0.64 q -0.608,-0.064 -1.568,-0.064 -0.928,-0.032 -1.76,-0.032 -0.8,0 -1.6,0.032 -0.8,0 -1.312,0.064 v -0.64 q 1.056,-0.096 1.6,-0.384 0.544,-0.32 0.736,-1.056 0.192,-0.736 0.192,-2.016 v -15.168 q 0,-1.184 -0.192,-1.728 -0.192,-0.576 -0.736,-0.768 -0.544,-0.224 -1.6,-0.256 v -0.64 q 0.512,0.032 1.312,0.064 0.8,0.032 1.6,0.032 0.704,0 1.376,-0.032 0.672,-0.032 1.184,-0.064 l 11.68,16.704 v -12.48 q 0,-1.376 -0.224,-2.112 -0.192,-0.736 -0.832,-1.056 -0.64,-0.352 -1.92,-0.416 v -0.64 q 0.576,0.032 1.536,0.064 0.96,0.032 1.792,0.032 0.8,0 1.6,-0.032 0.8,-0.032 1.312,-0.064 z m 12.234012,0 q 5.92,0 8.8,2.88 2.88,2.848 2.88,8.192 0,3.488 -1.408,6.112 -1.408,2.592 -4.096,4.032 -2.656,1.44 -6.464,1.44 -0.48,0 -1.312,-0.032 -0.8,-0.032 -1.664,-0.032 -0.864,-0.032 -1.568,-0.032 -1.216,0 -2.4,0.032 -1.152,0 -1.888,0.064 v -0.64 q 1.088,-0.064 1.632,-0.256 0.544,-0.192 0.704,-0.768 0.192,-0.576 0.192,-1.728 v -15.872 q 0,-1.184 -0.192,-1.728 -0.16,-0.576 -0.736,-0.768 -0.544,-0.224 -1.6,-0.256 v -0.64 q 0.736,0.032 1.888,0.096 1.184,0.032 2.336,0 1.152,-0.032 2.56,-0.064 1.44,-0.032 2.336,-0.032 z m -0.544,0.576 q -1.472,0 -1.92,0.544 -0.448,0.544 -0.448,2.208 v 16 q 0,1.664 0.448,2.208 0.48,0.544 1.952,0.544 3.232,0 5.024,-1.248 1.792,-1.28 2.528,-3.712 0.736,-2.432 0.736,-5.92 0,-3.584 -0.8,-5.92 -0.8,-2.368 -2.624,-3.52 -1.792,-1.184 -4.896,-1.184 z m 24.393952,-0.576 v 0.64 q -1.056,0.032 -1.6,0.256 -0.544,0.192 -0.736,0.768 -0.192,0.544 -0.192,1.728 v 15.872 q 0,1.152 0.192,1.728 0.192,0.576 0.736,0.768 0.544,0.192 1.6,0.256 v 0.64 q -0.768,-0.064 -1.952,-0.064 -1.152,-0.032 -2.368,-0.032 -1.344,0 -2.528,0.032 -1.152004,0 -1.888004,0.064 v -0.64 q 1.088,-0.064 1.632,-0.256 0.544004,-0.192 0.704004,-0.768 0.192,-0.576 0.192,-1.728 v -15.872 q 0,-1.184 -0.192,-1.728 -0.16,-0.576 -0.736004,-0.768 -0.544,-0.224 -1.6,-0.256 v -0.64 q 0.736,0.032 1.888004,0.064 1.184,0.032 2.528,0.032 1.216,0 2.368,-0.032 1.184,-0.032 1.952,-0.064 z m 12.87399,-0.128 7.808,20.096 q 0.448,1.184 1.024,1.6 0.608,0.416 1.12,0.448 v 0.64 q -0.768,-0.064 -1.824,-0.064 -1.024,-0.032 -2.08,-0.032 -1.344,0 -2.496,0.032 -1.152,0 -1.856,0.064 v -0.64 q 1.632,-0.064 2.048,-0.544 0.448,-0.512 -0.192,-2.144 l -5.76,-15.552 0.512,-0.576 -5.312,13.888 q -0.576,1.44 -0.704,2.4 -0.096,0.96 0.16,1.504 0.288,0.544 0.96,0.768 0.672,0.224 1.664,0.256 v 0.64 q -0.96,-0.064 -1.952,-0.064 -0.96,-0.032 -1.824,-0.032 -0.768,0 -1.376,0.032 -0.576,0 -1.056,0.064 v -0.64 q 0.672,-0.16 1.344,-0.8 0.672,-0.64 1.28,-2.176 l 7.424,-19.168 q 0.256,0 0.544,0 0.288,0 0.544,0 z m 3.36,13.568 v 0.64 h -9.536 l 0.32,-0.64 z m 8.17,-16.576 q 3.424,2.912 5.376,6.848 1.984,3.904 1.984,8.96 0,5.056 -1.984,8.992 -1.952,3.904 -5.376,6.816 l -0.448,-0.416 q 2.496,-3.232 3.52,-6.944 1.024,-3.712 1.024,-8.448 0,-4.768 -1.024,-8.48 -1.024,-3.712 -3.52,-6.912 z m 28.14801,3.136 v 0.64 q -1.088,0.032 -1.664,0.256 -0.544,0.192 -0.736,0.768 -0.192,0.544 -0.192,1.728 v 16 q 0,1.088 0.16,1.632 0.192,0.544 0.704,0.736 0.544,0.16 1.536,0.16 h 2.08 q 1.376,0 2.304,-0.384 0.96,-0.384 1.6,-1.152 0.64,-0.768 0.992,-1.984 0.352,-1.216 0.544,-2.848 h 0.736 q -0.096,1.024 -0.096,2.688 0,0.64 0.032,1.888 0.064,1.216 0.192,2.528 -1.632,-0.064 -3.68,-0.064 -2.048,-0.032 -3.648,-0.032 -0.736,0 -1.888,0 -1.152,0 -2.496,0.032 -1.312,0 -2.688,0.032 -1.344,0 -2.592,0.032 v -0.64 q 1.088,-0.064 1.632,-0.256 0.544,-0.192 0.704,-0.768 0.192,-0.576 0.192,-1.728 v -15.872 q 0,-1.184 -0.192,-1.728 -0.16,-0.576 -0.736,-0.768 -0.544,-0.224 -1.6,-0.256 v -0.64 q 0.736,0.032 1.888,0.064 1.184,0.032 2.528,0.032 1.216,0 2.4,-0.032 1.216,-0.032 1.984,-0.064 z m 27.11401,0 q -0.128,1.344 -0.192,2.624 -0.032,1.248 -0.032,1.92 0,0.736 0.032,1.408 0.032,0.672 0.064,1.152 h -0.736 q -0.32,-2.4 -0.864,-3.776 -0.512,-1.376 -1.504,-1.984 -0.992,-0.608 -2.848,-0.608 h -1.376 v 18.24 q 0,1.28 0.224,1.92 0.256,0.64 0.96,0.864 0.736,0.192 2.112,0.256 v 0.64 q -0.896,-0.064 -2.304,-0.064 -1.408,-0.032 -2.88,-0.032 -1.536,0 -2.912,0.032 -1.344,0 -2.176,0.064 v -0.64 q 1.376,-0.064 2.08,-0.256 0.704,-0.224 0.96,-0.864 0.256,-0.64 0.256,-1.92 v -18.24 h -1.408 q -1.792,0 -2.816,0.608 -1.024,0.608 -1.536,1.984 -0.512,1.376 -0.832,3.776 h -0.736 q 0.064,-0.48 0.064,-1.152 0.032,-0.672 0.032,-1.408 0,-0.672 -0.064,-1.92 -0.032,-1.28 -0.16,-2.624 1.376,0.032 3.008,0.064 1.632,0.032 3.296,0.032 1.664,0 3.008,0 1.344,0 2.976,0 1.632,0 3.296,-0.032 1.664,-0.032 3.008,-0.064 z m 12.07397,0 q 5.92,0 8.8,2.88 2.88,2.848 2.88,8.192 0,3.488 -1.408,6.112 -1.408,2.592 -4.096,4.032 -2.656,1.44 -6.464,1.44 -0.48,0 -1.312,-0.032 -0.8,-0.032 -1.664,-0.032 -0.864,-0.032 -1.568,-0.032 -1.216,0 -2.4,0.032 -1.152,0 -1.888,0.064 v -0.64 q 1.088,-0.064 1.632,-0.256 0.544,-0.192 0.704,-0.768 0.192,-0.576 0.192,-1.728 v -15.872 q 0,-1.184 -0.192,-1.728 -0.16,-0.576 -0.736,-0.768 -0.544,-0.224 -1.6,-0.256 v -0.64 q 0.736,0.032 1.888,0.096 1.184,0.032 2.336,0 1.152,-0.032 2.56,-0.064 1.44,-0.032 2.336,-0.032 z m -0.544,0.576 q -1.472,0 -1.92,0.544 -0.448,0.544 -0.448,2.208 v 16 q 0,1.664 0.448,2.208 0.48,0.544 1.952,0.544 3.232,0 5.024,-1.248 1.792,-1.28 2.528,-3.712 0.736,-2.432 0.736,-5.92 0,-3.584 -0.8,-5.92 -0.8,-2.368 -2.624,-3.52 -1.792,-1.184 -4.896,-1.184 z"
       id="text12"
       transform="matrix(0.15197098,0,0,0.17138306,33.571708,-24.999278)"
       aria-label="UNIPRODUCTS (INDIA) LTD" /></g></svg>
