<?xml version="1.0" encoding="UTF-8" standalone="no"?>
<!-- Created with Inkscape (http://www.inkscape.org/) -->

<svg
   width="86.648453"
   height="77.820328"
   viewBox="0 0 22.925735 20.589961"
   version="1.1"
   id="svg1"
   xmlns="http://www.w3.org/2000/svg"
   xmlns:svg="http://www.w3.org/2000/svg">
  <defs
     id="defs1" />
  <g
     id="layer1"
     transform="translate(-124.7681,-52.493572)">
    <path
       d="m 131.25453,52.493573 v 5.91592 h -6.48643 v 14.67404 h 14.9841 v -5.60586 h 7.94164 v -14.9841 z m 0.66198,0.66197 h 7.66723 v 0.37311 h 6.58616 l -6.4177,7.10241 v -2.22157 h -7.83569 z m 15.11535,0.54364 v 7.18923 h -6.47867 z m -11.75535,4.71186 c 0.52364,0 0.97712,0.0986 1.36064,0.29559 0.0197,0.01 0.0396,0.0198 0.0589,0.03 0.17462,0.0922 0.33,0.20357 0.46612,0.33486 0.1407,0.13571 0.26062,0.29224 0.36018,0.46974 0.21389,0.36818 0.32092,0.80098 0.32092,1.2976 0,0.29111 -0.0368,0.57785 -0.11059,0.86041 -0.0664,0.28255 -0.19183,0.58236 -0.37621,0.89917 -0.177,0.30824 -0.43884,0.6593 -0.78548,1.05316 l -2.63808,3.00499 h 4.26434 v 0.16123 0.3359 0.32401 h 0.89503 v 4.94336 h -6.55205 c 0.13438,-0.11873 0.27717,-0.26152 0.4284,-0.42839 v -0.49145 c -0.30502,0.23724 -0.58715,0.35605 -0.84698,0.35605 -0.22594,0 -0.37877,-0.079 -0.45785,-0.23719 -0.0791,-0.16945 -0.11834,-0.46885 -0.11834,-0.89814 v -3.24424 h 1.22008 v -0.32401 -0.33022 l 0.005,-0.006 3.21375,-3.65456 c 0.29501,-0.33393 0.51654,-0.62502 0.66405,-0.87333 0.1475,-0.25687 0.24706,-0.49672 0.29869,-0.71934 0.0516,-0.22262 0.0775,-0.43248 0.0775,-0.62941 0,-0.52231 -0.15533,-0.93281 -0.46509,-1.23249 -0.30238,-0.29968 -0.75188,-0.44958 -1.34927,-0.44958 -0.45726,0 -0.86297,0.0812 -1.21698,0.24391 -0.34664,0.16268 -0.64531,0.41508 -0.89607,0.75758 l -0.5643,-0.56483 c 0.17667,-0.24013 0.38242,-0.44842 0.61701,-0.62425 0.16691,-0.1251 0.34845,-0.23353 0.54467,-0.32608 0.006,-0.003 0.0124,-0.006 0.0186,-0.009 0.46725,-0.2168 0.98824,-0.32556 1.56322,-0.32556 z m -9.84643,0.66042 h 5.82445 v 6.00584 c -0.0254,-0.052 -0.0526,-0.10252 -0.0816,-0.1509 -0.21464,-0.35021 -0.52555,-0.62134 -0.93224,-0.81339 -0.39539,-0.20334 -0.88689,-0.30489 -1.47433,-0.30489 -0.50836,0 -0.98259,0.0623 -1.42317,0.18656 -0.42928,0.12426 -0.77422,0.29909 -1.03404,0.52503 -0.24854,0.20334 -0.44587,0.43522 -0.59273,0.69505 -0.13557,0.25983 -0.20361,0.51369 -0.20361,0.76222 0,0.22594 0.079,0.42379 0.2372,0.59325 0.16945,0.15816 0.3673,0.23719 0.59324,0.23719 0.22594,0 0.42379,-0.079 0.59325,-0.23719 0.18075,-0.15816 0.27078,-0.35025 0.27078,-0.57619 0,-0.10168 -0.0168,-0.23149 -0.0506,-0.38964 -0.0226,-0.15816 -0.0341,-0.28797 -0.0341,-0.38964 0,-0.25983 0.13033,-0.48019 0.39016,-0.66095 0.27113,-0.19204 0.60403,-0.28835 0.99942,-0.28835 0.47447,0 0.83616,0.13557 1.08469,0.40669 0.25983,0.27113 0.38964,0.67259 0.38964,1.20355 v 1.23661 c -0.7456,0.30502 -1.34439,0.54789 -1.79627,0.72864 -0.45188,0.18076 -0.8188,0.34459 -1.10123,0.49145 -0.28242,0.13556 -0.51429,0.27113 -0.69505,0.40669 -0.16945,0.12426 -0.35579,0.2771 -0.55913,0.45785 -0.16061,0.13652 -0.2954,0.30454 -0.40463,0.50385 z m 14.32212,2.46652 h 7.27966 v 5.27978 h -7.27966 z m -9.76581,6.04924 v 2.7957 c 0,0.29372 -0.034,0.50832 -0.1018,0.64388 -0.0565,0.13557 -0.19729,0.26538 -0.42323,0.38964 -0.22594,0.12427 -0.46881,0.23157 -0.72864,0.32195 -0.24853,0.0791 -0.47465,0.11885 -0.67799,0.11885 -0.16946,0 -0.33329,-0.0398 -0.49145,-0.11885 -0.15815,-0.0791 -0.29948,-0.18638 -0.42374,-0.32195 -0.11297,-0.13556 -0.20301,-0.29363 -0.27079,-0.47438 -0.0678,-0.19205 -0.1018,-0.38939 -0.1018,-0.59273 v -0.0848 c 0,-0.28243 0.0565,-0.54256 0.1695,-0.7798 0.11297,-0.23724 0.29355,-0.4576 0.54208,-0.66094 0.25983,-0.21464 0.59325,-0.41774 0.99994,-0.60978 0.41799,-0.20335 0.92048,-0.4122 1.50792,-0.62684 z m 0.0341,3.91397 c 0.0338,0.38884 0.10526,0.69546 0.21497,0.91984 h -1.43609 c 0.36389,-0.2237 0.77102,-0.53033 1.22112,-0.91984 z m -4.59042,0.51522 c 0.0751,0.12518 0.1649,0.24184 0.26923,0.34933 0.019,0.019 0.0383,0.0372 0.0579,0.0553 h -0.32711 z"
       style="font-weight:300;font-size:53.3333px;line-height:1;font-family:Raleway;-inkscape-font-specification:'Raleway Light';white-space:pre;fill:#0000ce;fill-opacity:1;stroke-width:2.5"
       id="path21" />
  </g>
</svg>
