<?xml version="1.0" encoding="UTF-8" standalone="no"?>
<!-- Created with Inkscape (http://www.inkscape.org/) -->

<svg
   width="303.92282"
   height="58.626831"
   viewBox="0 0 80.412908 15.511681"
   version="1.1"
   id="svg1"
   xmlns="http://www.w3.org/2000/svg"
   xmlns:svg="http://www.w3.org/2000/svg">
  <defs
     id="defs1" />
  <g
     id="layer1"
     transform="translate(-141.70145,-106.55729)">
    <g
       id="g1"
       transform="matrix(0.30276405,0,0,0.30276405,109.18512,96.146079)">
      <path
         d="m 120.85891,37.458336 5.62808,9.87278 -3.00396,1.71256 -5.55263,-9.73997 a 25.625475,25.625473 0 0 0 -5.43946,5.37693 l 10.87841,19.08204 -3.00395,1.71255 -9.96994,-17.48885 a 25.625475,25.625473 0 0 0 -2.99723,12.02614 25.625475,25.625473 0 0 0 0.004,0.42995 l 5.5485,-3.03496 1.65933,3.03392 -6.86728,3.75636 a 25.625475,25.625473 0 0 0 3.38842,9.13278 l 17.65784,-10.07432 1.71359,3.00343 -17.36897,9.90948 a 25.625475,25.625473 0 0 0 18.942,9.45162 l -7.36699,-12.92273 3.00395,-1.71256 8.25634,14.48284 a 25.625475,25.625473 0 0 0 7.51324,-2.06189 l -15.94165,-27.55387 2.80086,-1.58492 15.99334,27.64224 a 25.625475,25.625473 0 0 0 12.31502,-21.89737 25.625475,25.625473 0 0 0 -1.59164,-8.89042 l -19.68924,11.23394 -1.71359,-3.00343 19.97915,-11.3993 a 25.625475,25.625473 0 0 0 -6.3004,-7.70547 l -27.46395,15.7148 -1.572,-2.8081 26.15603,-14.96653 a 25.625475,25.625473 0 0 0 -13.43019,-3.8008 25.625475,25.625473 0 0 0 -12.16463,3.07113 z"
         style="opacity:1;fill:#4d677c;fill-opacity:1;stroke:none;stroke-width:0.871969"
         id="path23" />
      <path
         style="fill:#000000"
         d="m 200.12096,65.21719 4.59655,-10.39376 1.24895,-2.837123 1.24894,-2.837123 0.18208,0.19129 0.18208,0.191289 1.57599,3.571875 1.576,3.571875 2.97924,6.614583 2.97923,6.614583 1.15242,2.610341 1.15242,2.610342 -0.14457,0.233929 -0.14458,0.23393 h -2.31061 -2.31061 l -0.89138,-2.386932 -0.89139,-2.386931 -4.91003,0.07183 -4.91002,0.07183 -0.82508,2.248959 -0.82507,2.248958 -2.65355,0.07501 -2.65356,0.07501 z m 10.1503,1.415641 9.8e-4,-0.167735 -1.35257,-3.373437 -1.35257,-3.373438 h -0.20896 -0.20896 l -1.44252,3.373438 -1.44251,3.373437 0.11579,0.210616 0.11578,0.210616 2.88728,-0.04288 2.88727,-0.04288 z m 15.08026,-4.423434 V 48.825551 l 5.75469,0.10047 5.75469,0.100471 1.56894,0.620167 1.56894,0.620168 1.507,1.48454 1.50699,1.48454 0.61175,1.5875 0.61174,1.5875 v 2.513541 2.513542 l -0.61952,1.5793 -0.61951,1.5793 -1.41026,1.410254 -1.41025,1.410254 -1.26104,0.581941 -1.26103,0.581941 -3.96875,0.132671 -3.96875,0.132672 v 3.373709 3.373709 l -2.18281,-2.71e-4 -2.18282,-2.72e-4 z m 12.35653,1.693778 1.07218,-0.709838 0.69398,-1.392632 0.69398,-1.392633 v -1.231485 -1.231485 l -0.30112,-0.899378 -0.30113,-0.899378 -0.65556,-0.882422 -0.65557,-0.882422 -0.82925,-0.505651 -0.82924,-0.505652 -3.50573,-9.89e-4 -3.50573,-9.89e-4 v 5.512153 5.512153 l 0.19843,0.200317 0.19844,0.200316 3.32707,-0.09007 3.32707,-0.09007 z m 17.36258,11.30918 -1.10486,-0.345467 -0.87952,-0.546821 -0.87952,-0.54682 -1.08376,-1.140534 -1.08376,-1.140534 -0.60007,-1.006104 -0.60006,-1.006105 0.0963,-0.08084 0.0963,-0.08084 2.1059,-0.699431 2.10591,-0.699431 0.21453,0.383356 0.21454,0.383355 0.6894,0.819312 0.68941,0.819313 1.07594,0.548906 1.07595,0.548905 1.24982,0.01885 1.24982,0.01886 1.01439,-0.463771 1.01439,-0.463772 0.50573,-0.684997 0.50572,-0.684998 0.11317,-1.21653 0.11316,-1.216531 -0.62671,-0.922012 -0.62672,-0.922013 -1.03611,-0.581193 -1.03612,-0.581193 -1.73418,-0.289278 -1.73419,-0.289278 -1.50371,-0.548281 -1.5037,-0.54828 -1.11192,-0.951762 -1.11192,-0.951761 -0.48742,-1.073099 -0.48742,-1.073099 -0.003,-1.852084 -0.003,-1.852083 0.62073,-1.332998 0.62073,-1.332998 1.26741,-1.115623 1.26742,-1.115624 1.33229,-0.395649 1.3323,-0.395649 2.0025,0.0026 2.00249,0.0026 1.34022,0.624072 1.34022,0.624072 0.99041,0.869593 0.99041,0.869592 0.80095,1.164136 0.80095,1.164137 -0.12274,0.319848 -0.12274,0.319848 -1.90526,0.61363 -1.90526,0.61363 -0.36756,-0.48501 -0.36756,-0.485009 -0.008,-0.204265 -0.008,-0.204265 -1.24242,-0.787922 -1.24243,-0.787923 h -1.15196 -1.15197 l -0.75725,0.391588 -0.75724,0.391589 -0.55253,0.702426 -0.55253,0.702426 v 0.963781 0.96378 l 0.41294,0.589549 0.41293,0.589549 0.79445,0.410825 0.79445,0.410825 2.2651,0.366673 2.26509,0.366672 1.32743,0.477336 1.32743,0.477337 1.13319,0.997469 1.13318,0.99747 0.48305,1.251915 0.48305,1.251914 -0.002,1.984375 -0.002,1.984375 -0.70764,1.513506 -0.70764,1.513506 -1.21653,1.182336 -1.21654,1.182336 -1.45745,0.545304 -1.45745,0.545304 -2.17289,-0.0177 -2.17289,-0.0177 z M 280.12027,64.487589 V 53.381981 l -4.03489,-0.07304 -4.0349,-0.07304 V 51.11924 49.002574 l 10.2526,-0.06925 10.25261,-0.06925 v 2.252065 2.252065 h -4.10104 -4.10105 v 11.1125 11.1125 h -2.11666 -2.11667 z m 27.64896,10.934685 -0.79375,-0.118915 -1.45521,-0.407717 -1.45521,-0.407717 -1.53955,-0.816845 -1.53956,-0.816845 -1.37086,-1.353861 -1.37086,-1.35386 -0.75855,-1.404208 -0.75854,-1.404208 -0.3628,-1.362554 -0.36279,-1.362554 -0.003,-2.391807 -0.003,-2.391808 0.39975,-1.534726 0.39974,-1.534727 0.71472,-1.232841 0.71472,-1.232841 1.34346,-1.322917 1.34347,-1.322916 1.57696,-0.83762 1.57697,-0.83762 1.71979,-0.448968 1.71979,-0.448969 2.38125,0.139548 2.38125,0.139547 1.76708,0.644335 1.76708,0.644334 1.34841,0.865277 1.34842,0.865276 0.92681,1.082777 0.92682,1.082776 0.62373,1.332779 0.62373,1.332778 0.2949,1.402085 0.2949,1.402086 v 2.180346 2.180347 l -0.40935,1.576943 -0.40934,1.576942 -0.61602,1.322917 -0.61602,1.322917 -0.95576,1.096592 -0.95576,1.096593 -1.40659,0.933643 -1.40659,0.933644 -1.57322,0.528371 -1.57323,0.528371 -1.85208,0.127368 -1.85208,0.127368 z m 4.68168,-4.732189 1.24209,-0.428295 1.20948,-1.06463 1.20949,-1.064629 0.66548,-1.135568 0.66549,-1.135568 0.40503,-1.942522 0.40502,-1.942522 -0.18067,-1.327514 -0.18067,-1.327514 -0.54431,-1.162819 -0.54431,-1.16282 -0.92158,-0.921586 -0.92159,-0.921586 -1.74323,-0.82312 -1.74324,-0.823121 -2.24895,0.0093 -2.24896,0.0093 -1.39183,0.61691 -1.39183,0.616911 -1.42122,1.535082 -1.42121,1.535082 -0.4281,1.256403 -0.4281,1.256402 v 2.022401 2.022402 l 0.42122,1.236223 0.42122,1.236224 1.1778,1.309989 1.17779,1.309989 0.96759,0.598003 0.96759,0.598004 1.20371,0.341035 1.2037,0.341035 1.5875,-0.119278 1.5875,-0.119278 z m 17.67957,-8.38107 0.004,-13.306441 7.39101,7.540624 7.391,7.540625 0.0134,-7.6179 0.0134,-7.6179 2.05053,0.07728 2.05052,0.07728 0.0686,13.030728 0.0686,13.030729 h -0.28482 -0.28483 l -7.05985,-7.033711 -7.05986,-7.03371 -0.13229,7.232148 -0.13229,7.232148 -2.05052,0.07728 -2.05052,0.07728 z m 28.21826,13.107794 -0.17639,-0.176389 V 62.055351 48.870282 h 7.40833 7.40834 v 0.1568 0.1568 l -0.69577,1.959867 -0.69577,1.959866 h -4.46361 -4.4636 v 3.571875 3.571875 h 3.70416 3.70417 v 2.248958 2.248958 h -3.70417 -3.70416 v 3.307292 3.307291 l 4.82864,0.0041 4.82865,0.0041 0.33331,0.211599 0.33332,0.211598 -0.50459,1.437996 -0.50458,1.437996 -0.18777,0.463021 -0.18777,0.463021 h -6.54217 -6.54218 z m -180.75796,-0.564118 -1.32637,-0.458649 -1.19088,-0.697901 -1.19088,-0.697901 -1.35846,-1.436374 -1.35846,-1.436375 -0.65885,-1.301042 -0.65884,-1.301043 -0.43351,-1.455208 -0.43352,-1.455208 -0.008,-2.410249 -0.008,-2.410248 0.567,-1.690793 0.567,-1.690793 0.55918,-0.926042 0.55918,-0.926042 0.80737,-1.027184 0.80738,-1.027184 1.83994,-1.29671 1.83995,-1.296709 1.82536,-0.554437 1.82537,-0.554437 2.55239,0.131286 2.5524,0.131286 1.71979,0.704621 1.71979,0.704622 1.25678,0.920515 1.25677,0.920515 v 0.337196 0.337197 l -1.43221,1.414418 -1.43221,1.414418 -0.80346,-0.572114 -0.80346,-0.572114 -1.50378,-0.688452 -1.50377,-0.688451 -1.75066,-0.02641 -1.75066,-0.02641 -1.48696,0.693028 -1.48696,0.693027 -1.04297,0.942256 -1.04296,0.942256 -0.68453,1.27094 -0.68453,1.27094 -0.30272,1.486142 -0.30273,1.486143 0.26577,1.650264 0.26577,1.650264 0.58518,1.208822 0.58518,1.208822 1.0016,1.001606 1.00161,1.001606 1.08741,0.554753 1.0874,0.554754 1.24932,0.147963 1.24932,0.147963 1.57686,-0.318577 1.57685,-0.318578 1.95424,-0.92959 1.95424,-0.92959 1.48534,1.497561 1.48535,1.49756 -0.79375,0.655196 -0.79375,0.655195 -1.60681,0.776087 -1.60681,0.776086 -1.55763,0.405711 -1.55763,0.405711 -2.39181,-0.0086 -2.39181,-0.0086 z"
         id="path24" />
    </g>
  </g>
</svg>
