<?xml version="1.0" encoding="UTF-8" standalone="no"?>
<!-- Created with Inkscape (http://www.inkscape.org/) -->

<svg
   width="219.71579"
   height="77.798492"
   viewBox="0 0 58.133133 20.584183"
   version="1.1"
   id="svg1"
   xmlns="http://www.w3.org/2000/svg"
   xmlns:svg="http://www.w3.org/2000/svg">
  <defs
     id="defs1" />
  <g
     id="layer1"
     transform="translate(-152.54935,-77.893575)">
    <g
       id="g2"
       transform="matrix(0.36758248,0,0,0.36758248,109.96063,29.399291)">
      <g
         id="g3">
        <path
           style="fill:#09528c;fill-opacity:1;stroke-width:0.464525"
           d="m 138.25604,185.16415 c -1.14917,-1.21293 -2.08939,-2.25392 -2.08939,-2.31333 0,-0.10403 13.06194,-13.91204 13.16036,-13.91204 0.0463,0 1.9697,1.98115 3.60394,3.71225 l 0.77786,0.82397 -3.48614,3.6663 c -1.91738,2.01646 -4.89136,5.14387 -6.60885,6.9498 -1.71749,1.80594 -3.15549,3.28236 -3.19555,3.28094 -0.04,-0.002 -1.01306,-0.99497 -2.16223,-2.20789 z m -7.70214,-8.08534 -2.17138,-2.29197 1.21348,-1.29553 c 0.66742,-0.71254 1.92107,-2.02865 2.78591,-2.92468 l 1.57244,-1.62915 2.08939,2.22067 c 1.14916,1.22137 2.10706,2.27022 2.12867,2.33077 0.0305,0.0855 -2.62867,2.96275 -5.18735,5.61281 l -0.25977,0.26905 z m -6.1862,-6.48414 c -0.27038,-0.29947 -1.2254,-1.31429 -2.12225,-2.25515 l -1.63064,-1.71065 6.59203,-6.92607 c 3.62561,-3.80933 6.63155,-6.94141 6.67988,-6.96016 0.12532,-0.0487 4.3293,4.39488 4.28398,4.52808 -0.0578,0.16993 -13.12769,13.88122 -13.2254,13.87443 -0.0473,-0.003 -0.30719,-0.251 -0.5776,-0.55048 z m 17.45207,-5.33636 c -1.14888,-1.21311 -2.08887,-2.2593 -2.08887,-2.32488 0,-0.0656 1.46566,-1.65775 3.257,-3.53817 1.79135,-1.88043 3.94835,-4.15053 4.79332,-5.04466 l 1.53632,-1.62569 2.17631,2.23822 c 1.19697,1.23102 2.17812,2.26586 2.18034,2.29966 0.002,0.0339 -0.94237,1.05699 -2.09907,2.27375 -1.1567,1.21677 -3.32082,3.4982 -4.80915,5.06986 -1.48833,1.57165 -2.74009,2.85756 -2.7817,2.85756 -0.0416,0 -1.01563,-0.99254 -2.1645,-2.20565 z m 15.48144,-0.0105 c -1.14631,-1.22315 -2.10137,-2.27191 -2.12235,-2.3306 -0.0402,-0.11249 12.96619,-13.88905 13.1126,-13.88905 0.10451,0 4.31669,4.37416 4.31669,4.48267 0,0.0643 -10.49285,11.15832 -12.59045,13.31177 l -0.63228,0.6491 z m 21.45222,-20.02972 v -13.2738 h 2.39666 2.39665 v 5.53075 5.53075 h 2.70393 2.70392 v -5.53075 -5.53075 h 2.45811 2.45811 v 13.2738 13.2738 h -2.45811 -2.45811 v -6.02237 -6.02237 h -2.70392 -2.70393 v 6.02237 6.02237 h -2.39665 -2.39666 z m 19.29617,0 v -13.2738 h 2.39666 2.39666 v 13.2738 13.2738 h -2.39666 -2.39666 z m 11.55313,1.78212 v -11.49167 h -2.15085 -2.15085 v -1.78213 -1.78213 h 6.6369 6.6369 v 1.78213 1.78213 h -2.08939 -2.0894 v 11.49167 11.49168 h -2.39665 -2.39666 z m 11.43022,-1.78212 v -13.2738 h 2.39666 2.39665 v 5.73559 c 0,3.15458 0.0404,5.69521 0.0898,5.64585 0.0493,-0.0494 1.22691,-2.61656 2.61677,-5.70488 l 2.52703,-5.61511 2.29945,-0.0335 c 1.26469,-0.0184 2.29944,3e-5 2.29944,0.0409 0,0.0409 -1.11707,2.68055 -2.48237,5.86586 -1.36531,3.18532 -2.47289,5.87696 -2.4613,5.98143 0.0116,0.10447 1.25975,3.42543 2.77369,7.37992 l 2.75259,7.18998 -2.28473,0.0336 c -1.25661,0.0184 -2.34476,0.0105 -2.41811,-0.0177 -0.0733,-0.0281 -1.1224,-2.7402 -2.33125,-6.02677 -1.20883,-3.28659 -2.23872,-5.93341 -2.28863,-5.88184 -0.0499,0.0516 -0.3161,0.49305 -0.59154,0.98106 l -0.5008,0.8873 v 5.0429 5.0429 h -2.39665 -2.39666 z m 16.10063,13.17996 c 0,-0.0981 5.1074,-25.69488 5.22322,-26.17722 0.0663,-0.27586 0.0728,-0.27655 2.63679,-0.27655 2.38229,0 2.57562,0.0165 2.64174,0.22479 0.10141,0.31951 5.23016,25.97966 5.23016,26.16753 0,0.11936 -0.51179,0.15529 -2.2123,0.15529 -1.21676,0 -2.21505,-0.0138 -2.21841,-0.0307 -0.003,-0.0169 -0.24108,-1.38576 -0.52826,-3.04192 l -0.52214,-3.01119 h -2.32328 -2.32329 l -0.33694,1.90504 c -0.18532,1.04777 -0.4282,2.41663 -0.53973,3.04191 l -0.20277,1.13688 h -2.2624 c -1.24432,0 -2.26239,-0.0422 -2.26239,-0.0938 z m 9.66069,-9.46207 c -0.129,-0.63768 -1.67183,-10.30103 -1.67183,-10.47135 0,-0.0936 -0.0309,-0.13933 -0.0687,-0.10157 -0.0658,0.0658 -1.77492,10.41608 -1.77492,10.74903 0,0.1265 0.39161,0.16188 1.79189,0.16188 h 1.7919 z m 8.65224,-3.72623 v -13.28213 l 4.39388,0.0457 c 3.66003,0.0381 4.55808,0.0826 5.37711,0.2663 2.6685,0.5986 4.15558,2.01704 4.67252,4.45681 0.23194,1.09469 0.23087,3.66307 -0.002,4.76225 -0.36523,1.72397 -1.26119,3.06144 -2.45332,3.66226 -0.27309,0.13764 -0.50776,0.25929 -0.52149,0.27034 -0.0137,0.0111 0.0537,0.29462 0.14989,0.63015 0.86311,3.01134 3.50078,12.3639 3.50078,12.41293 0,0.0344 -1.09117,0.0477 -2.42482,0.0293 l -2.42484,-0.0333 -1.59304,-6.0531 -1.59305,-6.0531 h -1.14415 -1.14416 v 6.08383 6.08382 h -2.39666 -2.39666 z m 8.25982,-2.26679 c 0.77316,-0.27049 1.38283,-0.9613 1.64845,-1.86786 0.27535,-0.93973 0.26911,-2.82745 -0.0126,-3.79629 -0.25956,-0.89286 -0.98815,-1.67888 -1.74516,-1.88272 -0.52306,-0.14085 -2.92792,-0.26313 -3.20363,-0.1629 -0.11861,0.0431 -0.15363,0.96744 -0.15363,4.05521 v 3.99936 l 1.44414,-0.0712 c 0.84282,-0.0416 1.6849,-0.15549 2.02236,-0.27354 z m 10.17601,2.27513 v -13.2738 h 2.39666 2.39666 v 13.2738 13.2738 h -2.39666 -2.39666 z m -132.06204,3.78694 c -1.14917,-1.21645 -2.10537,-2.25456 -2.12488,-2.30691 -0.0195,-0.0523 1.28021,-1.47371 2.88828,-3.15859 1.60807,-1.68489 4.55167,-4.77569 6.54133,-6.86845 1.98966,-2.09275 3.65312,-3.82024 3.69657,-3.83886 0.1468,-0.063 4.32636,4.39806 4.26468,4.55183 -0.0589,0.1468 -13.09069,13.86869 -13.1483,13.84457 -0.0156,-0.007 -0.96851,-1.00713 -2.11768,-2.22359 z m 15.44135,0.0193 c -1.16754,-1.22092 -2.10521,-2.27043 -2.08372,-2.33225 0.0433,-0.12459 2.5947,-2.86777 4.32,-4.64477 l 1.10956,-1.14281 2.09808,2.17512 c 1.15394,1.19632 2.1133,2.23602 2.13191,2.31046 0.0314,0.12562 -5.14317,5.7492 -5.3567,5.8215 -0.053,0.0179 -1.05159,-0.96631 -2.21913,-2.18725 z"
           id="path2"
           transform="translate(-4.6640859)" />
        <path
           style="fill:#bb2e2e;fill-opacity:1;stroke-width:0.464525"
           d="m 234.8851,187.68953 c -1.22919,-0.30219 -2.12404,-0.78929 -2.92953,-1.59463 -0.84465,-0.84451 -1.41574,-1.94714 -1.80205,-3.4793 -0.28631,-1.13548 -0.28853,-1.19945 -0.28853,-8.27286 0,-6.92996 0.008,-7.16027 0.27178,-8.26859 0.38396,-1.61064 0.91155,-2.64865 1.77822,-3.49862 1.36489,-1.33856 2.59166,-1.73748 5.32433,-1.73138 1.49316,0.003 2.02846,0.0543 2.81624,0.26821 1.6656,0.45223 2.71309,1.22382 3.39286,2.4992 0.70363,1.32013 0.88452,2.22288 0.94972,4.73953 l 0.0581,2.24303 h -2.28722 -2.28724 l -0.004,-1.56704 c -0.009,-3.77346 -0.41734,-4.5956 -2.32481,-4.68222 -1.84711,-0.0839 -2.57004,0.56988 -2.83319,2.56209 -0.0927,0.70177 -0.12493,3.36458 -0.0982,8.11178 0.0393,6.98746 0.043,7.07477 0.31504,7.75111 0.46734,1.16147 1.08325,1.5897 2.2864,1.5897 0.93173,0 1.361,-0.13747 1.83182,-0.58665 0.55343,-0.52799 0.71663,-1.31152 0.79297,-3.80721 l 0.0686,-2.24304 h 2.27112 2.27111 l -0.0611,2.30448 c -0.0687,2.58984 -0.27895,3.66613 -0.96926,4.96128 -0.46536,0.8731 -1.5181,1.8793 -2.38026,2.27503 -1.45808,0.66927 -4.35841,0.86978 -6.16314,0.4261 z m -61.0036,-13.40824 v -13.2738 h 2.39666 2.39665 v 5.5922 5.5922 h 2.70393 2.70392 v -5.5922 -5.5922 h 2.38351 c 1.79772,0 2.39602,0.0378 2.43441,0.15363 0.028,0.0845 0.0478,6.04388 0.0439,13.24307 l -0.007,13.08945 -2.42738,0.0333 -2.42738,0.0333 v -5.96352 -5.96352 h -2.70393 -2.70392 v 5.96092 5.96093 h -2.39666 -2.39666 z m 19.29617,-0.003 v -13.27648 l 2.36594,0.0334 2.36593,0.0334 0.0313,13.24307 0.0313,13.24308 h -2.39721 -2.39721 z m 11.52303,1.8155 -0.0314,-11.46094 -2.12348,-0.0336 -2.12348,-0.0336 0.0341,-1.7485 0.0341,-1.74848 6.60618,-0.0317 6.60617,-0.0317 v 1.7832 1.7832 h -2.0894 -2.08939 v 11.49167 11.49167 h -2.39602 -2.39604 z m 11.46032,-1.81285 v -13.27381 h 5.53075 5.53075 v 1.72069 1.72067 h -3.1341 -3.13409 v 3.81008 3.81007 h 2.45811 2.45812 v 1.72068 1.72067 h -2.45812 -2.45811 v 4.36315 4.36315 h 3.19555 3.19554 v 1.65922 1.65923 h -5.5922 -5.5922 z m 31.83254,-0.003 v -13.27645 l 2.36593,0.0334 2.36593,0.0334 0.032,5.56148 0.032,5.56148 h 2.70266 2.70268 v -5.5922 -5.59221 h 2.39665 2.39666 v 13.27381 13.2738 h -2.39666 -2.39665 v -5.96069 -5.96092 h -2.70392 -2.70393 v 5.96092 5.96092 h -2.39665 -2.39667 z m -98.83148,-2.2014 c -3.60803,-3.79579 -6.57304,-6.94049 -6.58891,-6.98824 -0.0159,-0.0478 0.952,-1.09697 2.15085,-2.33162 l 2.17971,-2.24481 6.51248,6.87998 c 3.58188,3.78399 6.53202,6.93854 6.55586,7.01009 0.0239,0.0715 -0.74541,0.94468 -1.70949,1.94028 -0.96407,0.99559 -1.93006,1.99592 -2.14665,2.22296 l -0.39378,0.41279 z m 11.50359,-4.07823 c -1.48525,-1.56396 -2.71228,-2.87804 -2.72674,-2.92017 -0.0144,-0.0421 0.95341,-1.08797 2.15084,-2.32408 l 2.17715,-2.24748 2.51956,2.67028 c 1.38576,1.46865 2.61797,2.79498 2.73825,2.94741 0.21815,0.27647 0.2136,0.2824 -1.89092,2.46548 -1.16028,1.20359 -2.14517,2.2027 -2.18866,2.22024 -0.0435,0.0175 -1.29425,-1.24772 -2.77948,-2.81168 z m -30.5217,-15.89714 c -3.60722,-3.80738 -6.55094,-6.96991 -6.54162,-7.02785 0.0271,-0.16779 4.20931,-4.48315 4.30612,-4.44315 0.18716,0.0773 13.15747,13.8008 13.12756,13.88983 -0.0511,0.15204 -4.174,4.52151 -4.25757,4.51218 -0.0418,-0.005 -3.02727,-3.12363 -6.63449,-6.93101 z m 17.20475,1.89559 c -2.64448,-2.78171 -4.80815,-5.10227 -4.80815,-5.15679 0,-0.0839 2.26139,-2.52024 3.79763,-4.09141 l 0.45488,-0.46522 4.42698,4.64516 c 2.43483,2.55483 4.60863,4.85203 4.83064,5.1049 l 0.40367,0.45975 -0.40257,0.4609 c -0.22141,0.25349 -1.18835,1.27978 -2.14875,2.28063 l -1.74618,1.81975 z m -13.39669,-14.08443 -2.75053,-2.87774 0.71993,-0.7652 c 0.39596,-0.42085 1.37665,-1.45653 2.1793,-2.30151 l 1.45938,-1.53632 0.6201,0.67598 c 0.34106,0.37179 1.586,1.68463 2.76654,2.91743 l 2.14643,2.24144 -2.18175,2.27534 c -1.19997,1.25143 -2.18786,2.26925 -2.19532,2.26183 -0.008,-0.008 -1.25129,-1.30849 -2.76408,-2.89125 z"
           id="path1" />
        <path
           style="fill:#1c8310;fill-opacity:1;stroke-width:0.464525"
           d="m 145.373,184.54042 c -1.50282,-1.5625 -2.7324,-2.89682 -2.7324,-2.96515 0,-0.10453 0.84246,-1.01034 3.86418,-4.15479 l 0.38728,-0.403 2.69831,2.83243 c 1.48408,1.55783 2.71101,2.90064 2.72652,2.98401 0.0155,0.0834 -0.92574,1.14065 -2.09165,2.3495 l -2.11986,2.1979 z m -13.36373,-14.0255 c -2.63632,-2.78214 -4.79331,-5.10569 -4.79331,-5.16344 0,-0.12974 4.11034,-4.48897 4.23267,-4.48897 0.0901,0 9.63352,9.97553 9.68271,10.1211 0.0149,0.044 -0.953,1.09474 -2.15085,2.3349 l -2.1779,2.25484 z m -13.37218,-14.08773 -2.77542,-2.92257 1.45802,-1.5445 c 0.80192,-0.84947 1.78472,-1.86523 2.184,-2.25724 l 0.72598,-0.71275 2.3191,2.43343 c 1.27551,1.33838 2.51082,2.63862 2.74515,2.88942 l 0.42604,0.456 -0.5369,0.5887 c -0.29529,0.32378 -1.26447,1.35445 -2.15372,2.29038 l -1.61683,1.7017 z"
           id="path2-9" />
      </g>
    </g>
  </g>
</svg>
