<?xml version="1.0" encoding="UTF-8" standalone="no"?>
<!-- Created with Inkscape (http://www.inkscape.org/) -->

<svg
   width="448"
   height="150"
   viewBox="0 0 448 150"
   version="1.1"
   id="svg1"
   xml:space="preserve"
   sodipodi:docname="L1.svg"
   inkscape:version="1.4.3 (0d15f75042, 2025-12-25)"
   xmlns:inkscape="http://www.inkscape.org/namespaces/inkscape"
   xmlns:sodipodi="http://sodipodi.sourceforge.net/DTD/sodipodi-0.dtd"
   xmlns="http://www.w3.org/2000/svg"
   xmlns:svg="http://www.w3.org/2000/svg"><sodipodi:namedview
     id="namedview1"
     pagecolor="#505050"
     bordercolor="#eeeeee"
     borderopacity="1"
     inkscape:showpageshadow="0"
     inkscape:pageopacity="0"
     inkscape:pagecheckerboard="0"
     inkscape:deskcolor="#505050"
     showguides="false"
     inkscape:zoom="1.7706469"
     inkscape:cx="235.50715"
     inkscape:cy="74.831408"
     inkscape:window-width="1920"
     inkscape:window-height="1011"
     inkscape:window-x="0"
     inkscape:window-y="0"
     inkscape:window-maximized="1"
     inkscape:current-layer="layer1" /><defs
     id="defs1"><clipPath
       clipPathUnits="userSpaceOnUse"
       id="clipPath39"><path
         d="M 0,162 H 270 V 0 H 0 Z"
         transform="translate(-215.3755,-66.197304)"
         id="path39" /></clipPath></defs><g
     id="layer1"
     transform="translate(-650.76341,199.41488)"><path
       d="m 727.21429,-50.902681 q 8.342,0 22.21057,-3.12825 13.97285,-3.12825 30.0312,-19.812249 l 11.2617,19.812249 h 31.2825 l -14.70278,-79.248999 h -62.9821 v 28.15425 h 18.14385 q -9.28047,11.05315 -22.21057,13.242925 -3.85817,0.62565 -7.61207,0.62565 -8.86338,0 -18.87378,-4.275275 -10.0104,-4.37955 -15.95407,-15.11988 -3.23253,-5.94367 -3.23253,-13.13865 0,-5.8394 2.18978,-12.513 5.4223,-13.66002 18.66522,-18.7695 8.65483,-3.44107 17.9353,-3.44107 4.79665,0 14.5985,1.87695 9.80185,1.77267 19.29087,11.88735 l 3.85818,-3.96245 q 3.54535,-3.7539 6.46505,-6.98643 1.45985,-1.56412 2.71115,-2.9197 1.35557,-1.45985 2.39832,-2.71115 1.14703,-1.2513 2.18978,-2.39832 2.0855,-2.29405 4.79665,-5.73513 l 1.2513,-1.45985 q 1.56412,-1.77267 2.29405,-3.02397 0.52137,-0.8342 0.8342,-1.35558 0.4171,-0.52137 0.4171,-0.72992 0,-0.20855 0,-0.20855 0.10427,-0.10428 0.10427,-0.20855 -16.78827,-14.1814 -37.74755,-19.49943 -12.40872,-3.12825 -24.81744,-3.12825 -8.44628,0 -23.04478,2.60688 -14.5985,2.60687 -30.8654,15.4327 -16.16262,12.82582 -23.46187,34.72357 -3.54535,11.78308 -3.54535,22.73195 0,9.38475 4.06672,23.25333 4.171,13.7643 18.24813,27.215775 14.07712,13.451474 32.74235,19.082324 10.4275,3.12825 21.06355,3.12825 z m 154.53549,0.104275 -2.3983,-42.335649 h 12.7215 q 10.4275,0 21.8978,-0.938475 11.5745,-0.938475 22.3148,-5.8394 10.8446,-4.90093 17.9353,-16.2669 7.8206,-13.3472 7.8206,-27.5286 0,-1.45985 -0.5213,-10.11468 -0.5214,-8.7591 -9.9062,-21.16782 -9.2804,-12.513 -26.173,-17.30965 -14.0771,-3.54535 -32.0124,-4.06673 -11.9916,-0.4171 -23.9833,-0.4171 l -12.0959,0.10428 -17.7267,0.10427 v 145.776454 z m 27.1115,-79.457554 h -29.5098 v -26.48585 q 0,-0.10427 2.8154,-0.10427 h 14.9113 l 9.5933,0.10427 q 6.6736,0 10.5318,2.71115 5.9437,4.171 5.9437,10.8446 0,1.77268 -0.8342,4.69238 -0.8342,2.81542 -4.3796,5.52657 -3.4411,2.71115 -9.0719,2.71115 z m 189.57202,80.500304 v -36.913349 h -72.9925 v -18.352405 h 68.613 l 0.1043,-23.25332 v -12.513 h -67.6745 v -19.49943 h 71.9497 v -37.9561 l -116.37092,1.04275 v 146.297829 z"
       id="text1"
       style="font-weight:bold;font-size:192px;font-family:'Chicoree Em.';-inkscape-font-specification:'Chicoree Em. Bold';white-space:pre;fill:#f2f2f2;stroke:#ffffff;stroke-width:0.677377;fill-opacity:1"
       aria-label="GPE" /></g></svg>
