<?xml version="1.0" encoding="UTF-8" standalone="no"?>
<!-- Created with Inkscape (http://www.inkscape.org/) -->

<svg
   width="134.43134"
   height="128.54781"
   viewBox="0 0 35.568289 34.011605"
   version="1.1"
   id="svg1"
   xmlns="http://www.w3.org/2000/svg"
   xmlns:svg="http://www.w3.org/2000/svg">
  <defs
     id="defs1">
    <clipPath
       clipPathUnits="userSpaceOnUse"
       id="clipPath39">
      <path
         d="M 0,162 H 270 V 0 H 0 Z"
         transform="translate(-215.3755,-66.197304)"
         id="path39" />
    </clipPath>
  </defs>
  <g
     id="layer1"
     transform="translate(-192.76603,-78.158162)">
    <path
       id="path38"
       d="m 0,0 -1.536,0.601 -3.112,1.71 -2.878,2.101 -2.619,2.451 -2.35,2.742 -2.089,2.963 -1.851,3.113 -1.647,3.192 -1.489,3.209 -1.375,3.18 -1.305,3.12 -1.27,3.044 -1.262,2.967 -1.269,2.897 -1.284,2.844 -1.299,2.806 -1.312,2.789 -1.314,2.788 -1.303,2.805 -1.269,2.839 -1.204,2.886 -1.105,2.944 -0.972,3.005 -0.804,3.064 -0.614,3.114 -0.407,3.151 -0.202,3.174 -0.009,3.181 0.129,3.178 0.207,3.176 0.085,1.042 m 105.635,-7.039 -0.18,-1.3 -0.253,-1.29 -0.321,-1.267 -0.392,-1.239 -0.461,-1.206 -0.531,-1.169 -0.601,-1.125 -0.666,-1.078 -0.729,-1.027 -0.788,-0.969 -0.843,-0.909 -0.892,-0.846 -0.936,-0.78 -0.972,-0.713 -1.002,-0.645 -1.026,-0.576 -1.042,-0.509 -1.051,-0.443 -1.055,-0.38 -1.052,-0.32 -1.044,-0.264 -1.03,-0.211 -1.013,-0.164 -0.991,-0.121 -0.969,-0.082 -0.942,-0.048 -0.916,-0.019 -0.889,0.006 -0.861,0.028 -0.835,0.047 -0.81,0.063 -0.785,0.078 -0.763,0.091 -0.742,0.104 -0.722,0.117 -0.704,0.131 -0.688,0.146 -0.671,0.164 -0.655,0.183 m 32.865,11.227 -0.192,-0.502 -0.594,-1.307 -0.674,-1.258 -0.751,-1.204 -0.826,-1.143 -0.896,-1.079 -0.96,-1.007 -1.019,-0.934 -1.069,-0.857 -1.112,-0.777 -1.146,-0.698 -1.172,-0.618 -1.19,-0.539 -1.199,-0.464 -1.2,-0.39 -1.193,-0.323 -1.179,-0.259 -1.16,-0.202 -1.137,-0.15 -1.108,-0.104 -1.076,-0.065 -1.044,-0.031 -1.01,-0.003 -0.977,0.02 -0.942,0.039 -0.912,0.054 -0.882,0.068 -0.854,0.078 -0.829,0.089 -0.806,0.098 -0.786,0.111 -0.767,0.123 -0.75,0.139 -0.734,0.157 -0.719,0.18 m 33.944,7.758 -0.106,-0.168 -0.918,-1.261 -1,-1.186 -1.074,-1.105 -1.142,-1.02 -1.203,-0.932 -1.251,-0.84 -1.291,-0.748 -1.32,-0.657 -1.338,-0.567 -1.346,-0.48 -1.345,-0.399 -1.334,-0.322 -1.315,-0.253 -1.288,-0.19 -1.257,-0.136 -1.22,-0.089 -1.181,-0.051 -1.14,-0.018 -1.1,0.007 -1.058,0.025 -1.019,0.04 -0.983,0.051 -0.949,0.058 -0.92,0.065 -0.892,0.071 -0.87,0.079 -0.849,0.088 -0.831,0.1 L 37.671,58 36.87,58.137 36.083,58.3 m 34.498,5.386 -0.857,-0.87 -1.263,-1.105 -1.332,-1.003 -1.387,-0.901 -1.434,-0.797 -1.465,-0.692 -1.486,-0.591 -1.492,-0.495 -1.488,-0.403 -1.471,-0.321 -1.447,-0.245 -1.412,-0.179 -1.372,-0.123 -1.327,-0.077 -1.28,-0.04 -1.229,-0.013 -1.181,0.008 -1.133,0.02 -1.089,0.028 -1.048,0.032 -1.012,0.034 -0.98,0.034 -0.954,0.036 -0.931,0.04 -0.912,0.048 -0.897,0.059 -0.885,0.077 -0.873,0.1 -0.861,0.131 M 70.832,60.351 69.571,59.419 68.05,58.461 66.48,57.62 64.873,56.894 63.245,56.281 61.611,55.774 59.985,55.368 58.38,55.052 56.807,54.815 55.277,54.646 53.796,54.533 52.37,54.464 51,54.428 49.69,54.413 48.436,54.41 l -1.2,0.002 -1.15,0.002 -1.107,-0.004 -1.067,-0.01 -1.037,-0.015 -1.011,-0.019 -0.991,-0.019 -0.977,-0.013 h -0.965 l -0.956,0.019 -0.95,0.046 -0.942,0.082 m 34.843,3.133 -0.691,-0.426 -1.701,-0.884 -1.742,-0.756 -1.765,-0.633 -1.77,-0.516 -1.757,-0.407 -1.732,-0.312 -1.692,-0.229 -1.64,-0.16 -1.582,-0.105 -1.516,-0.067 -1.449,-0.04 -1.382,-0.028 -1.317,-0.025 -1.257,-0.03 -1.203,-0.043 -1.156,-0.058 -1.118,-0.073 -1.088,-0.087 -1.065,-0.095 -1.05,-0.098 -1.041,-0.095 -1.035,-0.08 -1.032,-0.057 -1.032,-0.025 -1.03,0.018 m 34.762,2.971 -0.392,-0.199 -1.869,-0.785 -1.892,-0.65 -1.897,-0.524 -1.883,-0.408 -1.85,-0.308 -1.802,-0.221 -1.742,-0.153 -1.673,-0.103 -1.596,-0.069 -1.52,-0.052 -1.442,-0.051 -1.37,-0.06 -1.303,-0.08 -1.246,-0.104 -1.198,-0.131 -1.161,-0.158 -1.134,-0.179 -1.116,-0.194 -1.107,-0.2 L 40.547,50.449 39.44,50.27 38.327,50.118 37.208,50.005 36.083,49.943 M 70.767,53.339 70.245,53.125 68.234,52.458 66.218,51.927 64.22,51.519 62.26,51.216 60.356,51 58.522,50.852 56.768,50.749 55.101,50.67 53.522,50.597 52.03,50.514 50.618,50.405 49.278,50.262 47.999,50.078 46.767,49.854 45.571,49.591 44.396,49.298 43.233,48.983 42.07,48.66 40.9,48.343 39.718,48.046 38.521,47.783 37.309,47.568 36.083,47.412 m 34.51,4.26 L 69.655,51.37 67.531,50.832 65.427,50.422 63.366,50.123 61.369,49.912 59.452,49.764 57.626,49.656 55.898,49.563 54.27,49.462 52.737,49.334 51.293,49.165 49.926,48.944 48.622,48.665 47.365,48.33 46.139,47.943 44.93,47.515 43.722,47.061 42.505,46.596 41.27,46.14 40.011,45.708 38.726,45.32 37.416,44.989 36.083,44.728 m 34.361,5.51 -1.7,-0.419 -2.201,-0.411 -2.151,-0.298 -2.082,-0.21 -1.992,-0.149 -1.89,-0.117 -1.78,-0.113 -1.67,-0.136 -1.564,-0.179 -1.468,-0.24 -1.385,-0.312 -1.322,-0.389 -1.275,-0.462 -1.249,-0.528 -1.241,-0.578 -1.249,-0.612 -1.271,-0.622 -1.301,-0.611 -1.338,-0.578 -1.375,-0.525 -1.412,-0.456 -1.445,-0.376 m 34.199,7.058 -0.408,-0.1 -2.287,-0.416 -2.235,-0.299 -2.158,-0.21 -2.059,-0.154 -1.947,-0.129 -1.826,-0.138 -1.704,-0.175 -1.589,-0.239 -1.486,-0.32 -1.398,-0.412 -1.332,-0.509 -1.289,-0.602 -1.268,-0.681 -1.269,-0.743 -1.289,-0.781 -1.323,-0.793 -1.368,-0.775 -1.417,-0.735 -1.469,-0.669 -1.517,-0.588 -1.561,-0.495 m 33.999,8.814 -1.501,-0.27 -2.31,-0.304 -2.228,-0.214 -2.122,-0.162 -1.998,-0.145 -1.867,-0.166 -1.735,-0.219 -1.61,-0.302 -1.498,-0.404 -1.407,-0.52 -1.34,-0.637 -1.299,-0.748 -1.285,-0.844 -1.295,-0.916 -1.327,-0.959 -1.376,-0.97 -1.434,-0.947 -1.5,-0.895 -1.564,-0.817 -1.624,-0.721 -1.679,-0.618 M 69.891,46.735 69.552,46.673 67.173,46.36 64.881,46.137 62.702,45.964 60.654,45.8 58.748,45.604 56.984,45.338 55.355,44.97 53.846,44.479 52.431,43.85 l -1.347,-0.768 -1.308,-0.898 -1.301,-1.009 -1.322,-1.092 -1.366,-1.14 -1.429,-1.149 -1.502,-1.12 -1.582,-1.056 -1.66,-0.963 -1.733,-0.853 -1.798,-0.736 m 33.623,12.607 -1.617,-0.218 -2.353,-0.237 -2.235,-0.188 -2.097,-0.186 -1.945,-0.228 -1.793,-0.314 -1.65,-0.432 -1.524,-0.578 -1.424,-0.737 -1.355,-0.897 -1.32,-1.046 -1.32,-1.173 -1.349,-1.264 -1.406,-1.318 -1.483,-1.324 -1.572,-1.288 -1.666,-1.211 -1.757,-1.103 -1.841,-0.977 -1.916,-0.85 m 33.373,14.462 -0.409,-0.058 -2.411,-0.257 -2.291,-0.208 -2.146,-0.21 -1.988,-0.263 -1.826,-0.36 -1.676,-0.496 -1.542,-0.66 -1.439,-0.84 -1.37,-1.019 -1.337,-1.187 -1.341,-1.327 -1.381,-1.429 -1.45,-1.484 -1.539,-1.491 -1.643,-1.445 -1.75,-1.356 -1.853,-1.233 -1.949,-1.092 -2.032,-0.952 m 33.081,16.188 -1.556,-0.18 -2.348,-0.234 -2.198,-0.239 -2.035,-0.296 -1.867,-0.406 -1.708,-0.555 -1.57,-0.737 -1.463,-0.933 -1.391,-1.132 -1.361,-1.314 -1.37,-1.467 -1.419,-1.579 -1.497,-1.637 -1.6,-1.64 -1.715,-1.588 -1.834,-1.486 -1.95,-1.348 -2.053,-1.192 -2.146,-1.043 m 32.758,17.7 -0.166,-0.021 -2.405,-0.268 -2.256,-0.271 -2.088,-0.333 -1.915,-0.448 -1.751,-0.609 -1.608,-0.804 -1.497,-1.015 -1.424,-1.229 -1.396,-1.425 -1.409,-1.589 -1.463,-1.708 -1.551,-1.77 -1.664,-1.77 -1.79,-1.71 -1.919,-1.597 -2.045,-1.445 -2.156,-1.276 -2.255,-1.116 m 32.338,18.93 -1.028,-0.128 -2.317,-0.31 -2.15,-0.37 -1.973,-0.489 -1.806,-0.658 -1.659,-0.86 -1.544,-1.084 -1.471,-1.308 -1.442,-1.515 -1.459,-1.688 -1.518,-1.813 -1.612,-1.877 -1.733,-1.876 -1.867,-1.81 -2.006,-1.686 -2.137,-1.523 -2.257,-1.34 -2.359,-1.174 M 67.872,38.901 66.259,38.662 64.041,38.25 61.999,37.721 60.125,37.021 58.401,36.115 56.794,34.979 55.262,33.612 53.759,32.03 52.238,30.268 50.654,28.377 48.973,26.419 47.166,24.464 45.218,22.58 43.125,20.826 40.896,19.247 38.542,17.861 36.083,16.648 M 67.19,36.91 65.28,36.529 63.157,35.96 61.204,35.225 59.399,34.283 57.713,33.111 56.104,31.705 54.523,30.081 52.926,28.272 51.267,26.331 49.507,24.321 47.619,22.312 45.587,20.377 43.406,18.58 41.085,16.964 38.639,15.55 36.083,14.317 m 30.149,20.201 -1.799,-0.496 -2.047,-0.768 -1.9,-0.967 -1.781,-1.193 -1.704,-1.425 -1.672,-1.642 -1.687,-1.828 -1.748,-1.964 -1.848,-2.035 -1.975,-2.036 -2.119,-1.963 -2.27,-1.823 -2.412,-1.634 -2.539,-1.426 -2.648,-1.239 m 28.792,19.476 -1.202,-0.446 -2.009,-0.984 -1.893,-1.2 -1.813,-1.424 -1.78,-1.638 -1.792,-1.823 -1.847,-1.961 -1.943,-2.038 -2.069,-2.042 -2.211,-1.972 -2.361,-1.832 -2.503,-1.639 -2.63,-1.425 -2.739,-1.234 M 62.846,27.752 60.912,26.607 58.973,25.201 57.071,23.586 55.163,21.789 53.205,19.851 51.158,17.83 48.991,15.796 46.684,13.828 44.23,11.997 41.635,10.361 38.913,8.946 36.083,7.73 M 59.025,21.983 58.008,21.197 55.973,19.441 53.896,17.541 51.739,15.548 49.468,13.534 47.061,11.579 44.51,9.761 41.819,8.142 39.004,6.749 36.083,5.562 M 32.766,2.319 29.788,1.418 26.494,0.476 23.561,-0.292 M -5.643,1.51 -8.146,3.38 -10.8,5.869 l -2.401,2.755 -2.156,2.96 -1.935,3.095 -1.746,3.166 -1.6,3.182 -1.496,3.156 -1.43,3.103 -1.397,3.037 -1.385,2.974 -1.385,2.917 -1.395,2.876 -1.407,2.849 -1.419,2.838 -1.422,2.844 -1.412,2.867 -1.377,2.909 -1.31,2.964 -1.204,3.03 -1.059,3.1 -0.877,3.167 -0.668,3.224 -0.442,3.266 -0.22,3.291 -0.018,3.3 0.015,0.393 M -9.019,2.75 l -2.368,2.227 -2.452,2.761 -2.227,2.943 -2.024,3.064 -1.853,3.128 -1.719,3.143 -1.622,3.121 -1.56,3.08 -1.523,3.029 -1.505,2.98 -1.497,2.94 -1.499,2.91 -1.507,2.892 -1.515,2.888 -1.521,2.9 -1.512,2.93 -1.478,2.977 -1.41,3.039 -1.297,3.113 -1.143,3.192 -0.946,3.266 -0.72,3.33 -0.411,2.903 m 32.62,-67.582 -0.23,0.217 -2.504,2.759 -2.304,2.916 -2.121,3.021 -1.966,3.079 -1.845,3.095 -1.754,3.084 -1.691,3.055 -1.647,3.021 -1.618,2.991 -1.6,2.967 -1.592,2.949 -1.592,2.941 -1.6,2.943 -1.606,2.959 -1.6,2.994 -1.566,3.045 -1.496,3.114 -1.378,3.195 -1.215,3.28 -0.927,3.096 M -14.136,5.1 l -0.904,0.97 -2.386,2.879 -2.226,2.97 -2.089,3.021 -1.976,3.044 -1.888,3.044 -1.821,3.033 -1.767,3.02 -1.724,3.009 -1.69,3.002 -1.67,2.997 -1.664,2.996 -1.671,3.003 -1.676,3.023 -1.669,3.061 -1.634,3.117 -1.561,3.19 -1.439,3.275 -0.375,0.996 m 29.141,-52.202 -1.31,1.498 -2.34,2.911 -2.217,2.961 -2.112,2.991 -2.025,3.008 -1.947,3.017 -1.88,3.026 -1.819,3.037 -1.768,3.047 -1.737,3.053 -1.725,3.058 -1.725,3.07 -1.726,3.094 -1.716,3.134 -1.676,3.194 -1.293,2.648 m 25.449,-44.482 -0.963,1.115 -2.352,2.899 -2.252,2.941 -2.159,2.977 -2.071,3.009 -1.985,3.043 -1.905,3.075 -1.84,3.098 -1.797,3.115 -1.775,3.128 -1.764,3.145 -1.755,3.174 -1.734,3.218 -0.346,0.675 m 18.813,-33.985 -0.915,1.109 -2.293,2.953 -2.191,3.011 -2.087,3.067 -1.99,3.117 -1.913,3.154 -1.855,3.182 -1.816,3.206 -1.787,3.231 -0.025,0.047 m 79.232,21.978 -0.639,0.206 -0.622,0.23 -0.604,0.254 -0.586,0.279 -0.565,0.305 -0.543,0.329 -0.521,0.352 -0.497,0.375 -0.471,0.396 -0.446,0.415 -0.419,0.432 -0.392,0.447 -0.365,0.458 -0.339,0.468 -0.314,0.475 -0.29,0.479 -0.267,0.48 -0.248,0.478 -0.23,0.475 -0.215,0.47 -0.203,0.463 -0.195,0.456 -0.188,0.447 -0.187,0.439 -0.186,0.431 -0.19,0.425 -0.195,0.42 -0.203,0.416 -0.212,0.416 -0.22,0.418 -0.23,0.422 -0.239,0.429 -0.248,0.439 -0.254,0.453 -0.258,0.467 -0.259,0.486 -0.258,0.504 -0.252,0.525 -0.244,0.548 -0.236,0.569 -0.224,0.593 -0.212,0.618 -0.197,0.642 -0.179,0.666 -0.16,0.691 -0.136,0.715 -0.111,0.738 -0.08,0.761 -0.047,0.78 -0.012,0.799 0.028,0.814 0.069,0.826 0.115,0.835 0.163,0.841 0.211,0.842 0.261,0.84 0.314,0.834 0.365,0.823 0.416,0.809 0.468,0.791 0.518,0.769 0.567,0.745 0.615,0.717 0.659,0.686 0.703,0.655 0.744,0.62 0.783,0.585 0.819,0.547 0.853,0.509 0.885,0.47 0.915,0.43 0.942,0.392 0.969,0.351 0.992,0.313 1.014,0.274 1.036,0.235 1.055,0.199 1.076,0.162 1.093,0.124 1.112,0.085 1.128,0.045 1.145,0.003 1.158,-0.041 1.172,-0.088 1.181,-0.137 1.19,-0.189 1.194,-0.244 1.195,-0.3 0.848,-0.257 M 36.083,59.964 35.38,60.17 l -0.685,0.235 -0.667,0.265 -0.647,0.295 -0.625,0.326 -0.601,0.356 -0.575,0.387 -0.548,0.414 -0.519,0.442 -0.488,0.466 -0.456,0.489 -0.423,0.508 -0.391,0.523 -0.359,0.537 -0.326,0.545 -0.297,0.549 -0.268,0.552 -0.243,0.549 -0.221,0.544 -0.202,0.536 -0.187,0.526 -0.176,0.515 -0.171,0.501 -0.168,0.489 -0.17,0.475 -0.175,0.465 -0.184,0.455 -0.195,0.448 -0.209,0.444 -0.223,0.442 -0.237,0.446 -0.251,0.451 -0.264,0.462 -0.274,0.475 -0.282,0.49 -0.285,0.511 -0.284,0.532 -0.278,0.555 -0.271,0.578 -0.262,0.604 -0.251,0.63 -0.239,0.656 -0.226,0.685 -0.209,0.713 -0.19,0.741 -0.167,0.77 -0.141,0.797 -0.11,0.823 -0.075,0.847 -0.037,0.869 0.008,0.888 0.054,0.902 0.104,0.914 0.158,0.919 0.214,0.921 0.271,0.919 0.329,0.91 0.387,0.898 0.447,0.88 0.504,0.858 0.56,0.834 0.614,0.804 0.666,0.772 0.716,0.739 0.763,0.702 0.807,0.663 0.849,0.625 0.887,0.584 0.923,0.544 0.957,0.503 0.988,0.462 1.018,0.421 1.045,0.38 1.071,0.339 1.095,0.301 1.119,0.262 1.141,0.226 1.164,0.189 1.185,0.152 1.207,0.113 1.228,0.074 1.249,0.031 1.268,-0.014 1.285,-0.061 0.775,-0.068 M 36.083,58.3 l -0.772,0.194 -0.756,0.228 -0.738,0.264 -0.717,0.301 -0.695,0.339 -0.669,0.376 -0.64,0.414 -0.611,0.45 -0.576,0.484 -0.541,0.516 -0.504,0.546 -0.464,0.571 -0.425,0.594 -0.385,0.61 -0.346,0.623 -0.308,0.63 -0.273,0.634 -0.242,0.631 -0.213,0.625 -0.188,0.614 -0.17,0.6 -0.158,0.585 -0.149,0.567 -0.146,0.549 -0.149,0.53 -0.157,0.514 -0.169,0.499 -0.184,0.487 -0.202,0.48 -0.222,0.474 -0.241,0.476 -0.261,0.479 -0.277,0.489 -0.292,0.502 -0.302,0.52 -0.307,0.54 -0.306,0.563 -0.3,0.588 -0.29,0.614 -0.28,0.641 -0.271,0.668 -0.26,0.698 -0.249,0.729 -0.234,0.761 -0.216,0.792 -0.195,0.825 -0.169,0.856 -0.137,0.887 -0.101,0.915 -0.058,0.941 -0.011,0.961 0.041,0.979 0.097,0.992 0.157,0.997 0.219,0.998 0.285,0.993 0.351,0.983 0.416,0.966 0.481,0.944 0.546,0.918 0.608,0.887 0.667,0.853 0.723,0.816 0.777,0.777 0.825,0.736 0.872,0.694 0.915,0.651 0.955,0.609 0.991,0.567 1.026,0.525 1.057,0.482 1.088,0.441 1.117,0.401 1.143,0.361 1.169,0.321 1.194,0.284 1.22,0.248 1.243,0.212 1.269,0.176 1.294,0.14 1.32,0.101 1.155,0.05 m -8.695,-50.298 -0.849,0.167 -0.835,0.208 -0.817,0.251 -0.798,0.295 -0.776,0.341 -0.749,0.387 -0.718,0.433 -0.686,0.479 -0.648,0.522 -0.607,0.563 -0.565,0.603 -0.518,0.636 -0.471,0.666 -0.422,0.691 -0.375,0.708 -0.328,0.72 -0.284,0.727 -0.244,0.724 -0.209,0.718 -0.178,0.705 -0.154,0.689 -0.137,0.669 -0.127,0.646 -0.123,0.621 -0.127,0.598 -0.136,0.575 -0.152,0.555 -0.171,0.537 -0.193,0.524 -0.218,0.516 -0.243,0.514 -0.267,0.516 -0.289,0.524 -0.306,0.538 -0.319,0.556 -0.325,0.577 -0.323,0.602 -0.314,0.627 -0.301,0.655 -0.292,0.682 -0.282,0.713 -0.274,0.743 -0.265,0.776 -0.252,0.811 -0.238,0.847 -0.218,0.883 -0.192,0.92 -0.161,0.953 -0.122,0.986 -0.078,1.014 -0.026,1.039 0.031,1.057 0.095,1.07 0.161,1.075 0.233,1.074 0.305,1.066 0.379,1.051 0.454,1.028 0.526,1.001 0.597,0.968 0.664,0.93 0.727,0.889 0.788,0.845 0.843,0.801 0.894,0.755 0.94,0.709 0.984,0.663 1.022,0.619 1.059,0.575 1.093,0.534 1.124,0.492 1.154,0.452 1.183,0.412 1.21,0.374 1.236,0.336 1.263,0.298 1.289,0.264 1.317,0.231 1.343,0.196 1.043,0.122 m -6.255,-53.834 -0.934,0.126 -0.922,0.174 -0.908,0.224 -0.89,0.276 -0.869,0.33 -0.842,0.387 -0.812,0.441 -0.776,0.499 -0.735,0.553 -0.69,0.606 -0.64,0.657 -0.586,0.702 -0.531,0.742 -0.473,0.776 -0.415,0.801 -0.359,0.82 -0.304,0.83 -0.254,0.831 -0.209,0.825 -0.172,0.811 -0.141,0.792 -0.119,0.767 -0.106,0.738 -0.101,0.709 -0.104,0.679 -0.114,0.649 -0.134,0.623 -0.156,0.599 -0.183,0.582 -0.213,0.569 -0.243,0.563 -0.272,0.564 -0.298,0.57 -0.318,0.584 -0.333,0.601 -0.338,0.624 -0.335,0.649 -0.321,0.677 -0.305,0.703 -0.293,0.732 -0.284,0.762 -0.28,0.794 -0.272,0.83 -0.265,0.867 -0.253,0.907 -0.236,0.947 -0.212,0.986 -0.18,1.026 -0.142,1.062 -0.092,1.093 -0.036,1.119 0.027,1.139 0.098,1.151 0.173,1.156 0.254,1.149 0.335,1.138 0.419,1.115 0.501,1.086 0.582,1.05 0.658,1.007 0.732,0.962 0.799,0.912 0.862,0.86 0.918,0.808 0.97,0.757 1.015,0.707 1.057,0.658 1.093,0.613 1.128,0.569 1.159,0.529 1.188,0.489 1.218,0.452 1.244,0.415 1.272,0.379 1.298,0.343 1.326,0.306 1.353,0.273 1.381,0.241 0.045,0.007 m -4.105,-57.227 -1.026,0.069 -1.02,0.124 -1.009,0.183 -0.995,0.242 -0.975,0.307 -0.951,0.371 -0.919,0.439 -0.883,0.508 -0.839,0.576 -0.789,0.644 -0.734,0.707 -0.672,0.767 -0.606,0.82 -0.539,0.866 -0.468,0.902 -0.401,0.928 -0.334,0.945 -0.273,0.95 -0.218,0.945 -0.171,0.932 -0.133,0.909 -0.105,0.881 -0.087,0.847 -0.08,0.812 -0.083,0.773 -0.095,0.738 -0.116,0.705 -0.142,0.675 -0.173,0.652 -0.208,0.635 -0.243,0.626 -0.276,0.624 -0.305,0.629 -0.328,0.641 -0.343,0.659 -0.347,0.683 -0.341,0.708 -0.32,0.735 -0.299,0.762 -0.285,0.791 -0.279,0.82 -0.276,0.854 -0.273,0.89 -0.27,0.931 -0.263,0.973 -0.249,1.018 -0.227,1.062 -0.196,1.105 -0.155,1.145 -0.103,1.178 -0.041,1.207 0.03,1.226 0.109,1.238 0.194,1.237 0.284,1.228 0.377,1.207 0.47,1.177 0.562,1.138 0.65,1.092 0.735,1.039 0.812,0.981 0.884,0.922 0.948,0.86 1.005,0.799 1.055,0.742 1.098,0.687 1.136,0.635 1.169,0.59 1.198,0.548 1.226,0.509 1.253,0.474 1.278,0.441 1.304,0.409 1.33,0.375 1.356,0.342 1.383,0.306 0.811,0.157 m -2.194,-60.612 -1.127,-0.003 -1.126,0.061 -1.122,0.126 -1.11,0.195 -1.096,0.266 -1.073,0.344 -1.044,0.422 -1.007,0.506 -0.961,0.589 -0.906,0.673 -0.845,0.754 -0.774,0.831 -0.7,0.899 -0.619,0.959 -0.537,1.01 -0.456,1.046 -0.376,1.07 -0.302,1.081 -0.235,1.08 -0.178,1.066 -0.13,1.042 -0.096,1.009 -0.073,0.971 -0.064,0.929 -0.065,0.884 -0.079,0.841 -0.1,0.801 -0.131,0.765 -0.166,0.736 -0.205,0.716 -0.243,0.702 -0.28,0.697 -0.311,0.702 -0.336,0.712 -0.349,0.731 -0.352,0.754 -0.34,0.779 -0.313,0.807 -0.284,0.832 -0.269,0.86 -0.263,0.889 -0.265,0.922 -0.267,0.961 -0.269,1.003 -0.267,1.05 -0.258,1.097 -0.237,1.146 -0.207,1.193 -0.164,1.237 -0.107,1.272 -0.04,1.302 0.04,1.321 0.128,1.329 0.225,1.324 0.326,1.308 0.43,1.278 0.535,1.238 0.637,1.187 0.734,1.128 0.825,1.06 0.909,0.99 0.983,0.918 1.048,0.845 1.104,0.774 1.152,0.709 1.19,0.65 1.222,0.596 1.25,0.55 1.275,0.51 1.296,0.477 1.317,0.446 1.339,0.42 1.362,0.392 1.386,0.365 1.411,0.333 0.228,0.047 m -0.228,-64.043 -1.236,-0.088 -1.242,-0.017 -1.243,0.055 -1.238,0.132 -1.229,0.213 -1.21,0.299 -1.184,0.393 -1.147,0.491 -1.101,0.591 -1.042,0.695 -0.974,0.795 -0.895,0.891 -0.809,0.979 -0.716,1.057 -0.62,1.122 -0.524,1.172 -0.429,1.207 -0.342,1.224 -0.261,1.227 -0.192,1.213 -0.136,1.189 -0.093,1.152 -0.066,1.108 -0.052,1.059 -0.054,1.009 -0.067,0.958 -0.091,0.911 -0.123,0.869 -0.163,0.835 -0.204,0.809 -0.246,0.793 -0.284,0.786 -0.318,0.788 -0.342,0.798 -0.354,0.816 -0.352,0.839 -0.334,0.865 -0.298,0.891 -0.262,0.915 -0.244,0.94 -0.24,0.969 -0.245,1.002 -0.255,1.041 -0.263,1.087 -0.267,1.135 -0.261,1.188 -0.244,1.241 -0.213,1.292 -0.168,1.338 -0.106,1.376 -0.031,1.406 0.058,1.424 0.157,1.427 0.266,1.416 0.38,1.391 0.497,1.352 0.613,1.298 0.727,1.233 0.834,1.158 0.932,1.075 1.021,0.989 1.098,0.902 1.163,0.816 1.217,0.735 1.259,0.661 1.293,0.596 1.319,0.54 1.339,0.495 1.355,0.458 1.369,0.43 1.385,0.407 1.401,0.389 1.42,0.369 1.211,0.29 m 1.696,-67.591 -1.352,-0.185 -1.365,-0.107 -1.373,-0.028 -1.378,0.053 -1.373,0.144 -1.361,0.242 -1.339,0.349 -1.303,0.463 -1.257,0.583 -1.195,0.707 -1.12,0.83 -1.032,0.949 -0.935,1.059 -0.828,1.157 -0.717,1.24 -0.604,1.306 -0.495,1.351 -0.39,1.378 -0.297,1.385 -0.216,1.374 -0.149,1.346 -0.098,1.307 -0.066,1.258 -0.048,1.203 -0.049,1.144 -0.063,1.088 -0.088,1.033 -0.123,0.986 -0.164,0.947 -0.208,0.917 -0.252,0.897 -0.292,0.888 -0.324,0.889 -0.348,0.899 -0.356,0.916 -0.349,0.939 -0.323,0.963 -0.277,0.988 -0.232,1.011 -0.212,1.033 -0.21,1.06 -0.221,1.094 -0.237,1.133 -0.252,1.181 -0.262,1.233 -0.261,1.29 -0.246,1.346 -0.214,1.402 -0.166,1.45 -0.099,1.491 -0.015,1.519 0.084,1.534 0.196,1.533 0.317,1.515 0.447,1.48 0.577,1.427 0.706,1.359 0.832,1.277 0.949,1.184 1.054,1.085 1.149,0.98 1.228,0.876 1.293,0.776 1.343,0.683 1.381,0.598 1.407,0.528 1.424,0.47 1.436,0.426 1.442,0.393 1.449,0.373 1.455,0.358 1.466,0.349 0.534,0.122 m 3.965,-71.238 -1.473,-0.29 -1.495,-0.208 -1.512,-0.124 -1.524,-0.036 -1.529,0.061 -1.523,0.17 -1.506,0.29 -1.475,0.423 -1.427,0.564 -1.363,0.711 -1.282,0.858 -1.184,1.003 -1.075,1.139 -0.953,1.259 -0.826,1.364 -0.697,1.444 -0.57,1.505 -0.45,1.54 -0.341,1.552 -0.247,1.544 -0.17,1.515 -0.112,1.471 -0.074,1.418 -0.054,1.355 -0.053,1.291 -0.067,1.227 -0.094,1.166 -0.13,1.115 -0.173,1.069 -0.219,1.038 -0.263,1.014 -0.302,1.004 -0.334,1.004 -0.353,1.013 -0.357,1.029 -0.343,1.052 -0.307,1.075 -0.25,1.099 -0.197,1.118 -0.175,1.139 -0.175,1.164 -0.192,1.196 -0.215,1.237 -0.237,1.287 -0.254,1.343 -0.257,1.402 -0.243,1.464 -0.211,1.522 -0.159,1.573 -0.084,1.615 0.008,1.642 0.119,1.654 0.245,1.646 0.381,1.62 0.524,1.572 0.669,1.505 0.814,1.421 0.951,1.322 1.078,1.209 1.192,1.089 1.291,0.966 1.372,0.844 1.436,0.727 1.483,0.62 1.514,0.526 1.533,0.45 1.54,0.388 1.54,0.346 1.537,0.319 1.532,0.306 1.03,0.203 m 6.717,-75.064 -1.598,-0.403 -1.63,-0.315 -1.656,-0.229 -1.678,-0.137 -1.692,-0.033 -1.695,0.084 -1.684,0.22 -1.657,0.371 -1.61,0.534 -1.544,0.707 -1.456,0.882 -1.35,1.055 -1.227,1.216 -1.089,1.363 -0.946,1.489 -0.798,1.589 -0.654,1.664 -0.516,1.708 -0.394,1.727 -0.287,1.72 -0.199,1.69 -0.135,1.644 -0.091,1.583 -0.07,1.515 -0.067,1.444 -0.081,1.374 -0.11,1.307 -0.148,1.251 -0.191,1.203 -0.237,1.167 -0.28,1.143 -0.317,1.132 -0.345,1.131 -0.359,1.139 -0.357,1.156 -0.335,1.177 -0.289,1.201 -0.219,1.221 -0.158,1.238 -0.133,1.255 -0.137,1.279 -0.161,1.31 -0.19,1.353 -0.221,1.404 -0.241,1.463 -0.249,1.526 -0.237,1.592 -0.202,1.653 -0.145,1.706 -0.064,1.748 0.04,1.773 0.163,1.781 0.303,1.766 0.455,1.73 0.613,1.669 0.774,1.588 0.932,1.485 1.082,1.366 1.221,1.234 1.342,1.092 1.446,0.949 1.529,0.807 1.591,0.674 1.634,0.552 1.659,0.448 1.667,0.363 1.665,0.3 1.653,0.259 0.591,0.086 m 10.769,-79.103 -1.726,-0.516 -1.767,-0.427 -1.804,-0.34 -1.837,-0.246 -1.86,-0.139 -1.873,-0.01 -1.87,0.139 -1.848,0.308 -1.803,0.496 -1.734,0.696 -1.64,0.9 -1.524,1.102 -1.386,1.293 -1.235,1.467 -1.072,1.617 -0.907,1.737 -0.744,1.826 -0.591,1.881 -0.452,1.905 -0.334,1.9 -0.237,1.869 -0.166,1.818 -0.118,1.753 -0.096,1.678 -0.092,1.6 -0.108,1.525 -0.137,1.454 -0.176,1.393 -0.22,1.343 -0.264,1.305 -0.304,1.281 -0.338,1.269 -0.359,1.268 -0.367,1.278 -0.357,1.293 -0.324,1.314 -0.269,1.336 -0.186,1.355 -0.117,1.368 -0.09,1.382 -0.098,1.403 -0.127,1.435 -0.165,1.478 -0.201,1.532 -0.228,1.594 -0.238,1.661 -0.225,1.729 -0.188,1.792 -0.125,1.848 -0.034,1.888 0.08,1.912 0.216,1.913 0.371,1.892 0.538,1.843 0.712,1.771 0.889,1.673 1.06,1.552 1.224,1.413 1.372,1.258 1.502,1.098 1.611,0.931 1.695,0.771 1.756,0.618 1.794,0.483 1.506,0.306 m 17.635,-83.247 -1.854,-0.63 -1.906,-0.54 -1.953,-0.453 -1.996,-0.361 -2.032,-0.249 -2.055,-0.113 -2.06,0.049 -2.043,0.239 -2.001,0.45 -1.93,0.679 -1.83,0.913 -1.703,1.147 -1.553,1.369 -1.384,1.571 -1.203,1.744 -1.02,1.886 -0.839,1.989 -0.669,2.056 -0.517,2.084 -0.387,2.08 -0.282,2.047 -0.206,1.993 -0.156,1.921 -0.132,1.841 -0.13,1.757 -0.147,1.676 -0.177,1.602 -0.215,1.538 -0.259,1.487 -0.3,1.449 -0.336,1.425 -0.364,1.414 -0.379,1.414 -0.377,1.423 -0.356,1.44 -0.314,1.459 -0.247,1.481 -0.153,1.496 -0.075,1.507 -0.048,1.518 -0.059,1.538 -0.095,1.569 -0.139,1.612 -0.181,1.668 -0.211,1.734 -0.223,1.803 -0.208,1.874 -0.168,1.939 -0.096,1.994 0.003,2.035 0.128,2.054 0.279,2.05 0.447,2.02 0.63,1.961 0.819,1.874 1.011,1.761 1.197,1.621 1.372,1.462 1.53,1.288 1.668,1.104 1.372,0.707 M 36.083,30.104 34.101,29.366 32.059,28.716 29.958,28.149 27.802,27.673 25.6,27.31 l -2.237,-0.221 -2.25,-0.045 -2.24,0.164 -2.2,0.4 -2.128,0.657 -2.021,0.923 -1.884,1.189 -1.721,1.443 -1.534,1.673 -1.337,1.872 -1.134,2.032 -0.936,2.152 -0.75,2.227 -0.586,2.261 -0.445,2.257 -0.335,2.222 -0.254,2.162 -0.203,2.085 -0.18,1.999 -0.18,1.91 -0.198,1.825 -0.229,1.748 -0.268,1.684 -0.308,1.632 -0.347,1.595 -0.376,1.573 -0.396,1.563 -0.401,1.565 -0.389,1.576 -0.359,1.592 -0.304,1.612 -0.225,1.631 -0.12,1.645 -0.035,1.652 -0.008,1.662 -0.024,1.678 -0.063,1.71 -0.114,1.755 -0.16,1.812 -0.192,1.879 -0.203,1.951 -0.186,2.024 -0.14,2.09 -0.061,2.145 0.049,2.183 0.186,2.198 0.349,2.188 0.532,2.149 0.728,2.079 0.933,1.979 1.138,1.849 1.338,1.694 1.154,1.146 M 36.083,27.199 33.977,26.361 31.8,25.608 l -2.245,-0.676 -2.311,-0.59 -2.369,-0.477 -2.415,-0.328 -2.439,-0.141 -2.434,0.087 -2.396,0.348 -2.322,0.632 -2.211,0.932 -2.063,1.229 -1.885,1.513 -1.684,1.773 -1.467,1.997 -1.248,2.176 -1.033,2.31 -0.833,2.393 -0.656,2.43 -0.509,2.428 -0.393,2.388 -0.31,2.323 -0.261,2.241 -0.239,2.15 -0.242,2.056 -0.261,1.968 -0.294,1.89 -0.332,1.825 -0.369,1.776 -0.401,1.741 -0.424,1.722 -0.434,1.715 -0.428,1.719 -0.405,1.732 -0.361,1.748 -0.296,1.768 -0.205,1.785 -0.09,1.798 0.002,1.802 0.027,1.809 0.009,1.825 -0.035,1.856 -0.09,1.901 -0.138,1.961 -0.17,2.029 -0.179,2.103 -0.157,2.176 -0.104,2.242 -0.016,2.296 0.103,2.33 0.253,2.341 0.427,2.324 0.623,2.276 0.833,2.196 1.052,2.083 0.53,0.812 M 36.083,24.381 33.856,23.456 31.55,22.61 29.167,21.833 26.707,21.136 24.176,20.55 21.59,20.117 l -2.619,-0.234 -2.622,0.012 -2.586,0.295 -2.511,0.609 -2.393,0.938 -2.235,1.268 -2.044,1.582 -1.827,1.87 -1.595,2.115 -1.357,2.314 -1.128,2.46 -0.916,2.551 -0.729,2.591 -0.575,2.586 -0.458,2.543 -0.375,2.473 -0.327,2.386 -0.309,2.288 -0.315,2.193 -0.337,2.102 -0.37,2.025 -0.406,1.962 -0.439,1.915 -0.466,1.885 -0.478,1.869 -0.478,1.866 -0.459,1.874 -0.423,1.887 -0.367,1.906 -0.289,1.925 -0.188,1.941 -0.062,1.951 0.032,1.954 0.059,1.959 0.037,1.974 -0.011,2.005 -0.066,2.051 -0.116,2.112 -0.144,2.181 -0.149,2.255 -0.121,2.328 -0.059,2.392 0.037,2.442 0.167,2.473 0.327,2.479 0.514,2.455 0.721,2.399 0.489,1.198 m 44.459,-91.045 -2.342,-1 -2.429,-0.926 -2.514,-0.866 -2.602,-0.793 -2.682,-0.686 -2.748,-0.53 -2.791,-0.32 -2.798,-0.059 -2.766,0.247 -2.689,0.588 -2.564,0.945 -2.399,1.305 -2.194,1.648 -1.962,1.96 -1.714,2.229 -1.463,2.443 -1.219,2.6 -0.998,2.697 -0.803,2.737 -0.646,2.731 -0.527,2.684 -0.447,2.608 -0.403,2.516 -0.389,2.414 -0.398,2.317 -0.424,2.226 -0.456,2.15 -0.49,2.091 -0.518,2.049 -0.536,2.023 -0.539,2.013 -0.526,2.014 -0.495,2.025 -0.444,2.042 -0.375,2.061 -0.285,2.081 -0.174,2.097 -0.04,2.104 0.058,2.105 0.084,2.109 0.059,2.124 0.011,2.154 -0.045,2.202 -0.089,2.262 -0.116,2.331 -0.112,2.405 -0.076,2.475 -0.006,2.537 0.101,2.583 0.241,2.609 0.411,2.608 0.527,2.239 m 48.741,-91.787 -2.452,-1.056 -2.543,-0.991 -2.637,-0.941 -2.734,-0.876 -2.823,-0.772 -2.899,-0.614 -2.948,-0.397 -2.963,-0.12 -2.931,0.206 -2.852,0.571 -2.724,0.956 -2.548,1.341 -2.332,1.711 -2.088,2.047 -1.825,2.333 -1.561,2.561 -1.307,2.726 -1.077,2.828 -0.879,2.868 -0.719,2.858 -0.603,2.808 -0.526,2.726 -0.487,2.629 -0.479,2.525 -0.491,2.427 -0.519,2.338 -0.552,2.265 -0.581,2.211 -0.604,2.174 -0.612,2.155 -0.605,2.15 -0.578,2.157 -0.534,2.173 -0.469,2.192 -0.386,2.214 -0.284,2.233 -0.163,2.248 -0.024,2.255 0.078,2.254 0.102,2.258 0.078,2.271 0.03,2.303 -0.022,2.35 -0.062,2.41 -0.08,2.478 -0.068,2.548 -0.023,2.616 0.059,2.673 0.175,2.715 0.324,2.734 0.195,1.057 m 52.553,-92.236 -2.555,-1.095 -2.651,-1.038 -2.751,-0.998 -2.854,-0.943 -2.953,-0.841 -3.035,-0.682 -3.092,-0.457 -3.109,-0.168 -3.081,0.177 -3,0.562 -2.866,0.97 -2.682,1.379 -2.456,1.77 -2.201,2.125 -1.928,2.427 -1.652,2.666 -1.391,2.838 -1.155,2.941 -0.954,2.981 -0.797,2.966 -0.684,2.911 -0.613,2.825 -0.58,2.725 -0.575,2.62 -0.593,2.523 -0.623,2.437 -0.653,2.368 -0.679,2.321 -0.694,2.291 -0.693,2.279 -0.674,2.281 -0.635,2.294 -0.576,2.313 -0.497,2.337 -0.401,2.36 -0.287,2.381 -0.157,2.395 -0.012,2.401 0.091,2.399 0.115,2.402 0.093,2.417 0.049,2.448 0.002,2.494 -0.029,2.552 -0.038,2.618 -0.015,2.685 0.042,2.746 0.134,2.799 0.26,2.833 v 0.002 M 36.083,14.317 33.43,13.198 30.679,12.132 27.823,11.096 24.858,10.108 21.79,9.219 18.632,8.489 15.414,7.991 12.174,7.794 8.963,7.956 5.835,8.52 2.846,9.51 l -2.8,1.419 -2.566,1.826 -2.301,2.196 -2.019,2.51 -1.737,2.757 -1.47,2.932 -1.232,3.035 -1.033,3.072 -0.878,3.054 -0.771,2.993 -0.706,2.905 -0.68,2.803 -0.681,2.699 -0.701,2.603 -0.731,2.523 -0.76,2.461 -0.78,2.421 -0.789,2.399 -0.777,2.394 -0.747,2.403 -0.695,2.422 -0.623,2.448 -0.53,2.474 -0.419,2.501 -0.295,2.522 -0.154,2.536 -0.006,2.542 0.099,2.54 0.126,2.543 0.106,2.557 0.069,2.587 0.031,2.632 0.009,2.687 0.014,2.749 0.05,2.811 0.118,2.866 0.15,1.985 M 36.083,12.079 33.337,10.955 30.491,9.877 27.539,8.823 24.474,7.814 21.301,6.9 18.037,6.148 14.708,5.635 11.358,5.43 8.037,5.595 4.801,6.176 1.707,7.195 l -2.898,1.461 -2.66,1.881 -2.388,2.261 -2.101,2.58 -1.815,2.831 -1.546,3.006 -1.31,3.109 -1.113,3.141 -0.965,3.12 -0.864,3.056 -0.807,2.965 -0.786,2.863 -0.792,2.762 -0.815,2.671 -0.844,2.597 -0.869,2.543 -0.884,2.51 -0.885,2.497 -0.865,2.5 -0.824,2.517 -0.76,2.543 -0.674,2.574 -0.568,2.605 -0.445,2.633 -0.306,2.658 -0.157,2.671 -0.003,2.678 0.104,2.676 0.135,2.677 0.122,2.692 0.092,2.72 0.067,2.763 0.058,2.814 0.077,2.87 0.126,2.923 0.08,1.149 M 36.083,9.897 33.247,8.782 30.311,7.711 27.268,6.661 24.112,5.653 20.847,4.742 17.489,3.997 14.069,3.496 10.627,3.31 7.216,3.502 3.894,4.117 0.716,5.18 -2.263,6.688 -5,8.623 l -2.462,2.315 -2.174,2.639 -1.887,2.889 -1.622,3.062 -1.388,3.159 -1.198,3.19 -1.057,3.164 -0.964,3.098 -0.915,3.007 -0.898,2.907 -0.909,2.81 -0.931,2.726 -0.958,2.661 -0.981,2.615 -0.99,2.591 -0.983,2.586 -0.957,2.598 -0.906,2.622 -0.832,2.654 -0.733,2.691 -0.614,2.728 -0.475,2.762 -0.324,2.786 -0.163,2.802 -0.003,2.808 0.109,2.806 0.146,2.807 0.142,2.821 0.125,2.847 0.113,2.885 0.12,2.931 0.154,2.979 0.017,0.233 M 36.083,7.73 33.157,6.636 30.134,5.585 27.004,4.557 23.764,3.575 20.416,2.695 16.978,1.988 13.481,1.532 9.967,1.397 6.488,1.645 3.099,2.316 -0.142,3.436 -3.183,5 -5.98,6.988 l -2.525,2.366 -2.239,2.684 -1.956,2.929 -1.696,3.098 -1.469,3.19 -1.289,3.216 -1.156,3.187 -1.071,3.12 -1.028,3.033 -1.016,2.937 -1.028,2.847 -1.05,2.772 -1.074,2.715 -1.091,2.679 -1.097,2.664 -1.085,2.666 -1.053,2.686 -0.996,2.718 -0.914,2.758 -0.804,2.802 -0.67,2.844 -0.515,2.883 -0.346,2.911 -0.173,2.929 -0.003,2.935 0.116,2.932 0.162,2.933 0.172,2.945 0.169,2.966 0.175,2.999 0.139,2.134 M 36.083,5.562 33.069,4.502 29.959,3.485 26.746,2.492 23.424,1.549 19.999,0.717 16.49,0.071 12.93,-0.31 9.361,-0.359 5.833,-0.024 2.399,0.73 -0.885,1.925 -3.97,3.556 -6.814,5.599 -9.39,8.01 l -2.297,2.718 -2.023,2.954 -1.771,3.113 -1.556,3.201 -1.385,3.221 -1.262,3.192 -1.185,3.127 -1.147,3.044 -1.138,2.955 -1.149,2.876 -1.168,2.81 -1.188,2.762 -1.201,2.737 -1.205,2.729 -1.192,2.739 -1.158,2.766 -1.097,2.805 -1.007,2.853 -0.885,2.906 -0.735,2.956 -0.561,3 -0.375,3.033 -0.186,3.053 -0.004,3.059 0.123,3.056 0.184,3.056 0.212,3.063 0.229,3.081 0.039,0.472 m 71.561,-16.33 -0.086,0.005 -0.085,0.01 -0.085,0.012 -0.084,0.016 -0.083,0.02 -0.082,0.022 -0.081,0.026 -0.08,0.029 -0.08,0.032 -0.077,0.035 -0.075,0.038 -0.075,0.041 -0.072,0.044 -0.071,0.047 -0.069,0.049 -0.066,0.053 -0.065,0.054 -0.062,0.057 -0.061,0.06 -0.058,0.062 -0.055,0.064 -0.053,0.066 -0.05,0.069 -0.048,0.071 -0.045,0.072 -0.042,0.074 -0.039,0.076 -0.036,0.077 -0.033,0.078 -0.031,0.081 -0.027,0.081 -0.023,0.083 -0.021,0.083 -0.018,0.085 -0.014,0.085 -0.01,0.085 -0.008,0.087 -0.004,0.087 v 0.087 l 0.003,0.087 0.006,0.087 0.01,0.087 0.014,0.087 0.017,0.086 0.02,0.086 0.024,0.085 0.027,0.084 0.032,0.083 0.034,0.082 0.038,0.081 0.041,0.079 0.045,0.078 0.048,0.076 0.05,0.074 0.055,0.072 0.057,0.07 0.061,0.068 0.063,0.065 0.066,0.062 0.069,0.06 0.071,0.057 0.075,0.054 0.076,0.051 0.079,0.047 0.08,0.045 0.083,0.04 0.085,0.037 0.086,0.034 0.088,0.03 0.09,0.026 0.09,0.022 0.092,0.018 0.092,0.014 0.093,0.011 0.094,0.006 0.094,0.002 0.094,-0.002 0.094,-0.007 0.094,-0.011 0.094,-0.014 0.093,-0.019 0.091,-0.023 0.092,-0.027 0.089,-0.031 0.089,-0.035 0.087,-0.04 0.085,-0.043 0.083,-0.046 0.082,-0.051 0.078,-0.054 0.077,-0.057 0.074,-0.061 0.072,-0.065 0.068,-0.067 0.065,-0.071 0.062,-0.073 0.059,-0.076 0.056,-0.078 0.051,-0.081 0.049,-0.083 0.045,-0.085 0.04,-0.087 0.037,-0.088 0.033,-0.09 0.029,-0.092 0.025,-0.092 0.021,-0.094 0.017,-0.094 0.012,-0.094 0.009,-0.095 0.004,-0.096 v -0.094 l -0.004,-0.095 -0.008,-0.095 -0.012,-0.093 -0.016,-0.093 -0.02,-0.093 -0.024,-0.09 -0.028,-0.09 L 38.184,76.4 38.148,76.314 38.11,76.229 38.068,76.146 38.022,76.066 37.973,75.988 37.921,75.912 37.866,75.838 37.809,75.768 37.748,75.699 37.685,75.634 37.619,75.571 37.55,75.512 37.48,75.456 37.408,75.402 37.333,75.353 37.257,75.306 37.179,75.263 37.1,75.223 37.019,75.186 36.937,75.153 36.854,75.124 36.77,75.098 36.686,75.075 36.6,75.056 36.515,75.041 36.428,75.029 36.342,75.021 36.255,75.016 36.169,75.015 36.083,75.017 m 0,-1.892 -0.164,0.019 -0.162,0.024 -0.161,0.032 -0.158,0.036 -0.157,0.043 -0.155,0.049 -0.152,0.054 -0.149,0.059 -0.147,0.066 -0.144,0.07 -0.141,0.076 -0.138,0.08 -0.134,0.085 -0.132,0.091 -0.127,0.094 -0.124,0.1 -0.12,0.104 -0.117,0.107 -0.112,0.113 -0.108,0.116 -0.104,0.12 -0.099,0.124 -0.096,0.127 -0.09,0.131 -0.086,0.134 -0.081,0.138 -0.077,0.141 -0.071,0.144 -0.067,0.146 -0.061,0.149 -0.055,0.152 -0.051,0.155 -0.045,0.156 -0.039,0.159 -0.033,0.161 -0.028,0.162 -0.021,0.164 -0.015,0.166 -0.01,0.167 -0.003,0.167 0.004,0.169 0.01,0.169 0.017,0.169 0.024,0.17 0.03,0.169 0.037,0.168 0.044,0.168 0.051,0.166 0.058,0.166 0.065,0.164 0.072,0.161 0.079,0.159 0.086,0.157 0.093,0.153 0.099,0.151 0.107,0.147 0.113,0.142 0.12,0.139 0.126,0.133 0.133,0.129 0.138,0.123 0.144,0.118 0.15,0.111 0.155,0.105 0.161,0.099 0.165,0.092 0.17,0.085 0.174,0.077 0.178,0.07 0.182,0.062 0.185,0.053 0.187,0.046 0.191,0.037 0.192,0.029 0.194,0.02 0.195,0.011 0.197,0.002 0.196,-0.006 0.197,-0.016 0.196,-0.025 0.196,-0.034 0.194,-0.043 0.192,-0.052 0.19,-0.061 0.188,-0.07 0.184,-0.078 0.181,-0.087 0.177,-0.095 0.173,-0.104 0.168,-0.112 0.163,-0.119 0.157,-0.128 0.151,-0.134 0.145,-0.141 0.139,-0.149 0.131,-0.154 0.124,-0.16 0.117,-0.166 0.109,-0.172 0.101,-0.175 0.092,-0.181 0.083,-0.184 0.076,-0.188 0.066,-0.191 0.058,-0.193 0.048,-0.196 0.039,-0.197 0.03,-0.199 0.021,-0.199 0.012,-0.2 0.002,-0.199 -0.006,-0.199 -0.015,-0.197 -0.024,-0.197 -0.034,-0.194 -0.041,-0.192 -0.05,-0.189 -0.058,-0.186 -0.066,-0.182 -0.074,-0.179 -0.082,-0.174 -0.088,-0.169 -0.096,-0.165 -0.102,-0.16 -0.108,-0.154 -0.115,-0.149 -0.121,-0.143 -0.126,-0.137 -0.13,-0.13 -0.136,-0.124 -0.14,-0.118 -0.144,-0.111 -0.148,-0.104 -0.151,-0.097 -0.154,-0.091 -0.158,-0.083 -0.159,-0.076 -0.162,-0.07 -0.164,-0.062 -0.165,-0.055 -0.166,-0.048 -0.167,-0.041 -0.168,-0.035 -0.168,-0.027 -0.168,-0.021 -0.168,-0.013 -0.167,-0.008 h -0.167 l -0.167,0.006 -0.165,0.012 m 0,-1.728 -0.235,0.038 -0.231,0.046 -0.229,0.055 -0.225,0.062 -0.222,0.07 -0.217,0.079 -0.214,0.085 -0.209,0.092 -0.205,0.099 -0.2,0.107 -0.197,0.112 -0.191,0.119 -0.187,0.126 -0.181,0.131 -0.177,0.137 -0.171,0.142 -0.167,0.149 -0.161,0.153 -0.156,0.159 -0.151,0.163 -0.145,0.169 -0.139,0.174 -0.134,0.178 -0.128,0.183 -0.123,0.187 -0.116,0.191 -0.111,0.196 -0.104,0.2 -0.098,0.204 -0.092,0.208 -0.085,0.213 -0.079,0.215 -0.071,0.22 -0.065,0.223 -0.057,0.227 -0.049,0.229 -0.041,0.234 -0.034,0.236 -0.026,0.238 -0.016,0.242 -0.008,0.243 0.001,0.245 0.01,0.247 0.02,0.249 0.03,0.249 0.04,0.25 0.049,0.25 0.061,0.25 0.071,0.249 0.082,0.248 0.092,0.246 0.104,0.244 0.114,0.241 0.126,0.237 0.137,0.234 0.147,0.229 0.159,0.224 0.169,0.218 0.18,0.212 0.19,0.205 0.201,0.197 0.21,0.19 0.221,0.18 0.229,0.172 0.238,0.162 0.247,0.152 0.255,0.14 0.262,0.13 0.27,0.118 0.275,0.106 0.282,0.094 0.288,0.081 0.291,0.068 0.297,0.054 0.299,0.041 0.302,0.027 0.305,0.013 0.306,-10e-4 0.307,-0.016 0.306,-0.03 0.307,-0.044 0.304,-0.059 0.302,-0.073 0.3,-0.088 0.297,-0.102 0.291,-0.116 0.287,-0.13 0.281,-0.144 0.274,-0.158 0.267,-0.171 0.259,-0.184 0.25,-0.196 0.241,-0.208 0.231,-0.22 0.22,-0.231 0.209,-0.242 0.196,-0.252 0.186,-0.26 0.171,-0.27 0.159,-0.278 0.144,-0.285 0.131,-0.291 0.116,-0.297 0.101,-0.302 0.086,-0.305 0.072,-0.31 0.056,-0.311 0.041,-0.313 0.026,-0.314 0.011,-0.314 L 43.421,77.555 43.402,77.244 43.368,76.935 43.32,76.629 43.258,76.328 43.182,76.031 43.093,75.74 42.991,75.454 42.876,75.175 42.749,74.903 42.61,74.639 42.46,74.383 42.3,74.136 42.13,73.898 41.951,73.67 41.762,73.452 41.565,73.243 41.361,73.045 41.15,72.858 40.933,72.682 40.71,72.516 l -0.229,-0.154 -0.232,-0.144 -0.237,-0.132 -0.24,-0.121 -0.243,-0.111 -0.245,-0.099 -0.247,-0.088 -0.249,-0.078 -0.249,-0.067 -0.25,-0.057 -0.249,-0.046 -0.25,-0.036 -0.248,-0.027 -0.248,-0.016 -0.246,-0.007 -0.245,0.002 -0.242,0.012 -0.24,0.021 -0.238,0.029 m 0,-1.586 -0.299,0.063 -0.295,0.072 -0.29,0.082 -0.283,0.093 -0.279,0.101 -0.273,0.11 -0.266,0.119 -0.261,0.128 -0.255,0.135 -0.248,0.143 -0.242,0.15 -0.236,0.158 -0.229,0.165 -0.222,0.171 -0.217,0.178 -0.209,0.183 -0.204,0.19 -0.197,0.195 -0.19,0.201 -0.185,0.206 -0.178,0.212 -0.172,0.217 -0.166,0.221 -0.159,0.227 -0.153,0.232 -0.147,0.237 -0.141,0.242 -0.133,0.246 -0.128,0.252 -0.121,0.258 -0.114,0.262 -0.107,0.267 -0.099,0.272 -0.092,0.278 -0.084,0.283 -0.076,0.288 -0.066,0.293 -0.058,0.298 -0.048,0.303 -0.039,0.307 -0.027,0.312 -0.017,0.316 -0.005,0.319 0.007,0.323 0.019,0.326 0.033,0.328 0.046,0.331 0.06,0.332 0.073,0.332 0.089,0.332 0.103,0.332 0.119,0.33 0.134,0.328 0.15,0.324 0.165,0.321 0.18,0.316 0.197,0.31 0.212,0.303 0.228,0.295 0.243,0.288 0.257,0.277 0.273,0.268 0.287,0.256 0.3,0.245 0.314,0.231 0.326,0.218 0.339,0.204 0.35,0.188 0.361,0.173 0.371,0.157 0.38,0.14 0.388,0.122 0.395,0.105 0.403,0.086 0.408,0.067 0.413,0.049 0.417,0.03 0.42,0.01 0.421,-0.01 0.423,-0.029 0.424,-0.049 0.421,-0.07 0.42,-0.089 0.417,-0.111 0.413,-0.13 0.408,-0.15 0.401,-0.17 0.394,-0.19 0.386,-0.209 0.375,-0.229 0.366,-0.247 0.353,-0.265 0.34,-0.284 0.327,-0.3 0.312,-0.317 0.295,-0.333 0.279,-0.348 0.261,-0.361 0.243,-0.374 0.223,-0.386 0.203,-0.397 0.182,-0.406 0.162,-0.415 0.139,-0.422 0.118,-0.428 0.096,-0.432 0.073,-0.436 0.051,-0.438 0.029,-0.438 0.007,-0.438 -0.015,-0.435 -0.037,-0.433 -0.058,-0.429 -0.078,-0.422 -0.099,-0.417 -0.118,-0.409 -0.138,-0.399 -0.155,-0.391 -0.174,-0.38 -0.191,-0.368 -0.207,-0.357 -0.222,-0.343 -0.236,-0.329 -0.25,-0.315 -0.262,-0.301 -0.274,-0.286 -0.283,-0.27 -0.294,-0.254 -0.302,-0.238 -0.309,-0.223 -0.316,-0.206 -0.32,-0.191 -0.326,-0.174 -0.329,-0.159 -0.332,-0.142 -0.334,-0.128 -0.335,-0.112 -0.336,-0.099 -0.336,-0.083 -0.335,-0.069 -0.334,-0.056 -0.332,-0.043 -0.329,-0.029 -0.327,-0.016 -0.325,-0.005 -0.32,0.007 -0.317,0.02 -0.314,0.03 -0.308,0.041 -0.305,0.052 m 0,-1.471 -0.359,0.091 -0.353,0.102 -0.345,0.113 -0.337,0.125 -0.329,0.135 -0.321,0.146 -0.314,0.155 -0.305,0.165 -0.296,0.173 -0.289,0.182 -0.279,0.19 -0.272,0.198 -0.263,0.205 -0.255,0.211 -0.246,0.219 -0.239,0.224 -0.232,0.23 -0.223,0.234 -0.217,0.241 -0.209,0.246 -0.202,0.25 -0.196,0.255 -0.19,0.26 -0.183,0.266 -0.177,0.269 -0.171,0.275 -0.165,0.28 -0.16,0.285 -0.153,0.291 -0.148,0.297 -0.141,0.303 -0.135,0.31 -0.128,0.316 -0.12,0.322 -0.113,0.329 -0.105,0.337 -0.096,0.345 -0.087,0.351 -0.076,0.359 -0.066,0.365 -0.054,0.373 -0.041,0.38 -0.029,0.386 -0.014,0.393 v 0.398 l 0.016,0.404 0.033,0.407 0.05,0.412 0.067,0.414 0.087,0.416 0.105,0.417 0.125,0.417 0.144,0.416 0.165,0.413 0.186,0.41 0.207,0.405 0.227,0.399 0.249,0.392 0.269,0.383 0.29,0.373 0.31,0.362 0.33,0.35 0.35,0.336 0.368,0.322 0.386,0.305 0.404,0.289 0.42,0.27 0.436,0.252 0.451,0.232 0.465,0.212 0.477,0.19 0.49,0.168 0.499,0.146 0.509,0.123 0.518,0.099 0.525,0.075 0.531,0.052 0.536,0.027 0.54,0.002 0.542,-0.023 0.544,-0.049 0.544,-0.073 0.543,-0.101 0.54,-0.125 0.536,-0.152 0.531,-0.178 0.524,-0.205 0.515,-0.23 0.506,-0.257 0.495,-0.282 0.481,-0.307 0.467,-0.332 0.451,-0.357 0.433,-0.38 0.413,-0.403 0.393,-0.424 0.371,-0.446 0.347,-0.465 0.322,-0.482 0.297,-0.5 0.269,-0.515 0.241,-0.528 0.212,-0.54 0.183,-0.55 0.153,-0.558 0.122,-0.565 0.092,-0.569 0.061,-0.572 0.031,-0.572 10e-4,-0.571 -0.029,-0.568 -0.058,-0.563 -0.087,-0.556 -0.115,-0.548 -0.141,-0.539 -0.168,-0.528 -0.194,-0.514 -0.218,-0.501 -0.241,-0.486 -0.265,-0.468 -0.285,-0.452 -0.306,-0.432 -0.324,-0.413 -0.34,-0.393 -0.357,-0.371 -0.371,-0.351 -0.382,-0.328 -0.394,-0.306 -0.404,-0.285 -0.411,-0.262 -0.417,-0.24 -0.423,-0.218 -0.426,-0.198 -0.429,-0.176 -0.43,-0.156 -0.431,-0.136 -0.429,-0.116 -0.427,-0.099 -0.426,-0.08 -0.422,-0.063 -0.418,-0.047 -0.414,-0.03 -0.409,-0.015 -0.404,-0.001 -0.398,0.014 -0.393,0.027 -0.386,0.041 -0.38,0.053 -0.373,0.067 -0.367,0.078 m 0,-1.387 -0.416,0.12 -0.406,0.134 -0.397,0.146 -0.386,0.159 -0.376,0.171 -0.365,0.182 -0.355,0.194 -0.344,0.204 -0.333,0.214 -0.322,0.224 -0.312,0.232 -0.3,0.24 -0.29,0.247 -0.279,0.254 -0.269,0.261 -0.26,0.265 -0.25,0.271 -0.241,0.276 -0.233,0.279 -0.225,0.284 -0.218,0.287 -0.212,0.292 -0.204,0.295 -0.199,0.298 -0.194,0.303 -0.189,0.307 -0.184,0.312 -0.18,0.317 -0.175,0.322 -0.17,0.33 -0.166,0.335 -0.161,0.343 -0.156,0.35 -0.149,0.359 -0.144,0.368 -0.136,0.377 -0.128,0.387 -0.119,0.397 -0.109,0.407 -0.098,0.417 -0.086,0.427 -0.072,0.438 -0.058,0.447 -0.043,0.456 -0.025,0.466 -0.007,0.474 0.011,0.481 0.033,0.488 0.053,0.494 0.075,0.498 0.1,0.501 0.123,0.503 0.148,0.503 0.173,0.503 0.2,0.5 0.225,0.495 0.252,0.489 0.279,0.482 0.305,0.472 0.332,0.462 0.358,0.448 0.382,0.434 0.409,0.418 0.432,0.401 0.455,0.381 0.478,0.362 0.499,0.339 0.52,0.317 0.538,0.293 0.557,0.269 0.573,0.242 0.588,0.217 0.602,0.189 0.615,0.162 0.626,0.134 0.636,0.106 0.645,0.078 0.652,0.048 0.658,0.019 0.663,-0.01 0.666,-0.041 0.668,-0.071 0.668,-0.103 0.668,-0.134 0.664,-0.166 0.66,-0.198 0.653,-0.231 0.645,-0.264 0.634,-0.296 0.622,-0.329 0.607,-0.362 0.591,-0.393 0.571,-0.426 0.55,-0.456 0.526,-0.486 0.502,-0.515 0.473,-0.543 0.444,-0.569 0.413,-0.593 0.378,-0.616 0.344,-0.637 0.308,-0.655 0.27,-0.671 0.232,-0.685 0.193,-0.696 0.152,-0.705 0.113,-0.71 0.073,-0.714 L 52.658,79.56 52.651,78.847 52.606,78.138 52.524,77.437 52.405,76.744 52.25,76.063 52.061,75.394 51.837,74.741 51.581,74.105 51.293,73.488 50.975,72.893 50.628,72.319 50.254,71.77 49.855,71.246 49.434,70.749 48.99,70.279 48.528,69.837 48.05,69.424 47.557,69.041 47.051,68.687 46.536,68.362 46.012,68.066 45.483,67.798 44.95,67.559 44.415,67.347 43.879,67.161 43.345,67 l -0.531,-0.136 -0.528,-0.113 -0.523,-0.09 -0.516,-0.07 -0.511,-0.05 -0.503,-0.031 -0.495,-0.012 -0.488,0.003 -0.479,0.021 -0.47,0.036 -0.462,0.05 -0.452,0.066 -0.444,0.079 -0.435,0.093 -0.425,0.107 m 0,-1.34 -0.47,0.15 -0.459,0.164 -0.446,0.178 -0.433,0.194 -0.421,0.207 -0.407,0.221 -0.394,0.234 -0.38,0.246 -0.366,0.257 -0.352,0.267 -0.338,0.278 -0.325,0.285 -0.31,0.294 -0.298,0.3 -0.285,0.305 -0.273,0.311 -0.261,0.314 -0.251,0.318 -0.241,0.321 -0.233,0.322 -0.224,0.325 -0.219,0.327 -0.212,0.329 -0.207,0.33 -0.202,0.333 -0.2,0.336 -0.196,0.339 -0.194,0.344 -0.192,0.348 -0.19,0.355 -0.187,0.361 -0.185,0.369 -0.182,0.379 -0.178,0.388 -0.174,0.399 -0.168,0.41 -0.161,0.422 -0.154,0.435 -0.143,0.449 -0.134,0.461 -0.121,0.476 -0.107,0.489 -0.092,0.502 -0.075,0.515 -0.057,0.528 -0.036,0.54 -0.015,0.551 0.008,0.561 0.033,0.57 0.059,0.577 0.087,0.583 0.115,0.588 0.145,0.59 0.175,0.59 0.207,0.589 0.239,0.585 0.271,0.579 0.305,0.572 0.336,0.561 0.369,0.549 0.401,0.535 0.432,0.518 0.463,0.499 0.492,0.479 0.521,0.457 0.549,0.434 0.575,0.408 0.599,0.381 0.623,0.354 0.645,0.325 0.666,0.295 0.684,0.265 0.701,0.234 0.717,0.202 0.731,0.171 0.744,0.139 0.756,0.107 0.766,0.074 0.774,0.041 0.782,0.007 0.788,-0.027 0.793,-0.061 0.795,-0.098 0.796,-0.134 0.796,-0.171 0.792,-0.21 0.787,-0.248 0.779,-0.288 0.769,-0.327 0.757,-0.367 0.742,-0.408 0.723,-0.447 0.701,-0.488 0.678,-0.526 0.65,-0.565 0.62,-0.602 0.587,-0.637 0.551,-0.672 0.512,-0.703 0.472,-0.734 0.427,-0.76 0.383,-0.785 0.336,-0.806 0.287,-0.824 0.238,-0.839 0.187,-0.851 0.137,-0.859 0.086,-0.863 0.036,-0.864 -0.013,-0.862 -0.061,-0.856 -0.109,-0.847 -0.153,-0.836 -0.197,-0.821 -0.241,-0.805 -0.282,-0.785 -0.324,-0.763 -0.363,-0.738 -0.401,-0.711 -0.437,-0.682 -0.47,-0.651 -0.501,-0.617 -0.53,-0.583 -0.556,-0.548 -0.577,-0.511 -0.598,-0.473 -0.614,-0.436 -0.628,-0.398 -0.638,-0.361 -0.645,-0.324 -0.649,-0.288 -0.652,-0.254 -0.651,-0.22 -0.649,-0.188 -0.643,-0.158 -0.637,-0.129 -0.63,-0.102 -0.62,-0.077 -0.61,-0.053 -0.6,-0.032 -0.588,-0.011 -0.576,0.008 -0.564,0.027 -0.553,0.043 -0.54,0.059 -0.529,0.075 -0.517,0.089 -0.505,0.105 -0.494,0.119 -0.482,0.134 m 0,-1.33 -0.524,0.175 -0.511,0.192 -0.496,0.209 -0.48,0.226 -0.466,0.244 -0.449,0.259 -0.432,0.274 -0.416,0.289 -0.398,0.303 -0.381,0.314 -0.363,0.326 -0.346,0.335 -0.328,0.343 -0.312,0.351 -0.296,0.356 -0.281,0.359 -0.267,0.363 -0.254,0.365 -0.242,0.365 -0.232,0.365 -0.224,0.366 -0.217,0.364 -0.21,0.363 -0.208,0.363 -0.204,0.363 -0.202,0.363 -0.202,0.364 -0.203,0.367 -0.203,0.372 -0.205,0.376 -0.205,0.382 -0.206,0.391 -0.206,0.401 -0.206,0.412 -0.204,0.424 -0.2,0.438 -0.195,0.452 -0.188,0.468 -0.179,0.485 -0.169,0.5 -0.157,0.518 -0.144,0.535 -0.128,0.553 -0.11,0.569 -0.091,0.585 -0.069,0.602 -0.046,0.617 -0.02,0.63 0.008,0.643 0.038,0.653 0.069,0.663 0.102,0.669 0.138,0.674 0.173,0.677 0.21,0.676 0.248,0.673 0.287,0.668 0.325,0.659 0.364,0.648 0.403,0.634 0.441,0.618 0.478,0.6 0.514,0.578 0.55,0.555 0.584,0.529 0.616,0.502 0.647,0.474 0.676,0.443 0.704,0.411 0.729,0.379 0.753,0.346 0.776,0.312 0.796,0.276 0.814,0.243 0.832,0.207 0.848,0.172 0.862,0.138 0.875,0.103 0.887,0.066 0.898,0.031 0.907,-0.007 0.914,-0.046 0.921,-0.084 0.925,-0.126 0.926,-0.168 0.927,-0.211 0.923,-0.256 0.918,-0.302 0.909,-0.348 0.898,-0.396 0.881,-0.444 0.863,-0.493 0.841,-0.541 0.813,-0.589 0.783,-0.637 0.748,-0.682 0.711,-0.728 0.668,-0.771 0.622,-0.811 0.573,-0.849 0.521,-0.884 0.466,-0.915 0.409,-0.943 0.349,-0.966 0.289,-0.986 0.227,-1 0.164,-1.012 0.103,-1.017 0.041,-1.019 -0.019,-1.016 -0.078,-1.01 -0.134,-0.999 -0.188,-0.984 -0.241,-0.967 -0.292,-0.946 -0.344,-0.922 -0.394,-0.895 -0.441,-0.865 -0.488,-0.83 -0.532,-0.794 -0.574,-0.755 -0.611,-0.713 -0.645,-0.67 -0.676,-0.625 -0.703,-0.579 -0.726,-0.533 -0.744,-0.485 -0.759,-0.438 -0.769,-0.393 -0.775,-0.347 -0.779,-0.303 -0.777,-0.263 -0.774,-0.221 -0.766,-0.185 -0.758,-0.149 -0.747,-0.117 -0.733,-0.086 -0.719,-0.059 -0.704,-0.033 -0.688,-0.01 -0.673,0.011 -0.655,0.03 -0.641,0.048 -0.624,0.065 -0.609,0.08 -0.594,0.097 -0.58,0.11 -0.566,0.127 -0.551,0.141 -0.539,0.158 m 0,-1.36 -0.58,0.195 -0.565,0.215 -0.547,0.235 -0.531,0.255 -0.512,0.276 -0.494,0.296 -0.474,0.314 -0.454,0.333 -0.432,0.349 -0.411,0.364 -0.389,0.377 -0.367,0.389 -0.346,0.399 -0.325,0.406 -0.304,0.412 -0.286,0.415 -0.268,0.418 -0.252,0.417 -0.238,0.417 -0.225,0.413 -0.217,0.411 -0.208,0.406 -0.203,0.402 -0.2,0.398 -0.198,0.395 -0.2,0.391 -0.201,0.391 -0.205,0.39 -0.21,0.393 -0.215,0.396 -0.219,0.402 -0.224,0.411 -0.229,0.419 -0.23,0.433 -0.232,0.446 -0.231,0.462 -0.227,0.479 -0.222,0.497 -0.214,0.516 -0.204,0.537 -0.192,0.556 -0.18,0.578 -0.163,0.598 -0.146,0.619 -0.126,0.64 -0.103,0.659 -0.077,0.679 -0.051,0.696 -0.019,0.713 0.013,0.727 0.049,0.74 0.087,0.749 0.127,0.756 0.168,0.759 0.211,0.761 0.254,0.758 0.3,0.753 0.346,0.743 0.39,0.731 0.435,0.716 0.479,0.697 0.522,0.675 0.565,0.652 0.604,0.625 0.644,0.596 0.681,0.566 0.716,0.532 0.749,0.5 0.78,0.464 0.81,0.428 0.836,0.391 0.862,0.355 0.885,0.316 0.907,0.279 0.926,0.243 0.945,0.205 0.963,0.169 0.978,0.132 0.994,0.095 1.009,0.057 1.021,0.017 1.032,-0.023 1.042,-0.065 1.051,-0.11 1.056,-0.156 1.059,-0.204 1.06,-0.254 1.058,-0.305 1.051,-0.36 1.041,-0.414 1.027,-0.471 1.008,-0.528 0.984,-0.585 0.956,-0.643 0.924,-0.7 0.885,-0.757 0.841,-0.811 0.794,-0.864 0.741,-0.914 0.683,-0.962 0.622,-1.004 0.557,-1.044 0.489,-1.079 0.418,-1.108 0.344,-1.134 0.271,-1.152 0.197,-1.166 0.122,-1.174 0.048,-1.177 -0.023,-1.175 -0.092,-1.166 -0.159,-1.153 -0.222,-1.137 -0.282,-1.116 -0.344,-1.092 -0.404,-1.063 -0.464,-1.03 -0.521,-0.994 -0.577,-0.954 -0.631,-0.909 -0.68,-0.861 -0.726,-0.811 -0.767,-0.758 -0.803,-0.703 -0.835,-0.646 -0.862,-0.589 -0.882,-0.533 -0.897,-0.475 -0.908,-0.42 -0.913,-0.365 -0.913,-0.314 -0.908,-0.265 -0.901,-0.218 -0.889,-0.176 -0.874,-0.136 -0.857,-0.1 -0.839,-0.068 -0.818,-0.039 -0.798,-0.012 -0.775,0.011 -0.755,0.03 -0.735,0.05 -0.713,0.067 -0.695,0.082 -0.676,0.096 -0.658,0.112 -0.642,0.125 -0.626,0.141 -0.611,0.158 -0.596,0.175"
       style="fill:none;stroke:#ffffff;stroke-width:0.498;stroke-linecap:butt;stroke-linejoin:miter;stroke-miterlimit:10;stroke-dasharray:none;stroke-opacity:1"
       transform="matrix(0.35277776,0,0,-0.35277776,209.06401,111.95522)"
       clip-path="url(#clipPath39)" />
  </g>
</svg>
